<?xml version="1.0" encoding="UTF-8" standalone="no"?><!DOCTYPE svg PUBLIC "-//W3C//DTD SVG 1.1//EN" "http://www.w3.org/Graphics/SVG/1.1/DTD/svg11.dtd"><svg width="100%" height="100%" viewBox="0 0 834 834" version="1.1" xmlns="http://www.w3.org/2000/svg" xmlns:xlink="http://www.w3.org/1999/xlink" xml:space="preserve" xmlns:serif="http://www.serif.com/" style="fill-rule:evenodd;clip-rule:evenodd;stroke-linejoin:round;stroke-miterlimit:2;"><g><path d="M884.788,833.333l-936.243,0l0,-833.333l936.243,-0l0,833.333Z" style="fill:#11111d;"/></g><path d="M455.908,359.587c0,-0 82.812,-98.03 115.948,-137.255c2.431,-2.878 2.971,-6.906 1.382,-10.322c-1.589,-3.416 -5.016,-5.599 -8.784,-5.595c-86.145,0.103 -409.576,0.488 -409.576,0.488l0,-0.002c-7.118,0 -13.617,-2.641 -18.572,-6.998l-2.569,-2.57c-4.359,-4.955 -6.999,-11.453 -6.999,-18.571c0,-7.78 3.156,-16.32 8.26,-21.414c5.092,-5.081 12.12,-8.222 19.88,-8.222l494.574,0c10.508,-0.342 19.714,3.634 25.92,11.206c4.564,5.57 6.501,12.042 6.158,19.804c-0.428,9.68 -4.266,14.302 -15.179,26.364l-135.428,160.177l171.143,256.152c13.394,29.13 -6.831,47.46 -8.554,49.188c-1.732,1.733 -23.77,23.294 -54.259,4.698l-257.22,-174.135l-201.387,170.024c-6.05,5.741 -13.547,10.722 -22.364,11.258c-8.745,0.531 -16.293,-2.171 -23.139,-8.812c-5.17,-5.015 -8.791,-12.494 -8.405,-21.211l0,-369.643c0,-9.193 4.409,-17.357 11.228,-22.492c4.708,-3.545 10.564,-5.647 16.912,-5.647l226.289,0c18.731,0 30.007,14.188 30.007,28.871c0,16.052 -11.586,28.871 -29.982,28.871c0,0 -145.553,-0.066 -186.199,-0.085c-2.765,-0.001 -5.417,1.097 -7.372,3.052c-1.955,1.955 -3.052,4.608 -3.05,7.373c0.032,40.516 0.147,187.883 0.19,241.95c0.003,3.653 2.117,6.975 5.424,8.525c3.308,1.55 7.213,1.049 10.023,-1.286c45.357,-37.702 175.086,-145.538 175.086,-145.538c0,0 124.106,84.253 191.455,129.974c3.906,2.651 9.143,2.159 12.486,-1.175c3.342,-3.333 3.849,-8.57 1.209,-12.482c-44.315,-65.66 -124.536,-184.52 -124.536,-184.52Z" style="fill:#f0b90b;fill-rule:nonzero;"/></svg>