<?xml version="1.0" encoding="UTF-8" standalone="no"?>
<!DOCTYPE svg PUBLIC "-//W3C//DTD SVG 1.1//EN" "http://www.w3.org/Graphics/SVG/1.1/DTD/svg11.dtd">
<svg width="100%" height="100%" viewBox="0 0 98 60" version="1.1"
    xmlns="http://www.w3.org/2000/svg"
    xmlns:xlink="http://www.w3.org/1999/xlink" xml:space="preserve"
    xmlns:serif="http://www.serif.com/" style="fill-rule:evenodd;clip-rule:evenodd;stroke-linejoin:round;stroke-miterlimit:2;">
    <g transform="matrix(0.302965,0,0,0.276245,-22.863356,-33.219131)">
        <rect x="280.887" y="131.1" width="88.812" height="22.092" fill="#FFFFFF"/>
    </g>
    <g transform="matrix(0.288931,0,0,0.288931,-18.213355,-36.669368)">
        <path d="M325,174.38C374.287,174.944 400.628,210.139 400.628,263.369L288.731,263.744C288.731,263.744 289.265,304.105 327.061,303.917C341.872,303.844 354.514,297.375 362.016,284.058L397.903,284.622C384.263,316.244 360.022,332.762 327.44,333.326C280.832,334.131 248.543,301.569 248.543,255.449C248.543,209.329 280.959,173.877 325,174.38ZM290.343,237.929L360.597,237.929C357.805,217.18 343.144,204.89 325.47,204.89C307.796,204.889 293.135,217.179 290.343,237.929Z" style="fill-rule:nonzero;" fill="#FFFFFF"/>
    </g>
    <g transform="matrix(0.271416,0,0,0.271416,-13.018231,-31.218222)">
        <path d="M231.842,258.795C234.714,290.829 228.97,310.712 196.273,326.84C184.034,332.876 168.693,334.767 154.297,334.767L50.684,334.767L50.684,116.962L164.681,116.962C178.82,116.962 222.492,125.357 222.74,167.333C222.908,196.354 206.48,209.618 192.756,215.972C192.756,215.971 228.97,226.761 231.842,258.795ZM185.174,268.012C185.174,237.445 150.657,238.24 150.657,238.24L98.625,238.24L98.625,297.783L150.657,297.783C150.657,297.784 185.174,298.579 185.174,268.012ZM176.611,179.483C176.611,153.856 147.67,154.519 147.67,154.519L98.625,154.519L98.625,204.448L147.67,204.448C147.67,204.448 176.611,205.11 176.611,179.483Z" style="fill-rule:nonzero;" fill="#FFFFFF"/>
    </g>
</svg>
