<?xml version="1.0" encoding="UTF-8" standalone="no"?><!DOCTYPE svg PUBLIC "-//W3C//DTD SVG 1.1//EN" "http://www.w3.org/Graphics/SVG/1.1/DTD/svg11.dtd">
<svg width="100%" height="100%" viewBox="0 0 40000 29584" version="1.1"
    xmlns="http://www.w3.org/2000/svg"
    xmlns:xlink="http://www.w3.org/1999/xlink" xml:space="preserve"
    xmlns:serif="http://www.serif.com/" style="fill-rule:evenodd;clip-rule:evenodd;stroke-linejoin:round;stroke-miterlimit:2;">
    <rect id="Pattern" x="0" y="0" width="40000" height="29583.333" style="fill:none;"/>
    <clipPath id="_clip1">
        <rect x="0" y="0" width="40000" height="29583.333"/>
    </clipPath>
    <g clip-path="url(#_clip1)">
        <g>
            <path data-symbol="true" fill="currentColor" fill-rule="nonzero" opacity="0.25" d="M1865.399,3768.53l-1485.653,1167.384l-2.306,-2.934c-39.865,32.689 -90.842,52.315 -146.368,52.315c-127.533,0 -231.073,-103.541 -231.073,-231.073l0,-2886.338c0,-127.533 103.541,-231.073 231.073,-231.073l1802.715,0c127.533,0 231.073,103.541 231.073,231.073c0,127.533 -103.541,231.073 -231.073,231.073l-1571.641,0l0,2184.458l1349.962,-1060.761l1919.581,954.578l-1085.009,-1699.557l-9.92,-8.318l1021.978,-1218.739l-3427.666,0c-127.533,0 -231.073,-103.541 -231.073,-231.073c0,-127.533 103.541,-231.073 231.073,-231.073l3915.539,0c127.533,0 231.073,103.541 231.073,231.073c0,58.98 -22.145,112.829 -58.568,153.679l4.49,3.765l-1112.235,1326.374l1360.749,2131.476l-0.245,0.156c21.032,34.817 33.138,75.62 33.138,119.228c0,127.533 -103.541,231.073 -231.073,231.073c-35.003,0 -68.198,-7.8 -97.942,-21.754l-0.201,0.404l-64.454,-32.052l-2.002,4.021l-2343.944,-1167.384Z" />
            <path data-symbol="true" fill="currentColor" fill-rule="nonzero" opacity="0.25" d="M7737.781,3768.53l1485.653,1167.384l2.306,-2.934c39.865,32.689 90.842,52.315 146.368,52.315c127.533,0 231.073,-103.541 231.073,-231.073l0,-2886.338c0,-127.533 -103.541,-231.073 -231.073,-231.073l-1802.715,0c-127.533,0 -231.073,103.541 -231.073,231.073c0,127.533 103.541,231.073 231.073,231.073l1571.641,0l0,2184.458l-1349.962,-1060.761l-1919.581,954.578l1085.009,-1699.557l9.92,-8.318l-1021.978,-1218.739l3427.666,0c127.533,0 231.073,-103.541 231.073,-231.073c0,-127.533 -103.541,-231.073 -231.073,-231.073l-3915.539,0c-127.533,0 -231.073,103.541 -231.073,231.073c0,58.98 22.145,112.829 58.568,153.679l-4.49,3.765l1112.235,1326.374l-1360.749,2131.476l0.245,0.156c-21.032,34.817 -33.138,75.62 -33.138,119.228c0,127.533 103.541,231.073 231.073,231.073c35.003,0 68.198,-7.8 97.942,-21.754l0.201,0.404l64.454,-32.052l2.002,4.021l2343.944,-1167.384Z" />
            <path data-symbol="true" fill="currentColor" fill-rule="nonzero" opacity="0.25" d="M1865.399,6681.942l-1485.653,-1167.384l-2.306,2.934c-39.865,-32.689 -90.842,-52.315 -146.368,-52.315c-127.533,0 -231.073,103.541 -231.073,231.073l0,2886.338c0,127.533 103.541,231.073 231.073,231.073l1802.715,0c127.533,0 231.073,-103.541 231.073,-231.073c0,-127.533 -103.541,-231.073 -231.073,-231.073l-1571.641,0l0,-2184.458l1349.962,1060.761l1919.581,-954.578l-1085.009,1699.557l-9.92,8.318l1021.978,1218.739l-3427.666,0c-127.533,0 -231.073,103.541 -231.073,231.073c0,127.533 103.541,231.073 231.073,231.073l3915.539,0c127.533,0 231.073,-103.541 231.073,-231.073c0,-58.98 -22.145,-112.829 -58.568,-153.679l4.49,-3.765l-1112.235,-1326.374l1360.749,-2131.476l-0.245,-0.156c21.032,-34.817 33.138,-75.62 33.138,-119.228c0,-127.533 -103.541,-231.073 -231.073,-231.073c-35.003,0 -68.198,7.8 -97.942,21.754l-0.201,-0.404l-64.454,32.052l-2.002,-4.021l-2343.944,1167.384Z" />
            <path data-symbol="true" fill="currentColor" fill-rule="nonzero" opacity="0.25" d="M7737.781,6681.942l1485.653,-1167.384l2.306,2.934c39.865,-32.689 90.842,-52.315 146.368,-52.315c127.533,0 231.073,103.541 231.073,231.073l0,2886.338c0,127.533 -103.541,231.073 -231.073,231.073l-1802.715,0c-127.533,0 -231.073,-103.541 -231.073,-231.073c0,-127.533 103.541,-231.073 231.073,-231.073l1571.641,0l0,-2184.458l-1349.962,1060.761l-1919.581,-954.578l1085.009,1699.557l9.92,8.318l-1021.978,1218.739l3427.666,0c127.533,0 231.073,103.541 231.073,231.073c0,127.533 -103.541,231.073 -231.073,231.073l-3915.539,0c-127.533,0 -231.073,-103.541 -231.073,-231.073c0,-58.98 22.145,-112.829 58.568,-153.679l-4.49,-3.765l1112.235,-1326.374l-1360.749,-2131.476l0.245,-0.156c-21.032,-34.817 -33.138,-75.62 -33.138,-119.228c0,-127.533 103.541,-231.073 231.073,-231.073c35.003,0 68.198,7.8 97.942,21.754l0.201,-0.404l64.454,32.052l2.002,-4.021l2343.944,1167.384Z" />
        </g>
        <g>
            <path data-symbol="true" fill="currentColor" fill-rule="nonzero" opacity="0.25" d="M1868.148,13334.961l-1485.653,1167.384l-2.306,-2.934c-39.865,32.689 -90.842,52.315 -146.368,52.315c-127.533,0 -231.073,-103.541 -231.073,-231.073l0,-2886.338c0,-127.533 103.541,-231.073 231.073,-231.073l1802.715,0c127.533,0 231.073,103.541 231.073,231.073c0,127.533 -103.541,231.073 -231.073,231.073l-1571.641,0l0,2184.458l1349.962,-1060.761l1919.581,954.578l-1085.009,-1699.557l-9.92,-8.318l1021.978,-1218.739l-3427.666,0c-127.533,0 -231.073,-103.541 -231.073,-231.073c0,-127.533 103.541,-231.073 231.073,-231.073l3915.539,0c127.533,0 231.073,103.541 231.073,231.073c0,58.98 -22.145,112.829 -58.568,153.679l4.49,3.765l-1112.235,1326.374l1360.749,2131.476l-0.245,0.156c21.032,34.817 33.138,75.62 33.138,119.228c0,127.533 -103.541,231.073 -231.073,231.073c-35.003,0 -68.198,-7.8 -97.942,-21.754l-0.201,0.404l-64.454,-32.052l-2.002,4.021l-2343.944,-1167.384Z" />
            <path data-symbol="true" fill="currentColor" fill-rule="nonzero" opacity="0.25" d="M7740.529,13334.961l1485.653,1167.384l2.306,-2.934c39.865,32.689 90.842,52.315 146.368,52.315c127.533,0 231.073,-103.541 231.073,-231.073l0,-2886.338c0,-127.533 -103.541,-231.073 -231.073,-231.073l-1802.715,0c-127.533,0 -231.073,103.541 -231.073,231.073c0,127.533 103.541,231.073 231.073,231.073l1571.641,0l0,2184.458l-1349.962,-1060.761l-1919.581,954.578l1085.009,-1699.557l9.92,-8.318l-1021.978,-1218.739l3427.666,0c127.533,0 231.073,-103.541 231.073,-231.073c0,-127.533 -103.541,-231.073 -231.073,-231.073l-3915.539,0c-127.533,0 -231.073,103.541 -231.073,231.073c0,58.98 22.145,112.829 58.568,153.679l-4.49,3.765l1112.235,1326.374l-1360.749,2131.476l0.245,0.156c-21.032,34.817 -33.138,75.62 -33.138,119.228c0,127.533 103.541,231.073 231.073,231.073c35.003,0 68.198,-7.8 97.942,-21.754l0.201,0.404l64.454,-32.052l2.002,4.021l2343.944,-1167.384Z" />
            <path data-symbol="true" fill="currentColor" fill-rule="nonzero" opacity="0.25" d="M1868.148,16248.373l-1485.653,-1167.384l-2.306,2.934c-39.865,-32.689 -90.842,-52.315 -146.368,-52.315c-127.533,0 -231.073,103.541 -231.073,231.073l0,2886.338c0,127.533 103.541,231.073 231.073,231.073l1802.715,0c127.533,0 231.073,-103.541 231.073,-231.073c0,-127.533 -103.541,-231.073 -231.073,-231.073l-1571.641,0l0,-2184.458l1349.962,1060.761l1919.581,-954.578l-1085.009,1699.557l-9.92,8.318l1021.978,1218.739l-3427.666,0c-127.533,0 -231.073,103.541 -231.073,231.073c0,127.533 103.541,231.073 231.073,231.073l3915.539,0c127.533,0 231.073,-103.541 231.073,-231.073c0,-58.98 -22.145,-112.829 -58.568,-153.679l4.49,-3.765l-1112.235,-1326.374l1360.749,-2131.476l-0.245,-0.156c21.032,-34.817 33.138,-75.62 33.138,-119.228c0,-127.533 -103.541,-231.073 -231.073,-231.073c-35.003,0 -68.198,7.8 -97.942,21.754l-0.201,-0.404l-64.454,32.052l-2.002,-4.021l-2343.944,1167.384Z" />
            <path data-symbol="true" fill="currentColor" fill-rule="nonzero" opacity="0.25" d="M7740.529,16248.373l1485.653,-1167.384l2.306,2.934c39.865,-32.689 90.842,-52.315 146.368,-52.315c127.533,0 231.073,103.541 231.073,231.073l0,2886.338c0,127.533 -103.541,231.073 -231.073,231.073l-1802.715,0c-127.533,0 -231.073,-103.541 -231.073,-231.073c0,-127.533 103.541,-231.073 231.073,-231.073l1571.641,0l0,-2184.458l-1349.962,1060.761l-1919.581,-954.578l1085.009,1699.557l9.92,8.318l-1021.978,1218.739l3427.666,0c127.533,0 231.073,103.541 231.073,231.073c0,127.533 -103.541,231.073 -231.073,231.073l-3915.539,0c-127.533,0 -231.073,-103.541 -231.073,-231.073c0,-58.98 22.145,-112.829 58.568,-153.679l-4.49,-3.765l1112.235,-1326.374l-1360.749,-2131.476l0.245,-0.156c-21.032,-34.817 -33.138,-75.62 -33.138,-119.228c0,-127.533 103.541,-231.073 231.073,-231.073c35.003,0 68.198,7.8 97.942,21.754l0.201,-0.404l64.454,32.052l2.002,-4.021l2343.944,1167.384Z" />
        </g>
        <g>
            <path data-symbol="true" fill="currentColor" fill-rule="nonzero" opacity="0.25" d="M1868.148,22901.391l-1485.653,1167.384l-2.306,-2.934c-39.865,32.689 -90.842,52.315 -146.368,52.315c-127.533,0 -231.073,-103.541 -231.073,-231.073l0,-2886.338c0,-127.533 103.541,-231.073 231.073,-231.073l1802.715,0c127.533,0 231.073,103.541 231.073,231.073c0,127.533 -103.541,231.073 -231.073,231.073l-1571.641,0l0,2184.458l1349.962,-1060.761l1919.581,954.578l-1085.009,-1699.557l-9.92,-8.318l1021.978,-1218.739l-3427.666,0c-127.533,0 -231.073,-103.541 -231.073,-231.073c0,-127.533 103.541,-231.073 231.073,-231.073l3915.539,0c127.533,0 231.073,103.541 231.073,231.073c0,58.98 -22.145,112.829 -58.568,153.679l4.49,3.765l-1112.235,1326.374l1360.749,2131.476l-0.245,0.156c21.032,34.817 33.138,75.62 33.138,119.228c0,127.533 -103.541,231.073 -231.073,231.073c-35.003,0 -68.198,-7.8 -97.942,-21.754l-0.201,0.404l-64.454,-32.052l-2.002,4.021l-2343.944,-1167.384Z" />
            <path data-symbol="true" fill="currentColor" fill-rule="nonzero" opacity="0.25" d="M7740.529,22901.391l1485.653,1167.384l2.306,-2.934c39.865,32.689 90.842,52.315 146.368,52.315c127.533,0 231.073,-103.541 231.073,-231.073l0,-2886.338c0,-127.533 -103.541,-231.073 -231.073,-231.073l-1802.715,0c-127.533,0 -231.073,103.541 -231.073,231.073c0,127.533 103.541,231.073 231.073,231.073l1571.641,0l0,2184.458l-1349.962,-1060.761l-1919.581,954.578l1085.009,-1699.557l9.92,-8.318l-1021.978,-1218.739l3427.666,0c127.533,0 231.073,-103.541 231.073,-231.073c0,-127.533 -103.541,-231.073 -231.073,-231.073l-3915.539,0c-127.533,0 -231.073,103.541 -231.073,231.073c0,58.98 22.145,112.829 58.568,153.679l-4.49,3.765l1112.235,1326.374l-1360.749,2131.476l0.245,0.156c-21.032,34.817 -33.138,75.62 -33.138,119.228c0,127.533 103.541,231.073 231.073,231.073c35.003,0 68.198,-7.8 97.942,-21.754l0.201,0.404l64.454,-32.052l2.002,4.021l2343.944,-1167.384Z" />
            <path data-symbol="true" fill="currentColor" fill-rule="nonzero" opacity="0.25" d="M1868.148,25814.803l-1485.653,-1167.384l-2.306,2.934c-39.865,-32.689 -90.842,-52.315 -146.368,-52.315c-127.533,0 -231.073,103.541 -231.073,231.073l0,2886.338c0,127.533 103.541,231.073 231.073,231.073l1802.715,0c127.533,0 231.073,-103.541 231.073,-231.073c0,-127.533 -103.541,-231.073 -231.073,-231.073l-1571.641,0l0,-2184.458l1349.962,1060.761l1919.581,-954.578l-1085.009,1699.557l-9.92,8.318l1021.978,1218.739l-3427.666,0c-127.533,0 -231.073,103.541 -231.073,231.073c0,127.533 103.541,231.073 231.073,231.073l3915.539,0c127.533,0 231.073,-103.541 231.073,-231.073c0,-58.98 -22.145,-112.829 -58.568,-153.679l4.49,-3.765l-1112.235,-1326.374l1360.749,-2131.476l-0.245,-0.156c21.032,-34.817 33.138,-75.62 33.138,-119.228c0,-127.533 -103.541,-231.073 -231.073,-231.073c-35.003,0 -68.198,7.8 -97.942,21.754l-0.201,-0.404l-64.454,32.052l-2.002,-4.021l-2343.944,1167.384Z" />
            <path data-symbol="true" fill="currentColor" fill-rule="nonzero" opacity="0.25" d="M7740.529,25814.803l1485.653,-1167.384l2.306,2.934c39.865,-32.689 90.842,-52.315 146.368,-52.315c127.533,0 231.073,103.541 231.073,231.073l0,2886.338c0,127.533 -103.541,231.073 -231.073,231.073l-1802.715,0c-127.533,0 -231.073,-103.541 -231.073,-231.073c0,-127.533 103.541,-231.073 231.073,-231.073l1571.641,0l0,-2184.458l-1349.962,1060.761l-1919.581,-954.578l1085.009,1699.557l9.92,8.318l-1021.978,1218.739l3427.666,0c127.533,0 231.073,103.541 231.073,231.073c0,127.533 -103.541,231.073 -231.073,231.073l-3915.539,0c-127.533,0 -231.073,-103.541 -231.073,-231.073c0,-58.98 22.145,-112.829 58.568,-153.679l-4.49,-3.765l1112.235,-1326.374l-1360.749,-2131.476l0.245,-0.156c-21.032,-34.817 -33.138,-75.62 -33.138,-119.228c0,-127.533 103.541,-231.073 231.073,-231.073c35.003,0 68.198,7.8 97.942,21.754l0.201,-0.404l64.454,32.052l2.002,-4.021l2343.944,1167.384Z" />
        </g>
        <g>
            <path data-symbol="true" fill="currentColor" fill-rule="nonzero" opacity="0.25" d="M11998.76,3768.53l-1485.653,1167.384l-2.306,-2.934c-39.865,32.689 -90.842,52.315 -146.368,52.315c-127.533,0 -231.073,-103.541 -231.073,-231.073l0,-2886.338c0,-127.533 103.541,-231.073 231.073,-231.073l1802.715,0c127.533,0 231.073,103.541 231.073,231.073c0,127.533 -103.541,231.073 -231.073,231.073l-1571.641,0l0,2184.458l1349.962,-1060.761l1919.581,954.578l-1085.009,-1699.557l-9.92,-8.318l1021.978,-1218.739l-3427.666,0c-127.533,0 -231.073,-103.541 -231.073,-231.073c0,-127.533 103.541,-231.073 231.073,-231.073l3915.539,0c127.533,0 231.073,103.541 231.073,231.073c0,58.98 -22.145,112.829 -58.568,153.679l4.49,3.765l-1112.235,1326.374l1360.749,2131.476l-0.245,0.156c21.032,34.817 33.138,75.62 33.138,119.228c0,127.533 -103.541,231.073 -231.073,231.073c-35.003,0 -68.198,-7.8 -97.942,-21.754l-0.201,0.404l-64.454,-32.052l-2.002,4.021l-2343.944,-1167.384Z" />
            <path data-symbol="true" fill="currentColor" fill-rule="nonzero" opacity="0.25" d="M17871.141,3768.53l1485.653,1167.384l2.306,-2.934c39.865,32.689 90.842,52.315 146.368,52.315c127.533,0 231.073,-103.541 231.073,-231.073l0,-2886.338c0,-127.533 -103.541,-231.073 -231.073,-231.073l-1802.715,0c-127.533,0 -231.073,103.541 -231.073,231.073c0,127.533 103.541,231.073 231.073,231.073l1571.641,0l0,2184.458l-1349.962,-1060.761l-1919.581,954.578l1085.009,-1699.557l9.92,-8.318l-1021.978,-1218.739l3427.666,0c127.533,0 231.073,-103.541 231.073,-231.073c0,-127.533 -103.541,-231.073 -231.073,-231.073l-3915.539,0c-127.533,0 -231.073,103.541 -231.073,231.073c0,58.98 22.145,112.829 58.568,153.679l-4.49,3.765l1112.235,1326.374l-1360.749,2131.476l0.245,0.156c-21.032,34.817 -33.138,75.62 -33.138,119.228c0,127.533 103.541,231.073 231.073,231.073c35.003,0 68.198,-7.8 97.942,-21.754l0.201,0.404l64.454,-32.052l2.002,4.021l2343.944,-1167.384Z" />
            <path data-symbol="true" fill="currentColor" fill-rule="nonzero" opacity="0.25" d="M11998.76,6681.942l-1485.653,-1167.384l-2.306,2.934c-39.865,-32.689 -90.842,-52.315 -146.368,-52.315c-127.533,0 -231.073,103.541 -231.073,231.073l0,2886.338c0,127.533 103.541,231.073 231.073,231.073l1802.715,0c127.533,0 231.073,-103.541 231.073,-231.073c0,-127.533 -103.541,-231.073 -231.073,-231.073l-1571.641,0l0,-2184.458l1349.962,1060.761l1919.581,-954.578l-1085.009,1699.557l-9.92,8.318l1021.978,1218.739l-3427.666,0c-127.533,0 -231.073,103.541 -231.073,231.073c0,127.533 103.541,231.073 231.073,231.073l3915.539,0c127.533,0 231.073,-103.541 231.073,-231.073c0,-58.98 -22.145,-112.829 -58.568,-153.679l4.49,-3.765l-1112.235,-1326.374l1360.749,-2131.476l-0.245,-0.156c21.032,-34.817 33.138,-75.62 33.138,-119.228c0,-127.533 -103.541,-231.073 -231.073,-231.073c-35.003,0 -68.198,7.8 -97.942,21.754l-0.201,-0.404l-64.454,32.052l-2.002,-4.021l-2343.944,1167.384Z" />
            <path data-symbol="true" fill="currentColor" fill-rule="nonzero" opacity="0.25" d="M17871.141,6681.942l1485.653,-1167.384l2.306,2.934c39.865,-32.689 90.842,-52.315 146.368,-52.315c127.533,0 231.073,103.541 231.073,231.073l0,2886.338c0,127.533 -103.541,231.073 -231.073,231.073l-1802.715,0c-127.533,0 -231.073,-103.541 -231.073,-231.073c0,-127.533 103.541,-231.073 231.073,-231.073l1571.641,0l0,-2184.458l-1349.962,1060.761l-1919.581,-954.578l1085.009,1699.557l9.92,8.318l-1021.978,1218.739l3427.666,0c127.533,0 231.073,103.541 231.073,231.073c0,127.533 -103.541,231.073 -231.073,231.073l-3915.539,0c-127.533,0 -231.073,-103.541 -231.073,-231.073c0,-58.98 22.145,-112.829 58.568,-153.679l-4.49,-3.765l1112.235,-1326.374l-1360.749,-2131.476l0.245,-0.156c-21.032,-34.817 -33.138,-75.62 -33.138,-119.228c0,-127.533 103.541,-231.073 231.073,-231.073c35.003,0 68.198,7.8 97.942,21.754l0.201,-0.404l64.454,32.052l2.002,-4.021l2343.944,1167.384Z" />
        </g>
        <g>
            <path data-symbol="true" fill="currentColor" fill-rule="nonzero" opacity="0.25" d="M12001.508,13334.961l-1485.653,1167.384l-2.306,-2.934c-39.865,32.689 -90.842,52.315 -146.368,52.315c-127.533,0 -231.073,-103.541 -231.073,-231.073l0,-2886.338c0,-127.533 103.541,-231.073 231.073,-231.073l1802.715,0c127.533,0 231.073,103.541 231.073,231.073c0,127.533 -103.541,231.073 -231.073,231.073l-1571.641,0l0,2184.458l1349.962,-1060.761l1919.581,954.578l-1085.009,-1699.557l-9.92,-8.318l1021.978,-1218.739l-3427.666,0c-127.533,0 -231.073,-103.541 -231.073,-231.073c0,-127.533 103.541,-231.073 231.073,-231.073l3915.539,0c127.533,0 231.073,103.541 231.073,231.073c0,58.98 -22.145,112.829 -58.568,153.679l4.49,3.765l-1112.235,1326.374l1360.749,2131.476l-0.245,0.156c21.032,34.817 33.138,75.62 33.138,119.228c0,127.533 -103.541,231.073 -231.073,231.073c-35.003,0 -68.198,-7.8 -97.942,-21.754l-0.201,0.404l-64.454,-32.052l-2.002,4.021l-2343.944,-1167.384Z" />
            <path data-symbol="true" fill="currentColor" fill-rule="nonzero" opacity="0.25" d="M17873.89,13334.961l1485.653,1167.384l2.306,-2.934c39.865,32.689 90.842,52.315 146.368,52.315c127.533,0 231.073,-103.541 231.073,-231.073l0,-2886.338c0,-127.533 -103.541,-231.073 -231.073,-231.073l-1802.715,0c-127.533,0 -231.073,103.541 -231.073,231.073c0,127.533 103.541,231.073 231.073,231.073l1571.641,0l0,2184.458l-1349.962,-1060.761l-1919.581,954.578l1085.009,-1699.557l9.92,-8.318l-1021.978,-1218.739l3427.666,0c127.533,0 231.073,-103.541 231.073,-231.073c0,-127.533 -103.541,-231.073 -231.073,-231.073l-3915.539,0c-127.533,0 -231.073,103.541 -231.073,231.073c0,58.98 22.145,112.829 58.568,153.679l-4.49,3.765l1112.235,1326.374l-1360.749,2131.476l0.245,0.156c-21.032,34.817 -33.138,75.62 -33.138,119.228c0,127.533 103.541,231.073 231.073,231.073c35.003,0 68.198,-7.8 97.942,-21.754l0.201,0.404l64.454,-32.052l2.002,4.021l2343.944,-1167.384Z" />
            <path data-symbol="true" fill="currentColor" fill-rule="nonzero" opacity="0.25" d="M12001.508,16248.373l-1485.653,-1167.384l-2.306,2.934c-39.865,-32.689 -90.842,-52.315 -146.368,-52.315c-127.533,0 -231.073,103.541 -231.073,231.073l0,2886.338c0,127.533 103.541,231.073 231.073,231.073l1802.715,0c127.533,0 231.073,-103.541 231.073,-231.073c0,-127.533 -103.541,-231.073 -231.073,-231.073l-1571.641,0l0,-2184.458l1349.962,1060.761l1919.581,-954.578l-1085.009,1699.557l-9.92,8.318l1021.978,1218.739l-3427.666,0c-127.533,0 -231.073,103.541 -231.073,231.073c0,127.533 103.541,231.073 231.073,231.073l3915.539,0c127.533,0 231.073,-103.541 231.073,-231.073c0,-58.98 -22.145,-112.829 -58.568,-153.679l4.49,-3.765l-1112.235,-1326.374l1360.749,-2131.476l-0.245,-0.156c21.032,-34.817 33.138,-75.62 33.138,-119.228c0,-127.533 -103.541,-231.073 -231.073,-231.073c-35.003,0 -68.198,7.8 -97.942,21.754l-0.201,-0.404l-64.454,32.052l-2.002,-4.021l-2343.944,1167.384Z" />
            <path data-symbol="true" fill="currentColor" fill-rule="nonzero" opacity="0.25" d="M17873.89,16248.373l1485.653,-1167.384l2.306,2.934c39.865,-32.689 90.842,-52.315 146.368,-52.315c127.533,0 231.073,103.541 231.073,231.073l0,2886.338c0,127.533 -103.541,231.073 -231.073,231.073l-1802.715,0c-127.533,0 -231.073,-103.541 -231.073,-231.073c0,-127.533 103.541,-231.073 231.073,-231.073l1571.641,0l0,-2184.458l-1349.962,1060.761l-1919.581,-954.578l1085.009,1699.557l9.92,8.318l-1021.978,1218.739l3427.666,0c127.533,0 231.073,103.541 231.073,231.073c0,127.533 -103.541,231.073 -231.073,231.073l-3915.539,0c-127.533,0 -231.073,-103.541 -231.073,-231.073c0,-58.98 22.145,-112.829 58.568,-153.679l-4.49,-3.765l1112.235,-1326.374l-1360.749,-2131.476l0.245,-0.156c-21.032,-34.817 -33.138,-75.62 -33.138,-119.228c0,-127.533 103.541,-231.073 231.073,-231.073c35.003,0 68.198,7.8 97.942,21.754l0.201,-0.404l64.454,32.052l2.002,-4.021l2343.944,1167.384Z" />
        </g>
        <g>
            <path data-symbol="true" fill="currentColor" fill-rule="nonzero" opacity="0.25" d="M12001.508,22901.391l-1485.653,1167.384l-2.306,-2.934c-39.865,32.689 -90.842,52.315 -146.368,52.315c-127.533,0 -231.073,-103.541 -231.073,-231.073l0,-2886.338c0,-127.533 103.541,-231.073 231.073,-231.073l1802.715,0c127.533,0 231.073,103.541 231.073,231.073c0,127.533 -103.541,231.073 -231.073,231.073l-1571.641,0l0,2184.458l1349.962,-1060.761l1919.581,954.578l-1085.009,-1699.557l-9.92,-8.318l1021.978,-1218.739l-3427.666,0c-127.533,0 -231.073,-103.541 -231.073,-231.073c0,-127.533 103.541,-231.073 231.073,-231.073l3915.539,0c127.533,0 231.073,103.541 231.073,231.073c0,58.98 -22.145,112.829 -58.568,153.679l4.49,3.765l-1112.235,1326.374l1360.749,2131.476l-0.245,0.156c21.032,34.817 33.138,75.62 33.138,119.228c0,127.533 -103.541,231.073 -231.073,231.073c-35.003,0 -68.198,-7.8 -97.942,-21.754l-0.201,0.404l-64.454,-32.052l-2.002,4.021l-2343.944,-1167.384Z" />
            <path data-symbol="true" fill="currentColor" fill-rule="nonzero" opacity="0.25" d="M17873.89,22901.391l1485.653,1167.384l2.306,-2.934c39.865,32.689 90.842,52.315 146.368,52.315c127.533,0 231.073,-103.541 231.073,-231.073l0,-2886.338c0,-127.533 -103.541,-231.073 -231.073,-231.073l-1802.715,0c-127.533,0 -231.073,103.541 -231.073,231.073c0,127.533 103.541,231.073 231.073,231.073l1571.641,0l0,2184.458l-1349.962,-1060.761l-1919.581,954.578l1085.009,-1699.557l9.92,-8.318l-1021.978,-1218.739l3427.666,0c127.533,0 231.073,-103.541 231.073,-231.073c0,-127.533 -103.541,-231.073 -231.073,-231.073l-3915.539,0c-127.533,0 -231.073,103.541 -231.073,231.073c0,58.98 22.145,112.829 58.568,153.679l-4.49,3.765l1112.235,1326.374l-1360.749,2131.476l0.245,0.156c-21.032,34.817 -33.138,75.62 -33.138,119.228c0,127.533 103.541,231.073 231.073,231.073c35.003,0 68.198,-7.8 97.942,-21.754l0.201,0.404l64.454,-32.052l2.002,4.021l2343.944,-1167.384Z" />
            <path data-symbol="true" fill="currentColor" fill-rule="nonzero" opacity="0.25" d="M12001.508,25814.803l-1485.653,-1167.384l-2.306,2.934c-39.865,-32.689 -90.842,-52.315 -146.368,-52.315c-127.533,0 -231.073,103.541 -231.073,231.073l0,2886.338c0,127.533 103.541,231.073 231.073,231.073l1802.715,0c127.533,0 231.073,-103.541 231.073,-231.073c0,-127.533 -103.541,-231.073 -231.073,-231.073l-1571.641,0l0,-2184.458l1349.962,1060.761l1919.581,-954.578l-1085.009,1699.557l-9.92,8.318l1021.978,1218.739l-3427.666,0c-127.533,0 -231.073,103.541 -231.073,231.073c0,127.533 103.541,231.073 231.073,231.073l3915.539,0c127.533,0 231.073,-103.541 231.073,-231.073c0,-58.98 -22.145,-112.829 -58.568,-153.679l4.49,-3.765l-1112.235,-1326.374l1360.749,-2131.476l-0.245,-0.156c21.032,-34.817 33.138,-75.62 33.138,-119.228c0,-127.533 -103.541,-231.073 -231.073,-231.073c-35.003,0 -68.198,7.8 -97.942,21.754l-0.201,-0.404l-64.454,32.052l-2.002,-4.021l-2343.944,1167.384Z" />
            <path data-symbol="true" fill="currentColor" fill-rule="nonzero" opacity="0.25" d="M17873.89,25814.803l1485.653,-1167.384l2.306,2.934c39.865,-32.689 90.842,-52.315 146.368,-52.315c127.533,0 231.073,103.541 231.073,231.073l0,2886.338c0,127.533 -103.541,231.073 -231.073,231.073l-1802.715,0c-127.533,0 -231.073,-103.541 -231.073,-231.073c0,-127.533 103.541,-231.073 231.073,-231.073l1571.641,0l0,-2184.458l-1349.962,1060.761l-1919.581,-954.578l1085.009,1699.557l9.92,8.318l-1021.978,1218.739l3427.666,0c127.533,0 231.073,103.541 231.073,231.073c0,127.533 -103.541,231.073 -231.073,231.073l-3915.539,0c-127.533,0 -231.073,-103.541 -231.073,-231.073c0,-58.98 22.145,-112.829 58.568,-153.679l-4.49,-3.765l1112.235,-1326.374l-1360.749,-2131.476l0.245,-0.156c-21.032,-34.817 -33.138,-75.62 -33.138,-119.228c0,-127.533 103.541,-231.073 231.073,-231.073c35.003,0 68.198,7.8 97.942,21.754l0.201,-0.404l64.454,32.052l2.002,-4.021l2343.944,1167.384Z" />
        </g>
        <g>
            <path data-symbol="true" fill="currentColor" fill-rule="nonzero" opacity="0.25" d="M22151.623,3768.53l-1485.653,1167.384l-2.306,-2.934c-39.865,32.689 -90.842,52.315 -146.368,52.315c-127.533,0 -231.073,-103.541 -231.073,-231.073l0,-2886.338c0,-127.533 103.541,-231.073 231.073,-231.073l1802.715,0c127.533,0 231.073,103.541 231.073,231.073c0,127.533 -103.541,231.073 -231.073,231.073l-1571.641,0l0,2184.458l1349.962,-1060.761l1919.581,954.578l-1085.009,-1699.557l-9.92,-8.318l1021.978,-1218.739l-3427.666,0c-127.533,0 -231.073,-103.541 -231.073,-231.073c0,-127.533 103.541,-231.073 231.073,-231.073l3915.539,0c127.533,0 231.073,103.541 231.073,231.073c0,58.98 -22.145,112.829 -58.568,153.679l4.49,3.765l-1112.235,1326.374l1360.749,2131.476l-0.245,0.156c21.032,34.817 33.138,75.62 33.138,119.228c0,127.533 -103.541,231.073 -231.073,231.073c-35.003,0 -68.198,-7.8 -97.942,-21.754l-0.201,0.404l-64.454,-32.052l-2.002,4.021l-2343.944,-1167.384Z" />
            <path data-symbol="true" fill="currentColor" fill-rule="nonzero" opacity="0.25" d="M28024.004,3768.53l1485.653,1167.384l2.306,-2.934c39.865,32.689 90.842,52.315 146.368,52.315c127.533,0 231.073,-103.541 231.073,-231.073l0,-2886.338c0,-127.533 -103.541,-231.073 -231.073,-231.073l-1802.715,0c-127.533,0 -231.073,103.541 -231.073,231.073c0,127.533 103.541,231.073 231.073,231.073l1571.641,0l0,2184.458l-1349.962,-1060.761l-1919.581,954.578l1085.009,-1699.557l9.92,-8.318l-1021.978,-1218.739l3427.666,0c127.533,0 231.073,-103.541 231.073,-231.073c0,-127.533 -103.541,-231.073 -231.073,-231.073l-3915.539,0c-127.533,0 -231.073,103.541 -231.073,231.073c0,58.98 22.145,112.829 58.568,153.679l-4.49,3.765l1112.235,1326.374l-1360.749,2131.476l0.245,0.156c-21.032,34.817 -33.138,75.62 -33.138,119.228c0,127.533 103.541,231.073 231.073,231.073c35.003,0 68.198,-7.8 97.942,-21.754l0.201,0.404l64.454,-32.052l2.002,4.021l2343.944,-1167.384Z" />
            <path data-symbol="true" fill="currentColor" fill-rule="nonzero" opacity="0.25" d="M22151.623,6681.942l-1485.653,-1167.384l-2.306,2.934c-39.865,-32.689 -90.842,-52.315 -146.368,-52.315c-127.533,0 -231.073,103.541 -231.073,231.073l0,2886.338c0,127.533 103.541,231.073 231.073,231.073l1802.715,0c127.533,0 231.073,-103.541 231.073,-231.073c0,-127.533 -103.541,-231.073 -231.073,-231.073l-1571.641,0l0,-2184.458l1349.962,1060.761l1919.581,-954.578l-1085.009,1699.557l-9.92,8.318l1021.978,1218.739l-3427.666,0c-127.533,0 -231.073,103.541 -231.073,231.073c0,127.533 103.541,231.073 231.073,231.073l3915.539,0c127.533,0 231.073,-103.541 231.073,-231.073c0,-58.98 -22.145,-112.829 -58.568,-153.679l4.49,-3.765l-1112.235,-1326.374l1360.749,-2131.476l-0.245,-0.156c21.032,-34.817 33.138,-75.62 33.138,-119.228c0,-127.533 -103.541,-231.073 -231.073,-231.073c-35.003,0 -68.198,7.8 -97.942,21.754l-0.201,-0.404l-64.454,32.052l-2.002,-4.021l-2343.944,1167.384Z" />
            <path data-symbol="true" fill="currentColor" fill-rule="nonzero" opacity="0.25" d="M28024.004,6681.942l1485.653,-1167.384l2.306,2.934c39.865,-32.689 90.842,-52.315 146.368,-52.315c127.533,0 231.073,103.541 231.073,231.073l0,2886.338c0,127.533 -103.541,231.073 -231.073,231.073l-1802.715,0c-127.533,0 -231.073,-103.541 -231.073,-231.073c0,-127.533 103.541,-231.073 231.073,-231.073l1571.641,0l0,-2184.458l-1349.962,1060.761l-1919.581,-954.578l1085.009,1699.557l9.92,8.318l-1021.978,1218.739l3427.666,0c127.533,0 231.073,103.541 231.073,231.073c0,127.533 -103.541,231.073 -231.073,231.073l-3915.539,0c-127.533,0 -231.073,-103.541 -231.073,-231.073c0,-58.98 22.145,-112.829 58.568,-153.679l-4.49,-3.765l1112.235,-1326.374l-1360.749,-2131.476l0.245,-0.156c-21.032,-34.817 -33.138,-75.62 -33.138,-119.228c0,-127.533 103.541,-231.073 231.073,-231.073c35.003,0 68.198,7.8 97.942,21.754l0.201,-0.404l64.454,32.052l2.002,-4.021l2343.944,1167.384Z" />
        </g>
        <g>
            <path data-symbol="true" fill="currentColor" fill-rule="nonzero" opacity="0.25" d="M22154.371,13334.961l-1485.653,1167.384l-2.306,-2.934c-39.865,32.689 -90.842,52.315 -146.368,52.315c-127.533,0 -231.073,-103.541 -231.073,-231.073l0,-2886.338c0,-127.533 103.541,-231.073 231.073,-231.073l1802.715,0c127.533,0 231.073,103.541 231.073,231.073c0,127.533 -103.541,231.073 -231.073,231.073l-1571.641,0l0,2184.458l1349.962,-1060.761l1919.581,954.578l-1085.009,-1699.557l-9.92,-8.318l1021.978,-1218.739l-3427.666,0c-127.533,0 -231.073,-103.541 -231.073,-231.073c0,-127.533 103.541,-231.073 231.073,-231.073l3915.539,0c127.533,0 231.073,103.541 231.073,231.073c0,58.98 -22.145,112.829 -58.568,153.679l4.49,3.765l-1112.235,1326.374l1360.749,2131.476l-0.245,0.156c21.032,34.817 33.138,75.62 33.138,119.228c0,127.533 -103.541,231.073 -231.073,231.073c-35.003,0 -68.198,-7.8 -97.942,-21.754l-0.201,0.404l-64.454,-32.052l-2.002,4.021l-2343.944,-1167.384Z" />
            <path data-symbol="true" fill="currentColor" fill-rule="nonzero" opacity="0.25" d="M28026.753,13334.961l1485.653,1167.384l2.306,-2.934c39.865,32.689 90.842,52.315 146.368,52.315c127.533,0 231.073,-103.541 231.073,-231.073l0,-2886.338c0,-127.533 -103.541,-231.073 -231.073,-231.073l-1802.715,0c-127.533,0 -231.073,103.541 -231.073,231.073c0,127.533 103.541,231.073 231.073,231.073l1571.641,0l0,2184.458l-1349.962,-1060.761l-1919.581,954.578l1085.009,-1699.557l9.92,-8.318l-1021.978,-1218.739l3427.666,0c127.533,0 231.073,-103.541 231.073,-231.073c0,-127.533 -103.541,-231.073 -231.073,-231.073l-3915.539,0c-127.533,0 -231.073,103.541 -231.073,231.073c0,58.98 22.145,112.829 58.568,153.679l-4.49,3.765l1112.235,1326.374l-1360.749,2131.476l0.245,0.156c-21.032,34.817 -33.138,75.62 -33.138,119.228c0,127.533 103.541,231.073 231.073,231.073c35.003,0 68.198,-7.8 97.942,-21.754l0.201,0.404l64.454,-32.052l2.002,4.021l2343.944,-1167.384Z" />
            <path data-symbol="true" fill="currentColor" fill-rule="nonzero" opacity="0.25" d="M22154.371,16248.373l-1485.653,-1167.384l-2.306,2.934c-39.865,-32.689 -90.842,-52.315 -146.368,-52.315c-127.533,0 -231.073,103.541 -231.073,231.073l0,2886.338c0,127.533 103.541,231.073 231.073,231.073l1802.715,0c127.533,0 231.073,-103.541 231.073,-231.073c0,-127.533 -103.541,-231.073 -231.073,-231.073l-1571.641,0l0,-2184.458l1349.962,1060.761l1919.581,-954.578l-1085.009,1699.557l-9.92,8.318l1021.978,1218.739l-3427.666,0c-127.533,0 -231.073,103.541 -231.073,231.073c0,127.533 103.541,231.073 231.073,231.073l3915.539,0c127.533,0 231.073,-103.541 231.073,-231.073c0,-58.98 -22.145,-112.829 -58.568,-153.679l4.49,-3.765l-1112.235,-1326.374l1360.749,-2131.476l-0.245,-0.156c21.032,-34.817 33.138,-75.62 33.138,-119.228c0,-127.533 -103.541,-231.073 -231.073,-231.073c-35.003,0 -68.198,7.8 -97.942,21.754l-0.201,-0.404l-64.454,32.052l-2.002,-4.021l-2343.944,1167.384Z" />
            <path data-symbol="true" fill="currentColor" fill-rule="nonzero" opacity="0.25" d="M28026.753,16248.373l1485.653,-1167.384l2.306,2.934c39.865,-32.689 90.842,-52.315 146.368,-52.315c127.533,0 231.073,103.541 231.073,231.073l0,2886.338c0,127.533 -103.541,231.073 -231.073,231.073l-1802.715,0c-127.533,0 -231.073,-103.541 -231.073,-231.073c0,-127.533 103.541,-231.073 231.073,-231.073l1571.641,0l0,-2184.458l-1349.962,1060.761l-1919.581,-954.578l1085.009,1699.557l9.92,8.318l-1021.978,1218.739l3427.666,0c127.533,0 231.073,103.541 231.073,231.073c0,127.533 -103.541,231.073 -231.073,231.073l-3915.539,0c-127.533,0 -231.073,-103.541 -231.073,-231.073c0,-58.98 22.145,-112.829 58.568,-153.679l-4.49,-3.765l1112.235,-1326.374l-1360.749,-2131.476l0.245,-0.156c-21.032,-34.817 -33.138,-75.62 -33.138,-119.228c0,-127.533 103.541,-231.073 231.073,-231.073c35.003,0 68.198,7.8 97.942,21.754l0.201,-0.404l64.454,32.052l2.002,-4.021l2343.944,1167.384Z" />
        </g>
        <g>
            <path data-symbol="true" fill="currentColor" fill-rule="nonzero" opacity="0.25" d="M22154.371,22901.391l-1485.653,1167.384l-2.306,-2.934c-39.865,32.689 -90.842,52.315 -146.368,52.315c-127.533,0 -231.073,-103.541 -231.073,-231.073l0,-2886.338c0,-127.533 103.541,-231.073 231.073,-231.073l1802.715,0c127.533,0 231.073,103.541 231.073,231.073c0,127.533 -103.541,231.073 -231.073,231.073l-1571.641,0l0,2184.458l1349.962,-1060.761l1919.581,954.578l-1085.009,-1699.557l-9.92,-8.318l1021.978,-1218.739l-3427.666,0c-127.533,0 -231.073,-103.541 -231.073,-231.073c0,-127.533 103.541,-231.073 231.073,-231.073l3915.539,0c127.533,0 231.073,103.541 231.073,231.073c0,58.98 -22.145,112.829 -58.568,153.679l4.49,3.765l-1112.235,1326.374l1360.749,2131.476l-0.245,0.156c21.032,34.817 33.138,75.62 33.138,119.228c0,127.533 -103.541,231.073 -231.073,231.073c-35.003,0 -68.198,-7.8 -97.942,-21.754l-0.201,0.404l-64.454,-32.052l-2.002,4.021l-2343.944,-1167.384Z" />
            <path data-symbol="true" fill="currentColor" fill-rule="nonzero" opacity="0.25" d="M28026.753,22901.391l1485.653,1167.384l2.306,-2.934c39.865,32.689 90.842,52.315 146.368,52.315c127.533,0 231.073,-103.541 231.073,-231.073l0,-2886.338c0,-127.533 -103.541,-231.073 -231.073,-231.073l-1802.715,0c-127.533,0 -231.073,103.541 -231.073,231.073c0,127.533 103.541,231.073 231.073,231.073l1571.641,0l0,2184.458l-1349.962,-1060.761l-1919.581,954.578l1085.009,-1699.557l9.92,-8.318l-1021.978,-1218.739l3427.666,0c127.533,0 231.073,-103.541 231.073,-231.073c0,-127.533 -103.541,-231.073 -231.073,-231.073l-3915.539,0c-127.533,0 -231.073,103.541 -231.073,231.073c0,58.98 22.145,112.829 58.568,153.679l-4.49,3.765l1112.235,1326.374l-1360.749,2131.476l0.245,0.156c-21.032,34.817 -33.138,75.62 -33.138,119.228c0,127.533 103.541,231.073 231.073,231.073c35.003,0 68.198,-7.8 97.942,-21.754l0.201,0.404l64.454,-32.052l2.002,4.021l2343.944,-1167.384Z" />
            <path data-symbol="true" fill="currentColor" fill-rule="nonzero" opacity="0.25" d="M22154.371,25814.803l-1485.653,-1167.384l-2.306,2.934c-39.865,-32.689 -90.842,-52.315 -146.368,-52.315c-127.533,0 -231.073,103.541 -231.073,231.073l0,2886.338c0,127.533 103.541,231.073 231.073,231.073l1802.715,0c127.533,0 231.073,-103.541 231.073,-231.073c0,-127.533 -103.541,-231.073 -231.073,-231.073l-1571.641,0l0,-2184.458l1349.962,1060.761l1919.581,-954.578l-1085.009,1699.557l-9.92,8.318l1021.978,1218.739l-3427.666,0c-127.533,0 -231.073,103.541 -231.073,231.073c0,127.533 103.541,231.073 231.073,231.073l3915.539,0c127.533,0 231.073,-103.541 231.073,-231.073c0,-58.98 -22.145,-112.829 -58.568,-153.679l4.49,-3.765l-1112.235,-1326.374l1360.749,-2131.476l-0.245,-0.156c21.032,-34.817 33.138,-75.62 33.138,-119.228c0,-127.533 -103.541,-231.073 -231.073,-231.073c-35.003,0 -68.198,7.8 -97.942,21.754l-0.201,-0.404l-64.454,32.052l-2.002,-4.021l-2343.944,1167.384Z" />
            <path data-symbol="true" fill="currentColor" fill-rule="nonzero" opacity="0.25" d="M28026.753,25814.803l1485.653,-1167.384l2.306,2.934c39.865,-32.689 90.842,-52.315 146.368,-52.315c127.533,0 231.073,103.541 231.073,231.073l0,2886.338c0,127.533 -103.541,231.073 -231.073,231.073l-1802.715,0c-127.533,0 -231.073,-103.541 -231.073,-231.073c0,-127.533 103.541,-231.073 231.073,-231.073l1571.641,0l0,-2184.458l-1349.962,1060.761l-1919.581,-954.578l1085.009,1699.557l9.92,8.318l-1021.978,1218.739l3427.666,0c127.533,0 231.073,103.541 231.073,231.073c0,127.533 -103.541,231.073 -231.073,231.073l-3915.539,0c-127.533,0 -231.073,-103.541 -231.073,-231.073c0,-58.98 22.145,-112.829 58.568,-153.679l-4.49,-3.765l1112.235,-1326.374l-1360.749,-2131.476l0.245,-0.156c-21.032,-34.817 -33.138,-75.62 -33.138,-119.228c0,-127.533 103.541,-231.073 231.073,-231.073c35.003,0 68.198,7.8 97.942,21.754l0.201,-0.404l64.454,32.052l2.002,-4.021l2343.944,1167.384Z" />
        </g>
        <g>
            <path data-symbol="true" fill="currentColor" fill-rule="nonzero" opacity="0.25" d="M32304.486,3768.53l-1485.653,1167.384l-2.306,-2.934c-39.865,32.689 -90.842,52.315 -146.368,52.315c-127.533,0 -231.073,-103.541 -231.073,-231.073l0,-2886.338c0,-127.533 103.541,-231.073 231.073,-231.073l1802.715,0c127.533,0 231.073,103.541 231.073,231.073c0,127.533 -103.541,231.073 -231.073,231.073l-1571.641,0l0,2184.458l1349.962,-1060.761l1919.581,954.578l-1085.009,-1699.557l-9.92,-8.318l1021.978,-1218.739l-3427.666,0c-127.533,0 -231.073,-103.541 -231.073,-231.073c0,-127.533 103.541,-231.073 231.073,-231.073l3915.539,0c127.533,0 231.073,103.541 231.073,231.073c0,58.98 -22.145,112.829 -58.568,153.679l4.49,3.765l-1112.235,1326.374l1360.749,2131.476l-0.245,0.156c21.032,34.817 33.138,75.62 33.138,119.228c0,127.533 -103.541,231.073 -231.073,231.073c-35.003,0 -68.198,-7.8 -97.942,-21.754l-0.201,0.404l-64.454,-32.052l-2.002,4.021l-2343.944,-1167.384Z" />
            <path data-symbol="true" fill="currentColor" fill-rule="nonzero" opacity="0.25" d="M38176.867,3768.53l1485.653,1167.384l2.306,-2.934c39.865,32.689 90.842,52.315 146.368,52.315c127.533,0 231.073,-103.541 231.073,-231.073l0,-2886.338c0,-127.533 -103.541,-231.073 -231.073,-231.073l-1802.715,0c-127.533,0 -231.073,103.541 -231.073,231.073c0,127.533 103.541,231.073 231.073,231.073l1571.641,0l0,2184.458l-1349.962,-1060.761l-1919.581,954.578l1085.009,-1699.557l9.92,-8.318l-1021.978,-1218.739l3427.666,0c127.533,0 231.073,-103.541 231.073,-231.073c0,-127.533 -103.541,-231.073 -231.073,-231.073l-3915.539,0c-127.533,0 -231.073,103.541 -231.073,231.073c0,58.98 22.145,112.829 58.568,153.679l-4.49,3.765l1112.235,1326.374l-1360.749,2131.476l0.245,0.156c-21.032,34.817 -33.138,75.62 -33.138,119.228c0,127.533 103.541,231.073 231.073,231.073c35.003,0 68.198,-7.8 97.942,-21.754l0.201,0.404l64.454,-32.052l2.002,4.021l2343.944,-1167.384Z" />
            <path data-symbol="true" fill="currentColor" fill-rule="nonzero" opacity="0.25" d="M32304.486,6681.942l-1485.653,-1167.384l-2.306,2.934c-39.865,-32.689 -90.842,-52.315 -146.368,-52.315c-127.533,0 -231.073,103.541 -231.073,231.073l0,2886.338c0,127.533 103.541,231.073 231.073,231.073l1802.715,0c127.533,0 231.073,-103.541 231.073,-231.073c0,-127.533 -103.541,-231.073 -231.073,-231.073l-1571.641,0l0,-2184.458l1349.962,1060.761l1919.581,-954.578l-1085.009,1699.557l-9.92,8.318l1021.978,1218.739l-3427.666,0c-127.533,0 -231.073,103.541 -231.073,231.073c0,127.533 103.541,231.073 231.073,231.073l3915.539,0c127.533,0 231.073,-103.541 231.073,-231.073c0,-58.98 -22.145,-112.829 -58.568,-153.679l4.49,-3.765l-1112.235,-1326.374l1360.749,-2131.476l-0.245,-0.156c21.032,-34.817 33.138,-75.62 33.138,-119.228c0,-127.533 -103.541,-231.073 -231.073,-231.073c-35.003,0 -68.198,7.8 -97.942,21.754l-0.201,-0.404l-64.454,32.052l-2.002,-4.021l-2343.944,1167.384Z" />
            <path data-symbol="true" fill="currentColor" fill-rule="nonzero" opacity="0.25" d="M38176.867,6681.942l1485.653,-1167.384l2.306,2.934c39.865,-32.689 90.842,-52.315 146.368,-52.315c127.533,0 231.073,103.541 231.073,231.073l0,2886.338c0,127.533 -103.541,231.073 -231.073,231.073l-1802.715,0c-127.533,0 -231.073,-103.541 -231.073,-231.073c0,-127.533 103.541,-231.073 231.073,-231.073l1571.641,0l0,-2184.458l-1349.962,1060.761l-1919.581,-954.578l1085.009,1699.557l9.92,8.318l-1021.978,1218.739l3427.666,0c127.533,0 231.073,103.541 231.073,231.073c0,127.533 -103.541,231.073 -231.073,231.073l-3915.539,0c-127.533,0 -231.073,-103.541 -231.073,-231.073c0,-58.98 22.145,-112.829 58.568,-153.679l-4.49,-3.765l1112.235,-1326.374l-1360.749,-2131.476l0.245,-0.156c-21.032,-34.817 -33.138,-75.62 -33.138,-119.228c0,-127.533 103.541,-231.073 231.073,-231.073c35.003,0 68.198,7.8 97.942,21.754l0.201,-0.404l64.454,32.052l2.002,-4.021l2343.944,1167.384Z" />
        </g>
        <g>
            <path data-symbol="true" fill="currentColor" fill-rule="nonzero" opacity="0.25" d="M32307.234,13334.961l-1485.653,1167.384l-2.306,-2.934c-39.865,32.689 -90.842,52.315 -146.368,52.315c-127.533,0 -231.073,-103.541 -231.073,-231.073l0,-2886.338c0,-127.533 103.541,-231.073 231.073,-231.073l1802.715,0c127.533,0 231.073,103.541 231.073,231.073c0,127.533 -103.541,231.073 -231.073,231.073l-1571.641,0l0,2184.458l1349.962,-1060.761l1919.581,954.578l-1085.009,-1699.557l-9.92,-8.318l1021.978,-1218.739l-3427.666,0c-127.533,0 -231.073,-103.541 -231.073,-231.073c0,-127.533 103.541,-231.073 231.073,-231.073l3915.539,0c127.533,0 231.073,103.541 231.073,231.073c0,58.98 -22.145,112.829 -58.568,153.679l4.49,3.765l-1112.235,1326.374l1360.749,2131.476l-0.245,0.156c21.032,34.817 33.138,75.62 33.138,119.228c0,127.533 -103.541,231.073 -231.073,231.073c-35.003,0 -68.198,-7.8 -97.942,-21.754l-0.201,0.404l-64.454,-32.052l-2.002,4.021l-2343.944,-1167.384Z" />
            <path data-symbol="true" fill="currentColor" fill-rule="nonzero" opacity="0.25" d="M38179.616,13334.961l1485.653,1167.384l2.306,-2.934c39.865,32.689 90.842,52.315 146.368,52.315c127.533,0 231.073,-103.541 231.073,-231.073l0,-2886.338c0,-127.533 -103.541,-231.073 -231.073,-231.073l-1802.715,0c-127.533,0 -231.073,103.541 -231.073,231.073c0,127.533 103.541,231.073 231.073,231.073l1571.641,0l0,2184.458l-1349.962,-1060.761l-1919.581,954.578l1085.009,-1699.557l9.92,-8.318l-1021.978,-1218.739l3427.666,0c127.533,0 231.073,-103.541 231.073,-231.073c0,-127.533 -103.541,-231.073 -231.073,-231.073l-3915.539,0c-127.533,0 -231.073,103.541 -231.073,231.073c0,58.98 22.145,112.829 58.568,153.679l-4.49,3.765l1112.235,1326.374l-1360.749,2131.476l0.245,0.156c-21.032,34.817 -33.138,75.62 -33.138,119.228c0,127.533 103.541,231.073 231.073,231.073c35.003,0 68.198,-7.8 97.942,-21.754l0.201,0.404l64.454,-32.052l2.002,4.021l2343.944,-1167.384Z" />
            <path data-symbol="true" fill="currentColor" fill-rule="nonzero" opacity="0.25" d="M32307.234,16248.373l-1485.653,-1167.384l-2.306,2.934c-39.865,-32.689 -90.842,-52.315 -146.368,-52.315c-127.533,0 -231.073,103.541 -231.073,231.073l0,2886.338c0,127.533 103.541,231.073 231.073,231.073l1802.715,0c127.533,0 231.073,-103.541 231.073,-231.073c0,-127.533 -103.541,-231.073 -231.073,-231.073l-1571.641,0l0,-2184.458l1349.962,1060.761l1919.581,-954.578l-1085.009,1699.557l-9.92,8.318l1021.978,1218.739l-3427.666,0c-127.533,0 -231.073,103.541 -231.073,231.073c0,127.533 103.541,231.073 231.073,231.073l3915.539,0c127.533,0 231.073,-103.541 231.073,-231.073c0,-58.98 -22.145,-112.829 -58.568,-153.679l4.49,-3.765l-1112.235,-1326.374l1360.749,-2131.476l-0.245,-0.156c21.032,-34.817 33.138,-75.62 33.138,-119.228c0,-127.533 -103.541,-231.073 -231.073,-231.073c-35.003,0 -68.198,7.8 -97.942,21.754l-0.201,-0.404l-64.454,32.052l-2.002,-4.021l-2343.944,1167.384Z" />
            <path data-symbol="true" fill="currentColor" fill-rule="nonzero" opacity="0.25" d="M38179.616,16248.373l1485.653,-1167.384l2.306,2.934c39.865,-32.689 90.842,-52.315 146.368,-52.315c127.533,0 231.073,103.541 231.073,231.073l0,2886.338c0,127.533 -103.541,231.073 -231.073,231.073l-1802.715,0c-127.533,0 -231.073,-103.541 -231.073,-231.073c0,-127.533 103.541,-231.073 231.073,-231.073l1571.641,0l0,-2184.458l-1349.962,1060.761l-1919.581,-954.578l1085.009,1699.557l9.92,8.318l-1021.978,1218.739l3427.666,0c127.533,0 231.073,103.541 231.073,231.073c0,127.533 -103.541,231.073 -231.073,231.073l-3915.539,0c-127.533,0 -231.073,-103.541 -231.073,-231.073c0,-58.98 22.145,-112.829 58.568,-153.679l-4.49,-3.765l1112.235,-1326.374l-1360.749,-2131.476l0.245,-0.156c-21.032,-34.817 -33.138,-75.62 -33.138,-119.228c0,-127.533 103.541,-231.073 231.073,-231.073c35.003,0 68.198,7.8 97.942,21.754l0.201,-0.404l64.454,32.052l2.002,-4.021l2343.944,1167.384Z" />
        </g>
        <g>
            <path data-symbol="true" fill="currentColor" fill-rule="nonzero" opacity="0.25" d="M32307.234,22901.391l-1485.653,1167.384l-2.306,-2.934c-39.865,32.689 -90.842,52.315 -146.368,52.315c-127.533,0 -231.073,-103.541 -231.073,-231.073l0,-2886.338c0,-127.533 103.541,-231.073 231.073,-231.073l1802.715,0c127.533,0 231.073,103.541 231.073,231.073c0,127.533 -103.541,231.073 -231.073,231.073l-1571.641,0l0,2184.458l1349.962,-1060.761l1919.581,954.578l-1085.009,-1699.557l-9.92,-8.318l1021.978,-1218.739l-3427.666,0c-127.533,0 -231.073,-103.541 -231.073,-231.073c0,-127.533 103.541,-231.073 231.073,-231.073l3915.539,0c127.533,0 231.073,103.541 231.073,231.073c0,58.98 -22.145,112.829 -58.568,153.679l4.49,3.765l-1112.235,1326.374l1360.749,2131.476l-0.245,0.156c21.032,34.817 33.138,75.62 33.138,119.228c0,127.533 -103.541,231.073 -231.073,231.073c-35.003,0 -68.198,-7.8 -97.942,-21.754l-0.201,0.404l-64.454,-32.052l-2.002,4.021l-2343.944,-1167.384Z" />
            <path data-symbol="true" fill="currentColor" fill-rule="nonzero" opacity="0.25" d="M38179.616,22901.391l1485.653,1167.384l2.306,-2.934c39.865,32.689 90.842,52.315 146.368,52.315c127.533,0 231.073,-103.541 231.073,-231.073l0,-2886.338c0,-127.533 -103.541,-231.073 -231.073,-231.073l-1802.715,0c-127.533,0 -231.073,103.541 -231.073,231.073c0,127.533 103.541,231.073 231.073,231.073l1571.641,0l0,2184.458l-1349.962,-1060.761l-1919.581,954.578l1085.009,-1699.557l9.92,-8.318l-1021.978,-1218.739l3427.666,0c127.533,0 231.073,-103.541 231.073,-231.073c0,-127.533 -103.541,-231.073 -231.073,-231.073l-3915.539,0c-127.533,0 -231.073,103.541 -231.073,231.073c0,58.98 22.145,112.829 58.568,153.679l-4.49,3.765l1112.235,1326.374l-1360.749,2131.476l0.245,0.156c-21.032,34.817 -33.138,75.62 -33.138,119.228c0,127.533 103.541,231.073 231.073,231.073c35.003,0 68.198,-7.8 97.942,-21.754l0.201,0.404l64.454,-32.052l2.002,4.021l2343.944,-1167.384Z" />
            <path data-symbol="true" fill="currentColor" fill-rule="nonzero" opacity="0.25" d="M32307.234,25814.803l-1485.653,-1167.384l-2.306,2.934c-39.865,-32.689 -90.842,-52.315 -146.368,-52.315c-127.533,0 -231.073,103.541 -231.073,231.073l0,2886.338c0,127.533 103.541,231.073 231.073,231.073l1802.715,0c127.533,0 231.073,-103.541 231.073,-231.073c0,-127.533 -103.541,-231.073 -231.073,-231.073l-1571.641,0l0,-2184.458l1349.962,1060.761l1919.581,-954.578l-1085.009,1699.557l-9.92,8.318l1021.978,1218.739l-3427.666,0c-127.533,0 -231.073,103.541 -231.073,231.073c0,127.533 103.541,231.073 231.073,231.073l3915.539,0c127.533,0 231.073,-103.541 231.073,-231.073c0,-58.98 -22.145,-112.829 -58.568,-153.679l4.49,-3.765l-1112.235,-1326.374l1360.749,-2131.476l-0.245,-0.156c21.032,-34.817 33.138,-75.62 33.138,-119.228c0,-127.533 -103.541,-231.073 -231.073,-231.073c-35.003,0 -68.198,7.8 -97.942,21.754l-0.201,-0.404l-64.454,32.052l-2.002,-4.021l-2343.944,1167.384Z" />
            <path data-symbol="true" fill="currentColor" fill-rule="nonzero" opacity="0.25" d="M38179.616,25814.803l1485.653,-1167.384l2.306,2.934c39.865,-32.689 90.842,-52.315 146.368,-52.315c127.533,0 231.073,103.541 231.073,231.073l0,2886.338c0,127.533 -103.541,231.073 -231.073,231.073l-1802.715,0c-127.533,0 -231.073,-103.541 -231.073,-231.073c0,-127.533 103.541,-231.073 231.073,-231.073l1571.641,0l0,-2184.458l-1349.962,1060.761l-1919.581,-954.578l1085.009,1699.557l9.92,8.318l-1021.978,1218.739l3427.666,0c127.533,0 231.073,103.541 231.073,231.073c0,127.533 -103.541,231.073 -231.073,231.073l-3915.539,0c-127.533,0 -231.073,-103.541 -231.073,-231.073c0,-58.98 22.145,-112.829 58.568,-153.679l-4.49,-3.765l1112.235,-1326.374l-1360.749,-2131.476l0.245,-0.156c-21.032,-34.817 -33.138,-75.62 -33.138,-119.228c0,-127.533 103.541,-231.073 231.073,-231.073c35.003,0 68.198,7.8 97.942,21.754l0.201,-0.404l64.454,32.052l2.002,-4.021l2343.944,1167.384Z" />
        </g>
    </g>
</svg>