<?xml version="1.0" encoding="UTF-8" standalone="no"?>
<!DOCTYPE svg PUBLIC "-//W3C//DTD SVG 1.1//EN" "http://www.w3.org/Graphics/SVG/1.1/DTD/svg11.dtd">
<svg width="100%" height="100%" viewBox="0 0 31459 7667" version="1.1" xmlns="http://www.w3.org/2000/svg" xmlns:xlink="http://www.w3.org/1999/xlink" xml:space="preserve" xmlns:serif="http://www.serif.com/" style="fill-rule:evenodd;clip-rule:evenodd;stroke-linejoin:round;stroke-miterlimit:2;">
    <rect id="Logo_horizontal" x="0" y="0" width="31458.335" height="7666.667" style="fill:none;"/>
    <g>
        <g transform="matrix(12.349175,0,0,12.349175,-8601.61855,-35046.057803)">
            <g>
                <g transform="matrix(1,0,0,1,1507.503,3304.656)">
                    <text x="0px" y="0px" style="font-family:'SpaceGrotesk-Bold', 'Space Grotesk';font-weight:700;font-size:441px;fill:white;">T</text>
                </g>
                <g transform="matrix(1,0,0,1,1763.21,3304.656)">
                    <text x="0px" y="0px" style="font-family:'SpaceGrotesk-Bold', 'Space Grotesk';font-weight:700;font-size:441px;fill:white;">I<tspan x="115.909px 390.579px 671.863px " y="0px 0px 0px ">AGO</tspan></text>
                </g>
            </g>
            <g>
                <g transform="matrix(1,0,0,1,2722.973,3304.656)">
                    <text x="0px" y="0px" style="font-family:'SpaceGrotesk-Regular', 'Space Grotesk';font-size:441px;fill:white;">C</text>
                </g>
                <g transform="matrix(1,0,0,1,2985.294,3304.656)">
                    <text x="0px" y="0px" style="font-family:'SpaceGrotesk-Regular', 'Space Grotesk';font-size:441px;fill:white;">R</text>
                </g>
            </g>
        </g>
        <path d="M3388.162,5425.698L704.888,7534.138L700.724,7528.838C628.724,7587.878 536.652,7623.326 436.366,7623.326C206.026,7623.326 19.019,7436.319 19.019,7205.979L19.019,1992.894C19.019,1762.554 206.026,1575.547 436.366,1575.547L3692.293,1575.547C3922.633,1575.547 4109.64,1762.554 4109.64,1992.894C4109.64,2223.234 3922.633,2410.241 3692.293,2410.241L853.714,2410.241L853.714,6355.643L3291.912,4439.776L6758.914,6163.863L4799.254,3094.252L4781.338,3079.229L6627.157,878.035L436.367,878.035C206.027,878.035 19.02,691.028 19.02,460.688C19.02,230.348 206.027,43.341 436.367,43.341L7508.317,43.341C7738.657,43.341 7925.664,230.348 7925.664,460.688C7925.664,567.214 7885.667,664.472 7819.884,738.25L7827.994,745.051L5819.16,3140.646L8276.841,6990.356L8276.399,6990.638C8314.385,7053.523 8336.25,7127.217 8336.25,7205.979C8336.25,7436.319 8149.243,7623.326 7918.903,7623.326C7855.684,7623.326 7795.729,7609.239 7742.008,7584.035L7741.645,7584.765L7625.233,7526.875L7621.616,7534.137L3388.163,5425.697L3388.162,5425.698Z" style="fill:rgb(240,185,11);"/>
    </g>
</svg>
