<?xml version="1.0" encoding="UTF-8" standalone="no"?><!DOCTYPE svg PUBLIC "-//W3C//DTD SVG 1.1//EN" "http://www.w3.org/Graphics/SVG/1.1/DTD/svg11.dtd"><svg width="100%" height="100%" viewBox="0 0 31459 7667" version="1.1" xmlns="http://www.w3.org/2000/svg" xmlns:xlink="http://www.w3.org/1999/xlink" xml:space="preserve" xmlns:serif="http://www.serif.com/" style="fill-rule:evenodd;clip-rule:evenodd;stroke-linejoin:round;stroke-miterlimit:2;"><rect id="Logo_horizontal" x="0" y="0" width="31458.335" height="7666.667" style="fill:none;"/><g><g transform="matrix(12.349175,0,0,12.349175,-8601.61855,-35046.057803)"><text x="1507.503px" y="3304.656px" style="font-family:'SpaceGrotesk-Bold', 'Space Grotesk';font-weight:700;font-size:441px;">T<tspan x="1763.21px 1879.119px 2153.789px 2435.073px " y="3304.656px 3304.656px 3304.656px 3304.656px ">IAGO</tspan></text><g transform="matrix(441,0,0,441,3263.565426,3304.656195)"></g><text x="2722.973px" y="3304.656px" style="font-family:'SpaceGrotesk-Regular', 'Space Grotesk';font-size:441px;">C<tspan x="2985.294px " y="3304.656px ">R</tspan></text></g><path d="M3388.162,5425.698l-2683.274,2108.44l-4.164,-5.3c-72,59.04 -164.072,94.488 -264.358,94.488c-230.34,0 -417.347,-187.007 -417.347,-417.347l0,-5213.085c0,-230.34 187.007,-417.347 417.347,-417.347l3255.927,0c230.34,0 417.347,187.007 417.347,417.347c0,230.34 -187.007,417.347 -417.347,417.347l-2838.579,0l0,3945.402l2438.198,-1915.867l3467.002,1724.087l-1959.66,-3069.611l-17.916,-15.023l1845.819,-2201.194l-6190.79,0c-230.34,0 -417.347,-187.007 -417.347,-417.347c0,-230.34 187.007,-417.347 417.347,-417.347l7071.95,0c230.34,0 417.347,187.007 417.347,417.347c0,106.526 -39.997,203.784 -105.78,277.562l8.11,6.801l-2008.834,2395.595l2457.681,3849.71l-0.442,0.282c37.986,62.885 59.851,136.579 59.851,215.341c0,230.34 -187.007,417.347 -417.347,417.347c-63.219,0 -123.174,-14.087 -176.895,-39.291l-0.363,0.73l-116.412,-57.89l-3.617,7.262l-4233.453,-2108.44Z" style="fill:#f0b90b;"/></g></svg>