<?xml version="1.0" encoding="UTF-8" standalone="no"?><!DOCTYPE svg PUBLIC "-//W3C//DTD SVG 1.1//EN" "http://www.w3.org/Graphics/SVG/1.1/DTD/svg11.dtd"><svg width="100%" height="100%" viewBox="0 0 4775 1163" version="1.1" xmlns="http://www.w3.org/2000/svg" xmlns:xlink="http://www.w3.org/1999/xlink" xml:space="preserve" xmlns:serif="http://www.serif.com/" style="fill-rule:evenodd;clip-rule:evenodd;stroke-linejoin:round;stroke-miterlimit:2;"><g><path d="M1708.265,872.287l0,-479.686l-168.717,0l0,-99.245l446.604,0l0,99.245l-168.717,0l0,479.686l-109.17,0Z" style="fill-rule:nonzero;"/><rect x="2053.832" y="293.355" width="109.17" height="578.932" style="fill-rule:nonzero;"/><path d="M2231.509,872.287l152.176,-578.932l190.22,0l152.176,578.932l-112.478,0l-31.428,-127.365l-206.761,0l-31.428,127.365l-112.478,0Zm169.544,-228.264l155.484,0l-70.299,-282.022l-14.887,0l-70.299,282.022Z" style="fill-rule:nonzero;"/><path d="M2986.463,883.865c-39.698,0 -75.675,-8.96 -107.929,-26.879c-32.255,-17.919 -57.893,-44.109 -76.915,-78.569c-19.022,-34.46 -28.533,-76.502 -28.533,-126.124l0,-138.944c0,-74.434 20.952,-131.638 62.855,-171.612c41.904,-39.974 98.694,-59.961 170.371,-59.961c71.126,0 126.124,18.884 164.996,56.653c38.871,37.768 58.307,88.907 58.307,153.417l0,3.308l-107.516,0l0,-6.616c0,-20.4 -4.273,-38.871 -12.819,-55.412c-8.546,-16.541 -21.365,-29.636 -38.458,-39.285c-17.092,-9.649 -38.595,-14.473 -64.51,-14.473c-38.595,0 -68.92,11.854 -90.975,35.563c-22.055,23.709 -33.082,55.963 -33.082,96.764l0,142.252c0,40.25 11.027,72.642 33.082,97.178c22.055,24.536 52.931,36.804 92.629,36.804c39.698,0 68.645,-10.476 86.84,-31.428c18.195,-20.952 27.292,-47.417 27.292,-79.396l0,-8.27l-137.29,0l0,-92.629l244.805,0l0,296.082l-100.9,0l0,-55.412l-14.887,0c-3.86,9.373 -10.062,19.298 -18.609,29.774c-8.546,10.476 -21.365,19.298 -38.458,26.465c-17.092,7.168 -40.525,10.752 -70.299,10.752Z" style="fill-rule:nonzero;"/><path d="M3538.791,883.865c-72.78,0 -130.673,-19.987 -173.679,-59.961c-43.006,-39.974 -64.51,-97.178 -64.51,-171.612l0,-138.944c0,-74.434 21.503,-131.638 64.51,-171.612c43.006,-39.974 100.9,-59.961 173.679,-59.961c72.78,0 130.673,19.987 173.679,59.961c43.006,39.974 64.51,97.178 64.51,171.612l0,138.944c0,74.434 -21.503,131.638 -64.51,171.612c-43.006,39.974 -100.9,59.961 -173.679,59.961Zm0,-97.591c40.801,0 72.504,-11.854 95.11,-35.563c22.606,-23.709 33.909,-55.412 33.909,-95.11l0,-145.56c0,-39.698 -11.303,-71.402 -33.909,-95.11c-22.606,-23.709 -54.309,-35.563 -95.11,-35.563c-40.25,0 -71.815,11.854 -94.697,35.563c-22.882,23.709 -34.322,55.412 -34.322,95.11l0,145.56c0,39.698 11.441,71.402 34.322,95.11c22.882,23.709 54.447,35.563 94.697,35.563Z" style="fill-rule:nonzero;"/><path d="M4074.579,883.865c-68.92,0 -123.781,-19.987 -164.582,-59.961c-40.801,-39.974 -61.201,-98.281 -61.201,-174.92l0,-132.327c0,-76.64 20.4,-134.946 61.201,-174.92c40.801,-39.974 95.662,-59.961 164.582,-59.961c68.369,0 120.886,19.022 157.552,57.066c36.666,38.044 54.999,90.148 54.999,156.312l0,4.135l-68.645,0l0,-6.616c0,-43.558 -11.716,-79.258 -35.149,-107.102c-23.433,-27.844 -59.685,-41.766 -108.756,-41.766c-49.071,0 -87.391,15.025 -114.959,45.074c-27.568,30.049 -41.352,72.091 -41.352,126.124l0,135.635c0,54.034 13.784,96.075 41.352,126.124c27.568,30.049 65.888,45.074 114.959,45.074c49.071,0 85.323,-13.922 108.756,-41.766c23.433,-27.844 35.149,-63.545 35.149,-107.102l0,-13.233l68.645,0l0,10.752c0,66.164 -18.333,118.267 -54.999,156.312c-36.666,38.044 -89.183,57.066 -157.552,57.066Z" style="fill-rule:nonzero;"/><path d="M4357.29,872.287l0,-578.932l234.054,0c35.839,0 67.404,6.203 94.697,18.609c27.292,12.406 48.658,30.049 64.096,52.931c15.438,22.882 23.157,50.312 23.157,82.291l0,9.097c0,38.044 -9.097,68.093 -27.292,90.148c-18.195,22.055 -39.698,36.941 -64.51,44.66l0,11.579c19.849,0.551 36.252,7.03 49.209,19.436c12.957,12.406 19.436,31.014 19.436,55.826l0,194.356l-68.645,0l0,-186.085c0,-16.541 -4.549,-29.222 -13.646,-38.044c-9.097,-8.822 -22.744,-13.233 -40.939,-13.233l-200.145,0l0,237.362l-69.472,0Zm69.472,-300.217l157.966,0c38.044,0 67.404,-9.235 88.08,-27.706c20.676,-18.471 31.014,-44.247 31.014,-77.329l0,-5.789c0,-33.082 -10.2,-58.858 -30.601,-77.329c-20.4,-18.471 -49.898,-27.706 -88.494,-27.706l-157.966,0l0,215.859Z" style="fill-rule:nonzero;"/></g><path d="M715.246,459.793c0,-0 183.337,-217.027 253.575,-300.172c4.863,-5.756 5.941,-13.812 2.764,-20.644c-3.177,-6.833 -10.032,-11.199 -17.567,-11.19c-181.281,0.216 -891.257,1.063 -891.257,1.063l0,-0.005c-15.429,0 -29.515,-5.724 -40.255,-15.169l-5.568,-5.57c-9.448,-10.741 -15.171,-24.825 -15.171,-40.253c0,-16.864 6.84,-35.373 17.903,-46.416c11.037,-11.013 26.269,-17.822 43.091,-17.822l1071.996,0c22.776,-0.742 42.731,7.876 56.182,24.29c9.893,12.072 14.092,26.101 13.348,42.924c-0.927,20.982 -9.247,31 -32.901,57.144l-293.541,347.185l370.953,555.213c29.031,63.14 -14.807,102.871 -18.542,106.616c-3.754,3.756 -51.522,50.49 -117.608,10.183l-557.527,-377.439l-436.508,368.529c-13.114,12.443 -29.362,23.241 -48.473,24.401c-18.955,1.151 -35.315,-4.705 -50.155,-19.101c-11.206,-10.871 -19.054,-27.081 -18.218,-45.975l0,-801.206c0,-19.926 9.556,-37.622 24.336,-48.753c10.204,-7.684 22.898,-12.239 36.658,-12.239l490.483,0c40.599,0 65.041,30.753 65.041,62.579c0,34.792 -25.113,62.579 -64.986,62.579c0,-0 -319.747,-0.145 -405.335,-0.184c-5.53,-0.003 -10.834,2.194 -14.743,6.104c-3.91,3.911 -6.104,9.216 -6.099,14.745c0.068,86.067 0.325,414.456 0.416,529.538c0.006,7.306 4.233,13.95 10.849,17.051c6.615,3.1 14.427,2.098 20.045,-2.572c95.862,-79.684 382.087,-317.603 382.087,-317.603c0,0 277.901,188.66 422.064,286.529c7.811,5.303 18.286,4.317 24.971,-2.35c6.685,-6.667 7.699,-17.139 2.417,-24.965c-94.931,-140.656 -274.723,-407.047 -274.723,-407.047Z" style="fill:#f0b90b;fill-rule:nonzero;"/></svg>