<?xml version="1.0" encoding="UTF-8" standalone="no"?><!DOCTYPE svg PUBLIC "-//W3C//DTD SVG 1.1//EN" "http://www.w3.org/Graphics/SVG/1.1/DTD/svg11.dtd"><svg width="100%" height="100%" viewBox="0 0 8000 4500" version="1.1" xmlns="http://www.w3.org/2000/svg" xmlns:xlink="http://www.w3.org/1999/xlink" xml:space="preserve" xmlns:serif="http://www.serif.com/" style="fill-rule:evenodd;clip-rule:evenodd;stroke-linejoin:round;stroke-miterlimit:2;"><g><path d="M532.495,348.08c0,0 85.043,-100.67 129.87,-153.735c4.863,-5.756 5.941,-13.812 2.764,-20.644c-3.177,-6.832 -10.032,-11.199 -17.567,-11.19c-123.704,0.148 -479.805,0.572 -479.805,0.572l0,-0.003c-8.625,0 -16.499,-3.2 -22.502,-8.479l-3.113,-3.114c-5.281,-6.004 -8.48,-13.877 -8.48,-22.501c0,-9.427 3.824,-19.774 10.008,-25.946c6.17,-6.156 14.684,-9.962 24.088,-9.962l599.244,0c12.732,-0.415 23.886,4.403 31.406,13.578c5.53,6.748 7.877,14.59 7.462,23.995c-0.518,11.729 -5.169,17.329 -18.392,31.943l-164.089,194.076l207.362,310.363c16.228,35.295 -8.277,57.504 -10.365,59.598c-2.098,2.1 -28.801,28.224 -65.742,5.692l-311.657,-210.988l-244.007,206.007c-7.331,6.956 -16.413,12.992 -27.096,13.64c-10.596,0.643 -19.741,-2.63 -28.036,-10.677c-6.264,-6.077 -10.651,-15.138 -10.184,-25.7l0,-447.873c0,-11.139 5.342,-21.031 13.604,-27.253c5.704,-4.295 12.8,-6.842 20.491,-6.842l274.179,0c22.695,0 36.358,17.191 36.358,34.981c0,19.449 -14.038,34.981 -36.327,34.981c0,-0 -159.309,-0.072 -217.383,-0.099c-5.53,-0.003 -10.834,2.194 -14.743,6.104c-3.91,3.911 -6.104,9.216 -6.099,14.745c0.042,53.871 0.156,198.371 0.211,269.113c0.006,7.306 4.233,13.95 10.849,17.051c6.615,3.1 14.427,2.098 20.045,-2.572c62.888,-52.274 199.976,-166.226 199.976,-166.226c0,0 115.182,78.194 198.636,134.849c7.811,5.303 18.286,4.317 24.971,-2.35c6.685,-6.667 7.699,-17.139 2.417,-24.965c-54.515,-80.772 -128.351,-190.172 -128.351,-190.172Z" style="fill:#252530;fill-rule:nonzero;"/><path d="M1210.11,1204.838c0,0 -85.043,100.67 -129.87,153.735c-4.863,5.756 -5.941,13.812 -2.764,20.644c3.177,6.832 10.032,11.199 17.567,11.19c123.704,-0.148 479.805,-0.572 479.805,-0.572l0,0.003c8.625,0 16.499,3.2 22.502,8.479l3.113,3.114c5.281,6.004 8.48,13.877 8.48,22.501c0,9.427 -3.824,19.774 -10.008,25.946c-6.17,6.156 -14.684,9.962 -24.088,9.962l-599.244,-0c-12.732,0.415 -23.886,-4.403 -31.406,-13.578c-5.53,-6.748 -7.877,-14.59 -7.462,-23.995c0.518,-11.729 5.169,-17.329 18.392,-31.943l164.089,-194.076l-207.362,-310.363c-16.228,-35.295 8.277,-57.504 10.365,-59.598c2.098,-2.1 28.801,-28.224 65.742,-5.692l311.657,210.988l244.007,-206.007c7.331,-6.956 16.413,-12.992 27.096,-13.64c10.596,-0.643 19.741,2.63 28.036,10.677c6.264,6.077 10.651,15.138 10.184,25.7l0,447.873c0,11.139 -5.342,21.031 -13.604,27.253c-5.704,4.295 -12.8,6.842 -20.491,6.842l-274.179,-0c-22.695,0 -36.358,-17.191 -36.358,-34.981c-0,-19.449 14.038,-34.981 36.327,-34.981c0,0 159.309,0.072 217.383,0.099c5.53,0.003 10.834,-2.194 14.743,-6.104c3.91,-3.911 6.104,-9.216 6.099,-14.745c-0.042,-53.871 -0.156,-198.371 -0.211,-269.113c-0.006,-7.306 -4.233,-13.95 -10.849,-17.051c-6.615,-3.1 -14.427,-2.098 -20.045,2.572c-62.888,52.274 -199.976,166.226 -199.976,166.226c0,0 -115.182,-78.194 -198.636,-134.849c-7.811,-5.303 -18.286,-4.317 -24.971,2.35c-6.685,6.667 -7.699,17.139 -2.417,24.965c54.515,80.772 128.351,190.172 128.351,190.172Z" style="fill:#252530;fill-rule:nonzero;"/><path d="M532.495,1204.838c0,0 85.043,100.67 129.87,153.735c4.863,5.756 5.941,13.812 2.764,20.644c-3.177,6.832 -10.032,11.199 -17.567,11.19c-123.704,-0.148 -479.805,-0.572 -479.805,-0.572l0,0.003c-8.625,0 -16.499,3.2 -22.502,8.479l-3.113,3.114c-5.281,6.004 -8.48,13.877 -8.48,22.501c0,9.427 3.824,19.774 10.008,25.946c6.17,6.156 14.684,9.962 24.088,9.962l599.244,-0c12.732,0.415 23.886,-4.403 31.406,-13.578c5.53,-6.748 7.877,-14.59 7.462,-23.995c-0.518,-11.729 -5.169,-17.329 -18.392,-31.943l-164.089,-194.076l207.362,-310.363c16.228,-35.295 -8.277,-57.504 -10.365,-59.598c-2.098,-2.1 -28.801,-28.224 -65.742,-5.692l-311.657,210.988l-244.007,-206.007c-7.331,-6.956 -16.413,-12.992 -27.096,-13.64c-10.596,-0.643 -19.741,2.63 -28.036,10.677c-6.264,6.077 -10.651,15.138 -10.184,25.7l0,447.873c0,11.139 5.342,21.031 13.604,27.253c5.704,4.295 12.8,6.842 20.491,6.842l274.179,-0c22.695,0 36.358,-17.191 36.358,-34.981c0,-19.449 -14.038,-34.981 -36.327,-34.981c0,0 -159.309,0.072 -217.383,0.099c-5.53,0.003 -10.834,-2.194 -14.743,-6.104c-3.91,-3.911 -6.104,-9.216 -6.099,-14.745c0.042,-53.871 0.156,-198.371 0.211,-269.113c0.006,-7.306 4.233,-13.95 10.849,-17.051c6.615,-3.1 14.427,-2.098 20.045,2.572c62.888,52.274 199.976,166.226 199.976,166.226c0,0 115.182,-78.194 198.636,-134.849c7.811,-5.303 18.286,-4.317 24.971,2.35c6.685,6.667 7.699,17.139 2.417,24.965c-54.515,80.772 -128.351,190.172 -128.351,190.172Z" style="fill:#252530;fill-rule:nonzero;"/><path d="M1210.11,348.08c-0,0 -85.043,-100.67 -129.87,-153.735c-4.863,-5.756 -5.941,-13.812 -2.764,-20.644c3.177,-6.832 10.032,-11.199 17.567,-11.19c123.704,0.148 479.805,0.572 479.805,0.572l0,-0.003c8.625,0 16.499,-3.2 22.502,-8.479l3.113,-3.114c5.281,-6.004 8.48,-13.877 8.48,-22.501c0,-9.427 -3.824,-19.774 -10.008,-25.946c-6.17,-6.156 -14.684,-9.962 -24.088,-9.962l-599.244,0c-12.732,-0.415 -23.886,4.403 -31.406,13.578c-5.53,6.748 -7.877,14.59 -7.462,23.995c0.518,11.729 5.169,17.329 18.392,31.943l164.089,194.076l-207.362,310.363c-16.228,35.295 8.277,57.504 10.365,59.598c2.098,2.1 28.801,28.224 65.742,5.692l311.657,-210.988l244.007,206.007c7.331,6.956 16.413,12.992 27.096,13.64c10.596,0.643 19.741,-2.63 28.036,-10.677c6.264,-6.077 10.651,-15.138 10.184,-25.7l0,-447.873c0,-11.139 -5.342,-21.031 -13.604,-27.253c-5.704,-4.295 -12.8,-6.842 -20.491,-6.842l-274.179,0c-22.695,0 -36.358,17.191 -36.358,34.981c-0,19.449 14.038,34.981 36.327,34.981c0,-0 159.309,-0.072 217.383,-0.099c5.53,-0.003 10.834,2.194 14.743,6.104c3.91,3.911 6.104,9.216 6.099,14.745c-0.042,53.871 -0.156,198.371 -0.211,269.113c-0.006,7.306 -4.233,13.95 -10.849,17.051c-6.615,3.1 -14.427,2.098 -20.045,-2.572c-62.888,-52.274 -199.976,-166.226 -199.976,-166.226c0,0 -115.182,78.194 -198.636,134.849c-7.811,5.303 -18.286,4.317 -24.971,-2.35c-6.685,-6.667 -7.699,-17.139 -2.417,-24.965c54.515,-80.772 128.351,-190.172 128.351,-190.172Z" style="fill:#252530;fill-rule:nonzero;"/></g><g><path d="M532.495,1821.621c0,0 85.043,-100.67 129.87,-153.735c4.863,-5.756 5.941,-13.812 2.764,-20.644c-3.177,-6.832 -10.032,-11.199 -17.567,-11.19c-123.704,0.148 -479.805,0.572 -479.805,0.572l0,-0.003c-8.625,0 -16.499,-3.2 -22.502,-8.479l-3.113,-3.114c-5.281,-6.004 -8.48,-13.877 -8.48,-22.501c0,-9.427 3.824,-19.774 10.008,-25.946c6.17,-6.156 14.684,-9.962 24.088,-9.962l599.244,0c12.732,-0.415 23.886,4.403 31.406,13.578c5.53,6.748 7.877,14.59 7.462,23.995c-0.518,11.729 -5.169,17.329 -18.392,31.943l-164.089,194.076l207.362,310.363c16.228,35.295 -8.277,57.504 -10.365,59.598c-2.098,2.1 -28.801,28.224 -65.742,5.692l-311.657,-210.988l-244.007,206.007c-7.331,6.956 -16.413,12.992 -27.096,13.64c-10.596,0.643 -19.741,-2.63 -28.036,-10.677c-6.264,-6.077 -10.651,-15.138 -10.184,-25.7l0,-447.873c0,-11.139 5.342,-21.031 13.604,-27.253c5.704,-4.295 12.8,-6.842 20.491,-6.842l274.179,0c22.695,0 36.358,17.191 36.358,34.981c0,19.449 -14.038,34.981 -36.327,34.981c0,0 -159.309,-0.072 -217.383,-0.099c-5.53,-0.003 -10.834,2.194 -14.743,6.104c-3.91,3.911 -6.104,9.216 -6.099,14.745c0.042,53.871 0.156,198.371 0.211,269.113c0.006,7.306 4.233,13.95 10.849,17.051c6.615,3.1 14.427,2.098 20.045,-2.572c62.888,-52.274 199.976,-166.226 199.976,-166.226c0,0 115.182,78.194 198.636,134.849c7.811,5.303 18.286,4.317 24.971,-2.35c6.685,-6.667 7.699,-17.139 2.417,-24.965c-54.515,-80.772 -128.351,-190.172 -128.351,-190.172Z" style="fill:#252530;fill-rule:nonzero;"/><path d="M1210.11,2678.379c0,0 -85.043,100.67 -129.87,153.735c-4.863,5.756 -5.941,13.812 -2.764,20.644c3.177,6.832 10.032,11.199 17.567,11.19c123.704,-0.148 479.805,-0.572 479.805,-0.572l0,0.003c8.625,0 16.499,3.2 22.502,8.479l3.113,3.114c5.281,6.004 8.48,13.877 8.48,22.501c0,9.427 -3.824,19.774 -10.008,25.946c-6.17,6.156 -14.684,9.962 -24.088,9.962l-599.244,0c-12.732,0.415 -23.886,-4.403 -31.406,-13.578c-5.53,-6.748 -7.877,-14.59 -7.462,-23.995c0.518,-11.729 5.169,-17.329 18.392,-31.943l164.089,-194.076l-207.362,-310.363c-16.228,-35.295 8.277,-57.504 10.365,-59.598c2.098,-2.1 28.801,-28.224 65.742,-5.692l311.657,210.988l244.007,-206.007c7.331,-6.956 16.413,-12.992 27.096,-13.64c10.596,-0.643 19.741,2.63 28.036,10.677c6.264,6.077 10.651,15.138 10.184,25.7l0,447.873c0,11.139 -5.342,21.031 -13.604,27.253c-5.704,4.295 -12.8,6.842 -20.491,6.842l-274.179,0c-22.695,0 -36.358,-17.191 -36.358,-34.981c-0,-19.449 14.038,-34.981 36.327,-34.981c0,0 159.309,0.072 217.383,0.099c5.53,0.003 10.834,-2.194 14.743,-6.104c3.91,-3.911 6.104,-9.216 6.099,-14.745c-0.042,-53.871 -0.156,-198.371 -0.211,-269.113c-0.006,-7.306 -4.233,-13.95 -10.849,-17.051c-6.615,-3.1 -14.427,-2.098 -20.045,2.572c-62.888,52.274 -199.976,166.226 -199.976,166.226c0,-0 -115.182,-78.194 -198.636,-134.849c-7.811,-5.303 -18.286,-4.317 -24.971,2.35c-6.685,6.667 -7.699,17.139 -2.417,24.965c54.515,80.772 128.351,190.172 128.351,190.172Z" style="fill:#252530;fill-rule:nonzero;"/><path d="M532.495,2678.379c0,0 85.043,100.67 129.87,153.735c4.863,5.756 5.941,13.812 2.764,20.644c-3.177,6.832 -10.032,11.199 -17.567,11.19c-123.704,-0.148 -479.805,-0.572 -479.805,-0.572l0,0.003c-8.625,0 -16.499,3.2 -22.502,8.479l-3.113,3.114c-5.281,6.004 -8.48,13.877 -8.48,22.501c0,9.427 3.824,19.774 10.008,25.946c6.17,6.156 14.684,9.962 24.088,9.962l599.244,0c12.732,0.415 23.886,-4.403 31.406,-13.578c5.53,-6.748 7.877,-14.59 7.462,-23.995c-0.518,-11.729 -5.169,-17.329 -18.392,-31.943l-164.089,-194.076l207.362,-310.363c16.228,-35.295 -8.277,-57.504 -10.365,-59.598c-2.098,-2.1 -28.801,-28.224 -65.742,-5.692l-311.657,210.988l-244.007,-206.007c-7.331,-6.956 -16.413,-12.992 -27.096,-13.64c-10.596,-0.643 -19.741,2.63 -28.036,10.677c-6.264,6.077 -10.651,15.138 -10.184,25.7l0,447.873c0,11.139 5.342,21.031 13.604,27.253c5.704,4.295 12.8,6.842 20.491,6.842l274.179,0c22.695,0 36.358,-17.191 36.358,-34.981c0,-19.449 -14.038,-34.981 -36.327,-34.981c0,0 -159.309,0.072 -217.383,0.099c-5.53,0.003 -10.834,-2.194 -14.743,-6.104c-3.91,-3.911 -6.104,-9.216 -6.099,-14.745c0.042,-53.871 0.156,-198.371 0.211,-269.113c0.006,-7.306 4.233,-13.95 10.849,-17.051c6.615,-3.1 14.427,-2.098 20.045,2.572c62.888,52.274 199.976,166.226 199.976,166.226c0,-0 115.182,-78.194 198.636,-134.849c7.811,-5.303 18.286,-4.317 24.971,2.35c6.685,6.667 7.699,17.139 2.417,24.965c-54.515,80.772 -128.351,190.172 -128.351,190.172Z" style="fill:#252530;fill-rule:nonzero;"/><path d="M1210.11,1821.621c-0,0 -85.043,-100.67 -129.87,-153.735c-4.863,-5.756 -5.941,-13.812 -2.764,-20.644c3.177,-6.832 10.032,-11.199 17.567,-11.19c123.704,0.148 479.805,0.572 479.805,0.572l0,-0.003c8.625,0 16.499,-3.2 22.502,-8.479l3.113,-3.114c5.281,-6.004 8.48,-13.877 8.48,-22.501c0,-9.427 -3.824,-19.774 -10.008,-25.946c-6.17,-6.156 -14.684,-9.962 -24.088,-9.962l-599.244,0c-12.732,-0.415 -23.886,4.403 -31.406,13.578c-5.53,6.748 -7.877,14.59 -7.462,23.995c0.518,11.729 5.169,17.329 18.392,31.943l164.089,194.076l-207.362,310.363c-16.228,35.295 8.277,57.504 10.365,59.598c2.098,2.1 28.801,28.224 65.742,5.692l311.657,-210.988l244.007,206.007c7.331,6.956 16.413,12.992 27.096,13.64c10.596,0.643 19.741,-2.63 28.036,-10.677c6.264,-6.077 10.651,-15.138 10.184,-25.7l0,-447.873c0,-11.139 -5.342,-21.031 -13.604,-27.253c-5.704,-4.295 -12.8,-6.842 -20.491,-6.842l-274.179,0c-22.695,0 -36.358,17.191 -36.358,34.981c-0,19.449 14.038,34.981 36.327,34.981c0,0 159.309,-0.072 217.383,-0.099c5.53,-0.003 10.834,2.194 14.743,6.104c3.91,3.911 6.104,9.216 6.099,14.745c-0.042,53.871 -0.156,198.371 -0.211,269.113c-0.006,7.306 -4.233,13.95 -10.849,17.051c-6.615,3.1 -14.427,2.098 -20.045,-2.572c-62.888,-52.274 -199.976,-166.226 -199.976,-166.226c0,0 -115.182,78.194 -198.636,134.849c-7.811,5.303 -18.286,4.317 -24.971,-2.35c-6.685,-6.667 -7.699,-17.139 -2.417,-24.965c54.515,-80.772 128.351,-190.172 128.351,-190.172Z" style="fill:#252530;fill-rule:nonzero;"/></g><g><path d="M532.495,3295.162c0,0 85.043,-100.67 129.87,-153.735c4.863,-5.756 5.941,-13.812 2.764,-20.644c-3.177,-6.832 -10.032,-11.199 -17.567,-11.19c-123.704,0.148 -479.805,0.572 -479.805,0.572l0,-0.003c-8.625,0 -16.499,-3.2 -22.502,-8.479l-3.113,-3.114c-5.281,-6.004 -8.48,-13.877 -8.48,-22.501c0,-9.427 3.824,-19.774 10.008,-25.946c6.17,-6.156 14.684,-9.962 24.088,-9.962l599.244,0c12.732,-0.415 23.886,4.403 31.406,13.578c5.53,6.748 7.877,14.59 7.462,23.995c-0.518,11.729 -5.169,17.329 -18.392,31.943l-164.089,194.076l207.362,310.363c16.228,35.295 -8.277,57.504 -10.365,59.598c-2.098,2.1 -28.801,28.224 -65.742,5.692l-311.657,-210.988l-244.007,206.007c-7.331,6.956 -16.413,12.992 -27.096,13.64c-10.596,0.643 -19.741,-2.63 -28.036,-10.677c-6.264,-6.077 -10.651,-15.138 -10.184,-25.7l0,-447.873c0,-11.139 5.342,-21.031 13.604,-27.253c5.704,-4.295 12.8,-6.842 20.491,-6.842l274.179,0c22.695,0 36.358,17.191 36.358,34.981c0,19.449 -14.038,34.981 -36.327,34.981c0,0 -159.309,-0.072 -217.383,-0.099c-5.53,-0.003 -10.834,2.194 -14.743,6.104c-3.91,3.911 -6.104,9.216 -6.099,14.745c0.042,53.871 0.156,198.371 0.211,269.113c0.006,7.306 4.233,13.95 10.849,17.051c6.615,3.1 14.427,2.098 20.045,-2.572c62.888,-52.274 199.976,-166.226 199.976,-166.226c0,0 115.182,78.194 198.636,134.849c7.811,5.303 18.286,4.317 24.971,-2.35c6.685,-6.667 7.699,-17.139 2.417,-24.965c-54.515,-80.772 -128.351,-190.172 -128.351,-190.172Z" style="fill:#252530;fill-rule:nonzero;"/><path d="M1210.11,4151.92c0,-0 -85.043,100.67 -129.87,153.735c-4.863,5.756 -5.941,13.812 -2.764,20.644c3.177,6.832 10.032,11.199 17.567,11.19c123.704,-0.148 479.805,-0.572 479.805,-0.572l0,0.003c8.625,0 16.499,3.2 22.502,8.479l3.113,3.114c5.281,6.004 8.48,13.877 8.48,22.501c0,9.427 -3.824,19.774 -10.008,25.946c-6.17,6.156 -14.684,9.962 -24.088,9.962l-599.244,0c-12.732,0.415 -23.886,-4.403 -31.406,-13.578c-5.53,-6.748 -7.877,-14.59 -7.462,-23.995c0.518,-11.729 5.169,-17.329 18.392,-31.943l164.089,-194.076l-207.362,-310.363c-16.228,-35.295 8.277,-57.504 10.365,-59.598c2.098,-2.1 28.801,-28.224 65.742,-5.692l311.657,210.988l244.007,-206.007c7.331,-6.956 16.413,-12.992 27.096,-13.64c10.596,-0.643 19.741,2.63 28.036,10.677c6.264,6.077 10.651,15.138 10.184,25.7l0,447.873c0,11.139 -5.342,21.031 -13.604,27.253c-5.704,4.295 -12.8,6.842 -20.491,6.842l-274.179,0c-22.695,-0 -36.358,-17.191 -36.358,-34.981c-0,-19.449 14.038,-34.981 36.327,-34.981c0,0 159.309,0.072 217.383,0.099c5.53,0.003 10.834,-2.194 14.743,-6.104c3.91,-3.911 6.104,-9.216 6.099,-14.745c-0.042,-53.871 -0.156,-198.371 -0.211,-269.113c-0.006,-7.306 -4.233,-13.95 -10.849,-17.051c-6.615,-3.1 -14.427,-2.098 -20.045,2.572c-62.888,52.274 -199.976,166.226 -199.976,166.226c0,0 -115.182,-78.194 -198.636,-134.849c-7.811,-5.303 -18.286,-4.317 -24.971,2.35c-6.685,6.667 -7.699,17.139 -2.417,24.965c54.515,80.772 128.351,190.172 128.351,190.172Z" style="fill:#252530;fill-rule:nonzero;"/><path d="M532.495,4151.92c0,0 85.043,100.67 129.87,153.735c4.863,5.756 5.941,13.812 2.764,20.644c-3.177,6.832 -10.032,11.199 -17.567,11.19c-123.704,-0.148 -479.805,-0.572 -479.805,-0.572l0,0.003c-8.625,0 -16.499,3.2 -22.502,8.479l-3.113,3.114c-5.281,6.004 -8.48,13.877 -8.48,22.501c0,9.427 3.824,19.774 10.008,25.946c6.17,6.156 14.684,9.962 24.088,9.962l599.244,0c12.732,0.415 23.886,-4.403 31.406,-13.578c5.53,-6.748 7.877,-14.59 7.462,-23.995c-0.518,-11.729 -5.169,-17.329 -18.392,-31.943l-164.089,-194.076l207.362,-310.363c16.228,-35.295 -8.277,-57.504 -10.365,-59.598c-2.098,-2.1 -28.801,-28.224 -65.742,-5.692l-311.657,210.988l-244.007,-206.007c-7.331,-6.956 -16.413,-12.992 -27.096,-13.64c-10.596,-0.643 -19.741,2.63 -28.036,10.677c-6.264,6.077 -10.651,15.138 -10.184,25.7l0,447.873c0,11.139 5.342,21.031 13.604,27.253c5.704,4.295 12.8,6.842 20.491,6.842l274.179,0c22.695,0 36.358,-17.191 36.358,-34.981c0,-19.449 -14.038,-34.981 -36.327,-34.981c0,0 -159.309,0.072 -217.383,0.099c-5.53,0.003 -10.834,-2.194 -14.743,-6.104c-3.91,-3.911 -6.104,-9.216 -6.099,-14.745c0.042,-53.871 0.156,-198.371 0.211,-269.113c0.006,-7.306 4.233,-13.95 10.849,-17.051c6.615,-3.1 14.427,-2.098 20.045,2.572c62.888,52.274 199.976,166.226 199.976,166.226c0,0 115.182,-78.194 198.636,-134.849c7.811,-5.303 18.286,-4.317 24.971,2.35c6.685,6.667 7.699,17.139 2.417,24.965c-54.515,80.772 -128.351,190.172 -128.351,190.172Z" style="fill:#252530;fill-rule:nonzero;"/><path d="M1210.11,3295.162c-0,0 -85.043,-100.67 -129.87,-153.735c-4.863,-5.756 -5.941,-13.812 -2.764,-20.644c3.177,-6.832 10.032,-11.199 17.567,-11.19c123.704,0.148 479.805,0.572 479.805,0.572l0,-0.003c8.625,0 16.499,-3.2 22.502,-8.479l3.113,-3.114c5.281,-6.004 8.48,-13.877 8.48,-22.501c0,-9.427 -3.824,-19.774 -10.008,-25.946c-6.17,-6.156 -14.684,-9.962 -24.088,-9.962l-599.244,0c-12.732,-0.415 -23.886,4.403 -31.406,13.578c-5.53,6.748 -7.877,14.59 -7.462,23.995c0.518,11.729 5.169,17.329 18.392,31.943l164.089,194.076l-207.362,310.363c-16.228,35.295 8.277,57.504 10.365,59.598c2.098,2.1 28.801,28.224 65.742,5.692l311.657,-210.988l244.007,206.007c7.331,6.956 16.413,12.992 27.096,13.64c10.596,0.643 19.741,-2.63 28.036,-10.677c6.264,-6.077 10.651,-15.138 10.184,-25.7l0,-447.873c0,-11.139 -5.342,-21.031 -13.604,-27.253c-5.704,-4.295 -12.8,-6.842 -20.491,-6.842l-274.179,0c-22.695,0 -36.358,17.191 -36.358,34.981c-0,19.449 14.038,34.981 36.327,34.981c0,0 159.309,-0.072 217.383,-0.099c5.53,-0.003 10.834,2.194 14.743,6.104c3.91,3.911 6.104,9.216 6.099,14.745c-0.042,53.871 -0.156,198.371 -0.211,269.113c-0.006,7.306 -4.233,13.95 -10.849,17.051c-6.615,3.1 -14.427,2.098 -20.045,-2.572c-62.888,-52.274 -199.976,-166.226 -199.976,-166.226c0,0 -115.182,78.194 -198.636,134.849c-7.811,5.303 -18.286,4.317 -24.971,-2.35c-6.685,-6.667 -7.699,-17.139 -2.417,-24.965c54.515,-80.772 128.351,-190.172 128.351,-190.172Z" style="fill:#252530;fill-rule:nonzero;"/></g><g><path d="M2096.366,348.08c0,0 85.043,-100.67 129.87,-153.735c4.863,-5.756 5.941,-13.812 2.764,-20.644c-3.177,-6.832 -10.032,-11.199 -17.567,-11.19c-123.704,0.148 -479.805,0.572 -479.805,0.572l0,-0.003c-8.625,0 -16.499,-3.2 -22.502,-8.479l-3.113,-3.114c-5.281,-6.004 -8.48,-13.877 -8.48,-22.501c0,-9.427 3.824,-19.774 10.008,-25.946c6.17,-6.156 14.684,-9.962 24.088,-9.962l599.244,0c12.732,-0.415 23.886,4.403 31.406,13.578c5.53,6.748 7.877,14.59 7.462,23.995c-0.518,11.729 -5.169,17.329 -18.392,31.943l-164.089,194.076l207.362,310.363c16.228,35.295 -8.277,57.504 -10.365,59.598c-2.098,2.1 -28.801,28.224 -65.742,5.692l-311.657,-210.988l-244.007,206.007c-7.331,6.956 -16.413,12.992 -27.096,13.64c-10.596,0.643 -19.741,-2.63 -28.036,-10.677c-6.264,-6.077 -10.651,-15.138 -10.184,-25.7l0,-447.873c0,-11.139 5.342,-21.031 13.604,-27.253c5.704,-4.295 12.8,-6.842 20.491,-6.842l274.179,0c22.695,0 36.358,17.191 36.358,34.981c0,19.449 -14.038,34.981 -36.327,34.981c0,0 -159.309,-0.072 -217.383,-0.099c-5.53,-0.003 -10.834,2.194 -14.743,6.104c-3.91,3.911 -6.104,9.216 -6.099,14.745c0.042,53.871 0.156,198.371 0.211,269.113c0.006,7.306 4.233,13.95 10.849,17.051c6.615,3.1 14.427,2.098 20.045,-2.572c62.888,-52.274 199.976,-166.226 199.976,-166.226c0,0 115.182,78.194 198.636,134.849c7.811,5.303 18.286,4.317 24.971,-2.35c6.685,-6.667 7.699,-17.139 2.417,-24.965c-54.515,-80.772 -128.351,-190.172 -128.351,-190.172Z" style="fill:#252530;fill-rule:nonzero;"/><path d="M2773.98,1204.838c0,0 -85.043,100.67 -129.87,153.735c-4.863,5.756 -5.941,13.812 -2.764,20.644c3.177,6.832 10.032,11.199 17.567,11.19c123.704,-0.148 479.805,-0.572 479.805,-0.572l0,0.003c8.625,0 16.499,3.2 22.502,8.479l3.113,3.114c5.281,6.004 8.48,13.877 8.48,22.501c0,9.427 -3.824,19.774 -10.008,25.946c-6.17,6.156 -14.684,9.962 -24.088,9.962l-599.244,-0c-12.732,0.415 -23.886,-4.403 -31.406,-13.578c-5.53,-6.748 -7.877,-14.59 -7.462,-23.995c0.518,-11.729 5.169,-17.329 18.392,-31.943l164.089,-194.076l-207.362,-310.363c-16.228,-35.295 8.277,-57.504 10.365,-59.598c2.098,-2.1 28.801,-28.224 65.742,-5.692l311.657,210.988l244.007,-206.007c7.331,-6.956 16.413,-12.992 27.096,-13.64c10.596,-0.643 19.741,2.63 28.036,10.677c6.264,6.077 10.651,15.138 10.184,25.7l0,447.873c0,11.139 -5.342,21.031 -13.604,27.253c-5.704,4.295 -12.8,6.842 -20.491,6.842l-274.179,-0c-22.695,0 -36.358,-17.191 -36.358,-34.981c0,-19.449 14.038,-34.981 36.327,-34.981c0,0 159.309,0.072 217.383,0.099c5.53,0.003 10.834,-2.194 14.743,-6.104c3.91,-3.911 6.104,-9.216 6.099,-14.745c-0.042,-53.871 -0.156,-198.371 -0.211,-269.113c-0.006,-7.306 -4.233,-13.95 -10.849,-17.051c-6.615,-3.1 -14.427,-2.098 -20.045,2.572c-62.888,52.274 -199.976,166.226 -199.976,166.226c0,0 -115.182,-78.194 -198.636,-134.849c-7.811,-5.303 -18.286,-4.317 -24.971,2.35c-6.685,6.667 -7.699,17.139 -2.417,24.965c54.515,80.772 128.351,190.172 128.351,190.172Z" style="fill:#252530;fill-rule:nonzero;"/><path d="M2096.366,1204.838c-0,0 85.043,100.67 129.87,153.735c4.863,5.756 5.941,13.812 2.764,20.644c-3.177,6.832 -10.032,11.199 -17.567,11.19c-123.704,-0.148 -479.805,-0.572 -479.805,-0.572l0,0.003c-8.625,0 -16.499,3.2 -22.502,8.479l-3.113,3.114c-5.281,6.004 -8.48,13.877 -8.48,22.501c0,9.427 3.824,19.774 10.008,25.946c6.17,6.156 14.684,9.962 24.088,9.962l599.244,-0c12.732,0.415 23.886,-4.403 31.406,-13.578c5.53,-6.748 7.877,-14.59 7.462,-23.995c-0.518,-11.729 -5.169,-17.329 -18.392,-31.943l-164.089,-194.076l207.362,-310.363c16.228,-35.295 -8.277,-57.504 -10.365,-59.598c-2.098,-2.1 -28.801,-28.224 -65.742,-5.692l-311.657,210.988l-244.007,-206.007c-7.331,-6.956 -16.413,-12.992 -27.096,-13.64c-10.596,-0.643 -19.741,2.63 -28.036,10.677c-6.264,6.077 -10.651,15.138 -10.184,25.7l0,447.873c0,11.139 5.342,21.031 13.604,27.253c5.704,4.295 12.8,6.842 20.491,6.842l274.179,-0c22.695,0 36.358,-17.191 36.358,-34.981c0,-19.449 -14.038,-34.981 -36.327,-34.981c-0,0 -159.309,0.072 -217.383,0.099c-5.53,0.003 -10.834,-2.194 -14.743,-6.104c-3.91,-3.911 -6.104,-9.216 -6.099,-14.745c0.042,-53.871 0.156,-198.371 0.211,-269.113c0.006,-7.306 4.233,-13.95 10.849,-17.051c6.615,-3.1 14.427,-2.098 20.045,2.572c62.888,52.274 199.976,166.226 199.976,166.226c0,0 115.182,-78.194 198.636,-134.849c7.811,-5.303 18.286,-4.317 24.971,2.35c6.685,6.667 7.699,17.139 2.417,24.965c-54.515,80.772 -128.351,190.172 -128.351,190.172Z" style="fill:#252530;fill-rule:nonzero;"/><path d="M2773.98,348.08c0,0 -85.043,-100.67 -129.87,-153.735c-4.863,-5.756 -5.941,-13.812 -2.764,-20.644c3.177,-6.832 10.032,-11.199 17.567,-11.19c123.704,0.148 479.805,0.572 479.805,0.572l0,-0.003c8.625,0 16.499,-3.2 22.502,-8.479l3.113,-3.114c5.281,-6.004 8.48,-13.877 8.48,-22.501c0,-9.427 -3.824,-19.774 -10.008,-25.946c-6.17,-6.156 -14.684,-9.962 -24.088,-9.962l-599.244,0c-12.732,-0.415 -23.886,4.403 -31.406,13.578c-5.53,6.748 -7.877,14.59 -7.462,23.995c0.518,11.729 5.169,17.329 18.392,31.943l164.089,194.076l-207.362,310.363c-16.228,35.295 8.277,57.504 10.365,59.598c2.098,2.1 28.801,28.224 65.742,5.692l311.657,-210.988l244.007,206.007c7.331,6.956 16.413,12.992 27.096,13.64c10.596,0.643 19.741,-2.63 28.036,-10.677c6.264,-6.077 10.651,-15.138 10.184,-25.7l0,-447.873c0,-11.139 -5.342,-21.031 -13.604,-27.253c-5.704,-4.295 -12.8,-6.842 -20.491,-6.842l-274.179,0c-22.695,0 -36.358,17.191 -36.358,34.981c0,19.449 14.038,34.981 36.327,34.981c0,0 159.309,-0.072 217.383,-0.099c5.53,-0.003 10.834,2.194 14.743,6.104c3.91,3.911 6.104,9.216 6.099,14.745c-0.042,53.871 -0.156,198.371 -0.211,269.113c-0.006,7.306 -4.233,13.95 -10.849,17.051c-6.615,3.1 -14.427,2.098 -20.045,-2.572c-62.888,-52.274 -199.976,-166.226 -199.976,-166.226c0,0 -115.182,78.194 -198.636,134.849c-7.811,5.303 -18.286,4.317 -24.971,-2.35c-6.685,-6.667 -7.699,-17.139 -2.417,-24.965c54.515,-80.772 128.351,-190.172 128.351,-190.172Z" style="fill:#252530;fill-rule:nonzero;"/></g><g><path d="M2096.366,1821.621c0,0 85.043,-100.67 129.87,-153.735c4.863,-5.756 5.941,-13.812 2.764,-20.644c-3.177,-6.832 -10.032,-11.199 -17.567,-11.19c-123.704,0.148 -479.805,0.572 -479.805,0.572l0,-0.003c-8.625,0 -16.499,-3.2 -22.502,-8.479l-3.113,-3.114c-5.281,-6.004 -8.48,-13.877 -8.48,-22.501c0,-9.427 3.824,-19.774 10.008,-25.946c6.17,-6.156 14.684,-9.962 24.088,-9.962l599.244,0c12.732,-0.415 23.886,4.403 31.406,13.578c5.53,6.748 7.877,14.59 7.462,23.995c-0.518,11.729 -5.169,17.329 -18.392,31.943l-164.089,194.076l207.362,310.363c16.228,35.295 -8.277,57.504 -10.365,59.598c-2.098,2.1 -28.801,28.224 -65.742,5.692l-311.657,-210.988l-244.007,206.007c-7.331,6.956 -16.413,12.992 -27.096,13.64c-10.596,0.643 -19.741,-2.63 -28.036,-10.677c-6.264,-6.077 -10.651,-15.138 -10.184,-25.7l0,-447.873c0,-11.139 5.342,-21.031 13.604,-27.253c5.704,-4.295 12.8,-6.842 20.491,-6.842l274.179,0c22.695,0 36.358,17.191 36.358,34.981c0,19.449 -14.038,34.981 -36.327,34.981c0,-0 -159.309,-0.072 -217.383,-0.099c-5.53,-0.003 -10.834,2.194 -14.743,6.104c-3.91,3.911 -6.104,9.216 -6.099,14.745c0.042,53.871 0.156,198.371 0.211,269.113c0.006,7.306 4.233,13.95 10.849,17.051c6.615,3.1 14.427,2.098 20.045,-2.572c62.888,-52.274 199.976,-166.226 199.976,-166.226c0,0 115.182,78.194 198.636,134.849c7.811,5.303 18.286,4.317 24.971,-2.35c6.685,-6.667 7.699,-17.139 2.417,-24.965c-54.515,-80.772 -128.351,-190.172 -128.351,-190.172Z" style="fill:#252530;fill-rule:nonzero;"/><path d="M2773.98,2678.379c0,0 -85.043,100.67 -129.87,153.735c-4.863,5.756 -5.941,13.812 -2.764,20.644c3.177,6.832 10.032,11.199 17.567,11.19c123.704,-0.148 479.805,-0.572 479.805,-0.572l0,0.003c8.625,0 16.499,3.2 22.502,8.479l3.113,3.114c5.281,6.004 8.48,13.877 8.48,22.501c0,9.427 -3.824,19.774 -10.008,25.946c-6.17,6.156 -14.684,9.962 -24.088,9.962l-599.244,0c-12.732,0.415 -23.886,-4.403 -31.406,-13.578c-5.53,-6.748 -7.877,-14.59 -7.462,-23.995c0.518,-11.729 5.169,-17.329 18.392,-31.943l164.089,-194.076l-207.362,-310.363c-16.228,-35.295 8.277,-57.504 10.365,-59.598c2.098,-2.1 28.801,-28.224 65.742,-5.692l311.657,210.988l244.007,-206.007c7.331,-6.956 16.413,-12.992 27.096,-13.64c10.596,-0.643 19.741,2.63 28.036,10.677c6.264,6.077 10.651,15.138 10.184,25.7l0,447.873c0,11.139 -5.342,21.031 -13.604,27.253c-5.704,4.295 -12.8,6.842 -20.491,6.842l-274.179,0c-22.695,0 -36.358,-17.191 -36.358,-34.981c0,-19.449 14.038,-34.981 36.327,-34.981c0,0 159.309,0.072 217.383,0.099c5.53,0.003 10.834,-2.194 14.743,-6.104c3.91,-3.911 6.104,-9.216 6.099,-14.745c-0.042,-53.871 -0.156,-198.371 -0.211,-269.113c-0.006,-7.306 -4.233,-13.95 -10.849,-17.051c-6.615,-3.1 -14.427,-2.098 -20.045,2.572c-62.888,52.274 -199.976,166.226 -199.976,166.226c0,0 -115.182,-78.194 -198.636,-134.849c-7.811,-5.303 -18.286,-4.317 -24.971,2.35c-6.685,6.667 -7.699,17.139 -2.417,24.965c54.515,80.772 128.351,190.172 128.351,190.172Z" style="fill:#252530;fill-rule:nonzero;"/><path d="M2096.366,2678.379c-0,0 85.043,100.67 129.87,153.735c4.863,5.756 5.941,13.812 2.764,20.644c-3.177,6.832 -10.032,11.199 -17.567,11.19c-123.704,-0.148 -479.805,-0.572 -479.805,-0.572l0,0.003c-8.625,0 -16.499,3.2 -22.502,8.479l-3.113,3.114c-5.281,6.004 -8.48,13.877 -8.48,22.501c0,9.427 3.824,19.774 10.008,25.946c6.17,6.156 14.684,9.962 24.088,9.962l599.244,0c12.732,0.415 23.886,-4.403 31.406,-13.578c5.53,-6.748 7.877,-14.59 7.462,-23.995c-0.518,-11.729 -5.169,-17.329 -18.392,-31.943l-164.089,-194.076l207.362,-310.363c16.228,-35.295 -8.277,-57.504 -10.365,-59.598c-2.098,-2.1 -28.801,-28.224 -65.742,-5.692l-311.657,210.988l-244.007,-206.007c-7.331,-6.956 -16.413,-12.992 -27.096,-13.64c-10.596,-0.643 -19.741,2.63 -28.036,10.677c-6.264,6.077 -10.651,15.138 -10.184,25.7l0,447.873c0,11.139 5.342,21.031 13.604,27.253c5.704,4.295 12.8,6.842 20.491,6.842l274.179,0c22.695,0 36.358,-17.191 36.358,-34.981c0,-19.449 -14.038,-34.981 -36.327,-34.981c-0,0 -159.309,0.072 -217.383,0.099c-5.53,0.003 -10.834,-2.194 -14.743,-6.104c-3.91,-3.911 -6.104,-9.216 -6.099,-14.745c0.042,-53.871 0.156,-198.371 0.211,-269.113c0.006,-7.306 4.233,-13.95 10.849,-17.051c6.615,-3.1 14.427,-2.098 20.045,2.572c62.888,52.274 199.976,166.226 199.976,166.226c0,0 115.182,-78.194 198.636,-134.849c7.811,-5.303 18.286,-4.317 24.971,2.35c6.685,6.667 7.699,17.139 2.417,24.965c-54.515,80.772 -128.351,190.172 -128.351,190.172Z" style="fill:#252530;fill-rule:nonzero;"/><path d="M2773.98,1821.621c0,0 -85.043,-100.67 -129.87,-153.735c-4.863,-5.756 -5.941,-13.812 -2.764,-20.644c3.177,-6.832 10.032,-11.199 17.567,-11.19c123.704,0.148 479.805,0.572 479.805,0.572l0,-0.003c8.625,0 16.499,-3.2 22.502,-8.479l3.113,-3.114c5.281,-6.004 8.48,-13.877 8.48,-22.501c0,-9.427 -3.824,-19.774 -10.008,-25.946c-6.17,-6.156 -14.684,-9.962 -24.088,-9.962l-599.244,0c-12.732,-0.415 -23.886,4.403 -31.406,13.578c-5.53,6.748 -7.877,14.59 -7.462,23.995c0.518,11.729 5.169,17.329 18.392,31.943l164.089,194.076l-207.362,310.363c-16.228,35.295 8.277,57.504 10.365,59.598c2.098,2.1 28.801,28.224 65.742,5.692l311.657,-210.988l244.007,206.007c7.331,6.956 16.413,12.992 27.096,13.64c10.596,0.643 19.741,-2.63 28.036,-10.677c6.264,-6.077 10.651,-15.138 10.184,-25.7l0,-447.873c0,-11.139 -5.342,-21.031 -13.604,-27.253c-5.704,-4.295 -12.8,-6.842 -20.491,-6.842l-274.179,0c-22.695,0 -36.358,17.191 -36.358,34.981c0,19.449 14.038,34.981 36.327,34.981c0,-0 159.309,-0.072 217.383,-0.099c5.53,-0.003 10.834,2.194 14.743,6.104c3.91,3.911 6.104,9.216 6.099,14.745c-0.042,53.871 -0.156,198.371 -0.211,269.113c-0.006,7.306 -4.233,13.95 -10.849,17.051c-6.615,3.1 -14.427,2.098 -20.045,-2.572c-62.888,-52.274 -199.976,-166.226 -199.976,-166.226c0,0 -115.182,78.194 -198.636,134.849c-7.811,5.303 -18.286,4.317 -24.971,-2.35c-6.685,-6.667 -7.699,-17.139 -2.417,-24.965c54.515,-80.772 128.351,-190.172 128.351,-190.172Z" style="fill:#252530;fill-rule:nonzero;"/></g><g><path d="M2096.366,3295.162c0,0 85.043,-100.67 129.87,-153.735c4.863,-5.756 5.941,-13.812 2.764,-20.644c-3.177,-6.832 -10.032,-11.199 -17.567,-11.19c-123.704,0.148 -479.805,0.572 -479.805,0.572l0,-0.003c-8.625,0 -16.499,-3.2 -22.502,-8.479l-3.113,-3.114c-5.281,-6.004 -8.48,-13.877 -8.48,-22.501c0,-9.427 3.824,-19.774 10.008,-25.946c6.17,-6.156 14.684,-9.962 24.088,-9.962l599.244,0c12.732,-0.415 23.886,4.403 31.406,13.578c5.53,6.748 7.877,14.59 7.462,23.995c-0.518,11.729 -5.169,17.329 -18.392,31.943l-164.089,194.076l207.362,310.363c16.228,35.295 -8.277,57.504 -10.365,59.598c-2.098,2.1 -28.801,28.224 -65.742,5.692l-311.657,-210.988l-244.007,206.007c-7.331,6.956 -16.413,12.992 -27.096,13.64c-10.596,0.643 -19.741,-2.63 -28.036,-10.677c-6.264,-6.077 -10.651,-15.138 -10.184,-25.7l0,-447.873c0,-11.139 5.342,-21.031 13.604,-27.253c5.704,-4.295 12.8,-6.842 20.491,-6.842l274.179,0c22.695,0 36.358,17.191 36.358,34.981c0,19.449 -14.038,34.981 -36.327,34.981c0,-0 -159.309,-0.072 -217.383,-0.099c-5.53,-0.003 -10.834,2.194 -14.743,6.104c-3.91,3.911 -6.104,9.216 -6.099,14.745c0.042,53.871 0.156,198.371 0.211,269.113c0.006,7.306 4.233,13.95 10.849,17.051c6.615,3.1 14.427,2.098 20.045,-2.572c62.888,-52.274 199.976,-166.226 199.976,-166.226c0,-0 115.182,78.194 198.636,134.849c7.811,5.303 18.286,4.317 24.971,-2.35c6.685,-6.667 7.699,-17.139 2.417,-24.965c-54.515,-80.772 -128.351,-190.172 -128.351,-190.172Z" style="fill:#252530;fill-rule:nonzero;"/><path d="M2773.98,4151.92c0,0 -85.043,100.67 -129.87,153.735c-4.863,5.756 -5.941,13.812 -2.764,20.644c3.177,6.832 10.032,11.199 17.567,11.19c123.704,-0.148 479.805,-0.572 479.805,-0.572l0,0.003c8.625,0 16.499,3.2 22.502,8.479l3.113,3.114c5.281,6.004 8.48,13.877 8.48,22.501c0,9.427 -3.824,19.774 -10.008,25.946c-6.17,6.156 -14.684,9.962 -24.088,9.962l-599.244,0c-12.732,0.415 -23.886,-4.403 -31.406,-13.578c-5.53,-6.748 -7.877,-14.59 -7.462,-23.995c0.518,-11.729 5.169,-17.329 18.392,-31.943l164.089,-194.076l-207.362,-310.363c-16.228,-35.295 8.277,-57.504 10.365,-59.598c2.098,-2.1 28.801,-28.224 65.742,-5.692l311.657,210.988l244.007,-206.007c7.331,-6.956 16.413,-12.992 27.096,-13.64c10.596,-0.643 19.741,2.63 28.036,10.677c6.264,6.077 10.651,15.138 10.184,25.7l0,447.873c0,11.139 -5.342,21.031 -13.604,27.253c-5.704,4.295 -12.8,6.842 -20.491,6.842l-274.179,0c-22.695,-0 -36.358,-17.191 -36.358,-34.981c-0,-19.449 14.038,-34.981 36.327,-34.981c0,0 159.309,0.072 217.383,0.099c5.53,0.003 10.834,-2.194 14.743,-6.104c3.91,-3.911 6.104,-9.216 6.099,-14.745c-0.042,-53.871 -0.156,-198.371 -0.211,-269.113c-0.006,-7.306 -4.233,-13.95 -10.849,-17.051c-6.615,-3.1 -14.427,-2.098 -20.045,2.572c-62.888,52.274 -199.976,166.226 -199.976,166.226c0,0 -115.182,-78.194 -198.636,-134.849c-7.811,-5.303 -18.286,-4.317 -24.971,2.35c-6.685,6.667 -7.699,17.139 -2.417,24.965c54.515,80.772 128.351,190.172 128.351,190.172Z" style="fill:#252530;fill-rule:nonzero;"/><path d="M2096.366,4151.92c0,-0 85.043,100.67 129.87,153.735c4.863,5.756 5.941,13.812 2.764,20.644c-3.177,6.832 -10.032,11.199 -17.567,11.19c-123.704,-0.148 -479.805,-0.572 -479.805,-0.572l0,0.003c-8.625,0 -16.499,3.2 -22.502,8.479l-3.113,3.114c-5.281,6.004 -8.48,13.877 -8.48,22.501c0,9.427 3.824,19.774 10.008,25.946c6.17,6.156 14.684,9.962 24.088,9.962l599.244,0c12.732,0.415 23.886,-4.403 31.406,-13.578c5.53,-6.748 7.877,-14.59 7.462,-23.995c-0.518,-11.729 -5.169,-17.329 -18.392,-31.943l-164.089,-194.076l207.362,-310.363c16.228,-35.295 -8.277,-57.504 -10.365,-59.598c-2.098,-2.1 -28.801,-28.224 -65.742,-5.692l-311.657,210.988l-244.007,-206.007c-7.331,-6.956 -16.413,-12.992 -27.096,-13.64c-10.596,-0.643 -19.741,2.63 -28.036,10.677c-6.264,6.077 -10.651,15.138 -10.184,25.7l0,447.873c0,11.139 5.342,21.031 13.604,27.253c5.704,4.295 12.8,6.842 20.491,6.842l274.179,0c22.695,0 36.358,-17.191 36.358,-34.981c0,-19.449 -14.038,-34.981 -36.327,-34.981c0,0 -159.309,0.072 -217.383,0.099c-5.53,0.003 -10.834,-2.194 -14.743,-6.104c-3.91,-3.911 -6.104,-9.216 -6.099,-14.745c0.042,-53.871 0.156,-198.371 0.211,-269.113c0.006,-7.306 4.233,-13.95 10.849,-17.051c6.615,-3.1 14.427,-2.098 20.045,2.572c62.888,52.274 199.976,166.226 199.976,166.226c0,0 115.182,-78.194 198.636,-134.849c7.811,-5.303 18.286,-4.317 24.971,2.35c6.685,6.667 7.699,17.139 2.417,24.965c-54.515,80.772 -128.351,190.172 -128.351,190.172Z" style="fill:#252530;fill-rule:nonzero;"/><path d="M2773.98,3295.162c0,-0 -85.043,-100.67 -129.87,-153.735c-4.863,-5.756 -5.941,-13.812 -2.764,-20.644c3.177,-6.832 10.032,-11.199 17.567,-11.19c123.704,0.148 479.805,0.572 479.805,0.572l0,-0.003c8.625,0 16.499,-3.2 22.502,-8.479l3.113,-3.114c5.281,-6.004 8.48,-13.877 8.48,-22.501c0,-9.427 -3.824,-19.774 -10.008,-25.946c-6.17,-6.156 -14.684,-9.962 -24.088,-9.962l-599.244,0c-12.732,-0.415 -23.886,4.403 -31.406,13.578c-5.53,6.748 -7.877,14.59 -7.462,23.995c0.518,11.729 5.169,17.329 18.392,31.943l164.089,194.076l-207.362,310.363c-16.228,35.295 8.277,57.504 10.365,59.598c2.098,2.1 28.801,28.224 65.742,5.692l311.657,-210.988l244.007,206.007c7.331,6.956 16.413,12.992 27.096,13.64c10.596,0.643 19.741,-2.63 28.036,-10.677c6.264,-6.077 10.651,-15.138 10.184,-25.7l0,-447.873c0,-11.139 -5.342,-21.031 -13.604,-27.253c-5.704,-4.295 -12.8,-6.842 -20.491,-6.842l-274.179,0c-22.695,0 -36.358,17.191 -36.358,34.981c0,19.449 14.038,34.981 36.327,34.981c0,-0 159.309,-0.072 217.383,-0.099c5.53,-0.003 10.834,2.194 14.743,6.104c3.91,3.911 6.104,9.216 6.099,14.745c-0.042,53.871 -0.156,198.371 -0.211,269.113c-0.006,7.306 -4.233,13.95 -10.849,17.051c-6.615,3.1 -14.427,2.098 -20.045,-2.572c-62.888,-52.274 -199.976,-166.226 -199.976,-166.226c0,0 -115.182,78.194 -198.636,134.849c-7.811,5.303 -18.286,4.317 -24.971,-2.35c-6.685,-6.667 -7.699,-17.139 -2.417,-24.965c54.515,-80.772 128.351,-190.172 128.351,-190.172Z" style="fill:#252530;fill-rule:nonzero;"/></g><g><path d="M3660.236,348.08c0,-0 85.043,-100.67 129.87,-153.735c4.863,-5.756 5.941,-13.812 2.764,-20.644c-3.177,-6.832 -10.032,-11.199 -17.567,-11.19c-123.704,0.148 -479.805,0.572 -479.805,0.572l0,-0.003c-8.625,0 -16.499,-3.2 -22.502,-8.479l-3.113,-3.114c-5.281,-6.004 -8.48,-13.877 -8.48,-22.501c0,-9.427 3.824,-19.774 10.008,-25.946c6.17,-6.156 14.684,-9.962 24.088,-9.962l599.244,0c12.732,-0.415 23.886,4.403 31.406,13.578c5.53,6.748 7.877,14.59 7.462,23.995c-0.518,11.729 -5.169,17.329 -18.392,31.943l-164.089,194.076l207.362,310.363c16.228,35.295 -8.277,57.504 -10.365,59.598c-2.098,2.1 -28.801,28.224 -65.742,5.692l-311.657,-210.988l-244.007,206.007c-7.331,6.956 -16.413,12.992 -27.096,13.64c-10.596,0.643 -19.741,-2.63 -28.036,-10.677c-6.264,-6.077 -10.651,-15.138 -10.184,-25.7l0,-447.873c0,-11.139 5.342,-21.031 13.604,-27.253c5.704,-4.295 12.8,-6.842 20.491,-6.842l274.179,0c22.695,0 36.358,17.191 36.358,34.981c0,19.449 -14.038,34.981 -36.327,34.981c0,0 -159.309,-0.072 -217.383,-0.099c-5.53,-0.003 -10.834,2.194 -14.743,6.104c-3.91,3.911 -6.104,9.216 -6.099,14.745c0.042,53.871 0.156,198.371 0.211,269.113c0.006,7.306 4.233,13.95 10.849,17.051c6.615,3.1 14.427,2.098 20.045,-2.572c62.888,-52.274 199.976,-166.226 199.976,-166.226c0,-0 115.182,78.194 198.636,134.849c7.811,5.303 18.286,4.317 24.971,-2.35c6.685,-6.667 7.699,-17.139 2.417,-24.965c-54.515,-80.772 -128.351,-190.172 -128.351,-190.172Z" style="fill:#252530;fill-rule:nonzero;"/><path d="M4337.851,1204.838c0,-0 -85.043,100.67 -129.87,153.735c-4.863,5.756 -5.941,13.812 -2.764,20.644c3.177,6.832 10.032,11.199 17.567,11.19c123.704,-0.148 479.805,-0.572 479.805,-0.572l0,0.003c8.625,0 16.499,3.2 22.502,8.479l3.113,3.114c5.281,6.004 8.48,13.877 8.48,22.501c0,9.427 -3.824,19.774 -10.008,25.946c-6.17,6.156 -14.684,9.962 -24.088,9.962l-599.244,-0c-12.732,0.415 -23.886,-4.403 -31.406,-13.578c-5.53,-6.748 -7.877,-14.59 -7.462,-23.995c0.518,-11.729 5.169,-17.329 18.392,-31.943l164.089,-194.076l-207.362,-310.363c-16.228,-35.295 8.277,-57.504 10.365,-59.598c2.098,-2.1 28.801,-28.224 65.742,-5.692l311.657,210.988l244.007,-206.007c7.331,-6.956 16.413,-12.992 27.096,-13.64c10.596,-0.643 19.741,2.63 28.036,10.677c6.264,6.077 10.651,15.138 10.184,25.7l0,447.873c0,11.139 -5.342,21.031 -13.604,27.253c-5.704,4.295 -12.8,6.842 -20.491,6.842l-274.179,-0c-22.695,0 -36.358,-17.191 -36.358,-34.981c0,-19.449 14.038,-34.981 36.327,-34.981c0,0 159.309,0.072 217.383,0.099c5.53,0.003 10.834,-2.194 14.743,-6.104c3.91,-3.911 6.104,-9.216 6.099,-14.745c-0.042,-53.871 -0.156,-198.371 -0.211,-269.113c-0.006,-7.306 -4.233,-13.95 -10.849,-17.051c-6.615,-3.1 -14.427,-2.098 -20.045,2.572c-62.888,52.274 -199.976,166.226 -199.976,166.226c0,0 -115.182,-78.194 -198.636,-134.849c-7.811,-5.303 -18.286,-4.317 -24.971,2.35c-6.685,6.667 -7.699,17.139 -2.417,24.965c54.515,80.772 128.351,190.172 128.351,190.172Z" style="fill:#252530;fill-rule:nonzero;"/><path d="M3660.236,1204.838c0,-0 85.043,100.67 129.87,153.735c4.863,5.756 5.941,13.812 2.764,20.644c-3.177,6.832 -10.032,11.199 -17.567,11.19c-123.704,-0.148 -479.805,-0.572 -479.805,-0.572l0,0.003c-8.625,0 -16.499,3.2 -22.502,8.479l-3.113,3.114c-5.281,6.004 -8.48,13.877 -8.48,22.501c0,9.427 3.824,19.774 10.008,25.946c6.17,6.156 14.684,9.962 24.088,9.962l599.244,-0c12.732,0.415 23.886,-4.403 31.406,-13.578c5.53,-6.748 7.877,-14.59 7.462,-23.995c-0.518,-11.729 -5.169,-17.329 -18.392,-31.943l-164.089,-194.076l207.362,-310.363c16.228,-35.295 -8.277,-57.504 -10.365,-59.598c-2.098,-2.1 -28.801,-28.224 -65.742,-5.692l-311.657,210.988l-244.007,-206.007c-7.331,-6.956 -16.413,-12.992 -27.096,-13.64c-10.596,-0.643 -19.741,2.63 -28.036,10.677c-6.264,6.077 -10.651,15.138 -10.184,25.7l0,447.873c0,11.139 5.342,21.031 13.604,27.253c5.704,4.295 12.8,6.842 20.491,6.842l274.179,-0c22.695,0 36.358,-17.191 36.358,-34.981c0,-19.449 -14.038,-34.981 -36.327,-34.981c0,0 -159.309,0.072 -217.383,0.099c-5.53,0.003 -10.834,-2.194 -14.743,-6.104c-3.91,-3.911 -6.104,-9.216 -6.099,-14.745c0.042,-53.871 0.156,-198.371 0.211,-269.113c0.006,-7.306 4.233,-13.95 10.849,-17.051c6.615,-3.1 14.427,-2.098 20.045,2.572c62.888,52.274 199.976,166.226 199.976,166.226c-0,0 115.182,-78.194 198.636,-134.849c7.811,-5.303 18.286,-4.317 24.971,2.35c6.685,6.667 7.699,17.139 2.417,24.965c-54.515,80.772 -128.351,190.172 -128.351,190.172Z" style="fill:#252530;fill-rule:nonzero;"/><path d="M4337.851,348.08c0,-0 -85.043,-100.67 -129.87,-153.735c-4.863,-5.756 -5.941,-13.812 -2.764,-20.644c3.177,-6.832 10.032,-11.199 17.567,-11.19c123.704,0.148 479.805,0.572 479.805,0.572l0,-0.003c8.625,0 16.499,-3.2 22.502,-8.479l3.113,-3.114c5.281,-6.004 8.48,-13.877 8.48,-22.501c0,-9.427 -3.824,-19.774 -10.008,-25.946c-6.17,-6.156 -14.684,-9.962 -24.088,-9.962l-599.244,0c-12.732,-0.415 -23.886,4.403 -31.406,13.578c-5.53,6.748 -7.877,14.59 -7.462,23.995c0.518,11.729 5.169,17.329 18.392,31.943l164.089,194.076l-207.362,310.363c-16.228,35.295 8.277,57.504 10.365,59.598c2.098,2.1 28.801,28.224 65.742,5.692l311.657,-210.988l244.007,206.007c7.331,6.956 16.413,12.992 27.096,13.64c10.596,0.643 19.741,-2.63 28.036,-10.677c6.264,-6.077 10.651,-15.138 10.184,-25.7l0,-447.873c0,-11.139 -5.342,-21.031 -13.604,-27.253c-5.704,-4.295 -12.8,-6.842 -20.491,-6.842l-274.179,0c-22.695,0 -36.358,17.191 -36.358,34.981c0,19.449 14.038,34.981 36.327,34.981c0,0 159.309,-0.072 217.383,-0.099c5.53,-0.003 10.834,2.194 14.743,6.104c3.91,3.911 6.104,9.216 6.099,14.745c-0.042,53.871 -0.156,198.371 -0.211,269.113c-0.006,7.306 -4.233,13.95 -10.849,17.051c-6.615,3.1 -14.427,2.098 -20.045,-2.572c-62.888,-52.274 -199.976,-166.226 -199.976,-166.226c0,-0 -115.182,78.194 -198.636,134.849c-7.811,5.303 -18.286,4.317 -24.971,-2.35c-6.685,-6.667 -7.699,-17.139 -2.417,-24.965c54.515,-80.772 128.351,-190.172 128.351,-190.172Z" style="fill:#252530;fill-rule:nonzero;"/></g><g><path d="M3660.236,1821.621c0,0 85.043,-100.67 129.87,-153.735c4.863,-5.756 5.941,-13.812 2.764,-20.644c-3.177,-6.832 -10.032,-11.199 -17.567,-11.19c-123.704,0.148 -479.805,0.572 -479.805,0.572l0,-0.003c-8.625,0 -16.499,-3.2 -22.502,-8.479l-3.113,-3.114c-5.281,-6.004 -8.48,-13.877 -8.48,-22.501c0,-9.427 3.824,-19.774 10.008,-25.946c6.17,-6.156 14.684,-9.962 24.088,-9.962l599.244,0c12.732,-0.415 23.886,4.403 31.406,13.578c5.53,6.748 7.877,14.59 7.462,23.995c-0.518,11.729 -5.169,17.329 -18.392,31.943l-164.089,194.076l207.362,310.363c16.228,35.295 -8.277,57.504 -10.365,59.598c-2.098,2.1 -28.801,28.224 -65.742,5.692l-311.657,-210.988l-244.007,206.007c-7.331,6.956 -16.413,12.992 -27.096,13.64c-10.596,0.643 -19.741,-2.63 -28.036,-10.677c-6.264,-6.077 -10.651,-15.138 -10.184,-25.7l0,-447.873c0,-11.139 5.342,-21.031 13.604,-27.253c5.704,-4.295 12.8,-6.842 20.491,-6.842l274.179,0c22.695,0 36.358,17.191 36.358,34.981c0,19.449 -14.038,34.981 -36.327,34.981c0,0 -159.309,-0.072 -217.383,-0.099c-5.53,-0.003 -10.834,2.194 -14.743,6.104c-3.91,3.911 -6.104,9.216 -6.099,14.745c0.042,53.871 0.156,198.371 0.211,269.113c0.006,7.306 4.233,13.95 10.849,17.051c6.615,3.1 14.427,2.098 20.045,-2.572c62.888,-52.274 199.976,-166.226 199.976,-166.226c0,0 115.182,78.194 198.636,134.849c7.811,5.303 18.286,4.317 24.971,-2.35c6.685,-6.667 7.699,-17.139 2.417,-24.965c-54.515,-80.772 -128.351,-190.172 -128.351,-190.172Z" style="fill:#252530;fill-rule:nonzero;"/><path d="M4337.851,2678.379c0,0 -85.043,100.67 -129.87,153.735c-4.863,5.756 -5.941,13.812 -2.764,20.644c3.177,6.832 10.032,11.199 17.567,11.19c123.704,-0.148 479.805,-0.572 479.805,-0.572l0,0.003c8.625,0 16.499,3.2 22.502,8.479l3.113,3.114c5.281,6.004 8.48,13.877 8.48,22.501c0,9.427 -3.824,19.774 -10.008,25.946c-6.17,6.156 -14.684,9.962 -24.088,9.962l-599.244,0c-12.732,0.415 -23.886,-4.403 -31.406,-13.578c-5.53,-6.748 -7.877,-14.59 -7.462,-23.995c0.518,-11.729 5.169,-17.329 18.392,-31.943l164.089,-194.076l-207.362,-310.363c-16.228,-35.295 8.277,-57.504 10.365,-59.598c2.098,-2.1 28.801,-28.224 65.742,-5.692l311.657,210.988l244.007,-206.007c7.331,-6.956 16.413,-12.992 27.096,-13.64c10.596,-0.643 19.741,2.63 28.036,10.677c6.264,6.077 10.651,15.138 10.184,25.7l0,447.873c0,11.139 -5.342,21.031 -13.604,27.253c-5.704,4.295 -12.8,6.842 -20.491,6.842l-274.179,0c-22.695,0 -36.358,-17.191 -36.358,-34.981c0,-19.449 14.038,-34.981 36.327,-34.981c0,0 159.309,0.072 217.383,0.099c5.53,0.003 10.834,-2.194 14.743,-6.104c3.91,-3.911 6.104,-9.216 6.099,-14.745c-0.042,-53.871 -0.156,-198.371 -0.211,-269.113c-0.006,-7.306 -4.233,-13.95 -10.849,-17.051c-6.615,-3.1 -14.427,-2.098 -20.045,2.572c-62.888,52.274 -199.976,166.226 -199.976,166.226c0,0 -115.182,-78.194 -198.636,-134.849c-7.811,-5.303 -18.286,-4.317 -24.971,2.35c-6.685,6.667 -7.699,17.139 -2.417,24.965c54.515,80.772 128.351,190.172 128.351,190.172Z" style="fill:#252530;fill-rule:nonzero;"/><path d="M3660.236,2678.379c0,0 85.043,100.67 129.87,153.735c4.863,5.756 5.941,13.812 2.764,20.644c-3.177,6.832 -10.032,11.199 -17.567,11.19c-123.704,-0.148 -479.805,-0.572 -479.805,-0.572l0,0.003c-8.625,0 -16.499,3.2 -22.502,8.479l-3.113,3.114c-5.281,6.004 -8.48,13.877 -8.48,22.501c0,9.427 3.824,19.774 10.008,25.946c6.17,6.156 14.684,9.962 24.088,9.962l599.244,0c12.732,0.415 23.886,-4.403 31.406,-13.578c5.53,-6.748 7.877,-14.59 7.462,-23.995c-0.518,-11.729 -5.169,-17.329 -18.392,-31.943l-164.089,-194.076l207.362,-310.363c16.228,-35.295 -8.277,-57.504 -10.365,-59.598c-2.098,-2.1 -28.801,-28.224 -65.742,-5.692l-311.657,210.988l-244.007,-206.007c-7.331,-6.956 -16.413,-12.992 -27.096,-13.64c-10.596,-0.643 -19.741,2.63 -28.036,10.677c-6.264,6.077 -10.651,15.138 -10.184,25.7l0,447.873c0,11.139 5.342,21.031 13.604,27.253c5.704,4.295 12.8,6.842 20.491,6.842l274.179,0c22.695,0 36.358,-17.191 36.358,-34.981c0,-19.449 -14.038,-34.981 -36.327,-34.981c0,0 -159.309,0.072 -217.383,0.099c-5.53,0.003 -10.834,-2.194 -14.743,-6.104c-3.91,-3.911 -6.104,-9.216 -6.099,-14.745c0.042,-53.871 0.156,-198.371 0.211,-269.113c0.006,-7.306 4.233,-13.95 10.849,-17.051c6.615,-3.1 14.427,-2.098 20.045,2.572c62.888,52.274 199.976,166.226 199.976,166.226c-0,-0 115.182,-78.194 198.636,-134.849c7.811,-5.303 18.286,-4.317 24.971,2.35c6.685,6.667 7.699,17.139 2.417,24.965c-54.515,80.772 -128.351,190.172 -128.351,190.172Z" style="fill:#252530;fill-rule:nonzero;"/><path d="M4337.851,1821.621c0,0 -85.043,-100.67 -129.87,-153.735c-4.863,-5.756 -5.941,-13.812 -2.764,-20.644c3.177,-6.832 10.032,-11.199 17.567,-11.19c123.704,0.148 479.805,0.572 479.805,0.572l0,-0.003c8.625,0 16.499,-3.2 22.502,-8.479l3.113,-3.114c5.281,-6.004 8.48,-13.877 8.48,-22.501c0,-9.427 -3.824,-19.774 -10.008,-25.946c-6.17,-6.156 -14.684,-9.962 -24.088,-9.962l-599.244,0c-12.732,-0.415 -23.886,4.403 -31.406,13.578c-5.53,6.748 -7.877,14.59 -7.462,23.995c0.518,11.729 5.169,17.329 18.392,31.943l164.089,194.076l-207.362,310.363c-16.228,35.295 8.277,57.504 10.365,59.598c2.098,2.1 28.801,28.224 65.742,5.692l311.657,-210.988l244.007,206.007c7.331,6.956 16.413,12.992 27.096,13.64c10.596,0.643 19.741,-2.63 28.036,-10.677c6.264,-6.077 10.651,-15.138 10.184,-25.7l0,-447.873c0,-11.139 -5.342,-21.031 -13.604,-27.253c-5.704,-4.295 -12.8,-6.842 -20.491,-6.842l-274.179,0c-22.695,0 -36.358,17.191 -36.358,34.981c0,19.449 14.038,34.981 36.327,34.981c0,-0 159.309,-0.072 217.383,-0.099c5.53,-0.003 10.834,2.194 14.743,6.104c3.91,3.911 6.104,9.216 6.099,14.745c-0.042,53.871 -0.156,198.371 -0.211,269.113c-0.006,7.306 -4.233,13.95 -10.849,17.051c-6.615,3.1 -14.427,2.098 -20.045,-2.572c-62.888,-52.274 -199.976,-166.226 -199.976,-166.226c0,0 -115.182,78.194 -198.636,134.849c-7.811,5.303 -18.286,4.317 -24.971,-2.35c-6.685,-6.667 -7.699,-17.139 -2.417,-24.965c54.515,-80.772 128.351,-190.172 128.351,-190.172Z" style="fill:#252530;fill-rule:nonzero;"/></g><g><path d="M3660.236,3295.162c0,0 85.043,-100.67 129.87,-153.735c4.863,-5.756 5.941,-13.812 2.764,-20.644c-3.177,-6.832 -10.032,-11.199 -17.567,-11.19c-123.704,0.148 -479.805,0.572 -479.805,0.572l0,-0.003c-8.625,0 -16.499,-3.2 -22.502,-8.479l-3.113,-3.114c-5.281,-6.004 -8.48,-13.877 -8.48,-22.501c0,-9.427 3.824,-19.774 10.008,-25.946c6.17,-6.156 14.684,-9.962 24.088,-9.962l599.244,0c12.732,-0.415 23.886,4.403 31.406,13.578c5.53,6.748 7.877,14.59 7.462,23.995c-0.518,11.729 -5.169,17.329 -18.392,31.943l-164.089,194.076l207.362,310.363c16.228,35.295 -8.277,57.504 -10.365,59.598c-2.098,2.1 -28.801,28.224 -65.742,5.692l-311.657,-210.988l-244.007,206.007c-7.331,6.956 -16.413,12.992 -27.096,13.64c-10.596,0.643 -19.741,-2.63 -28.036,-10.677c-6.264,-6.077 -10.651,-15.138 -10.184,-25.7l0,-447.873c0,-11.139 5.342,-21.031 13.604,-27.253c5.704,-4.295 12.8,-6.842 20.491,-6.842l274.179,0c22.695,0 36.358,17.191 36.358,34.981c0,19.449 -14.038,34.981 -36.327,34.981c0,0 -159.309,-0.072 -217.383,-0.099c-5.53,-0.003 -10.834,2.194 -14.743,6.104c-3.91,3.911 -6.104,9.216 -6.099,14.745c0.042,53.871 0.156,198.371 0.211,269.113c0.006,7.306 4.233,13.95 10.849,17.051c6.615,3.1 14.427,2.098 20.045,-2.572c62.888,-52.274 199.976,-166.226 199.976,-166.226c0,0 115.182,78.194 198.636,134.849c7.811,5.303 18.286,4.317 24.971,-2.35c6.685,-6.667 7.699,-17.139 2.417,-24.965c-54.515,-80.772 -128.351,-190.172 -128.351,-190.172Z" style="fill:#252530;fill-rule:nonzero;"/><path d="M4337.851,4151.92c0,0 -85.043,100.67 -129.87,153.735c-4.863,5.756 -5.941,13.812 -2.764,20.644c3.177,6.832 10.032,11.199 17.567,11.19c123.704,-0.148 479.805,-0.572 479.805,-0.572l0,0.003c8.625,0 16.499,3.2 22.502,8.479l3.113,3.114c5.281,6.004 8.48,13.877 8.48,22.501c0,9.427 -3.824,19.774 -10.008,25.946c-6.17,6.156 -14.684,9.962 -24.088,9.962l-599.244,0c-12.732,0.415 -23.886,-4.403 -31.406,-13.578c-5.53,-6.748 -7.877,-14.59 -7.462,-23.995c0.518,-11.729 5.169,-17.329 18.392,-31.943l164.089,-194.076l-207.362,-310.363c-16.228,-35.295 8.277,-57.504 10.365,-59.598c2.098,-2.1 28.801,-28.224 65.742,-5.692l311.657,210.988l244.007,-206.007c7.331,-6.956 16.413,-12.992 27.096,-13.64c10.596,-0.643 19.741,2.63 28.036,10.677c6.264,6.077 10.651,15.138 10.184,25.7l0,447.873c0,11.139 -5.342,21.031 -13.604,27.253c-5.704,4.295 -12.8,6.842 -20.491,6.842l-274.179,0c-22.695,0 -36.358,-17.191 -36.358,-34.981c0,-19.449 14.038,-34.981 36.327,-34.981c0,0 159.309,0.072 217.383,0.099c5.53,0.003 10.834,-2.194 14.743,-6.104c3.91,-3.911 6.104,-9.216 6.099,-14.745c-0.042,-53.871 -0.156,-198.371 -0.211,-269.113c-0.006,-7.306 -4.233,-13.95 -10.849,-17.051c-6.615,-3.1 -14.427,-2.098 -20.045,2.572c-62.888,52.274 -199.976,166.226 -199.976,166.226c0,0 -115.182,-78.194 -198.636,-134.849c-7.811,-5.303 -18.286,-4.317 -24.971,2.35c-6.685,6.667 -7.699,17.139 -2.417,24.965c54.515,80.772 128.351,190.172 128.351,190.172Z" style="fill:#252530;fill-rule:nonzero;"/><path d="M3660.236,4151.92c0,-0 85.043,100.67 129.87,153.735c4.863,5.756 5.941,13.812 2.764,20.644c-3.177,6.832 -10.032,11.199 -17.567,11.19c-123.704,-0.148 -479.805,-0.572 -479.805,-0.572l0,0.003c-8.625,0 -16.499,3.2 -22.502,8.479l-3.113,3.114c-5.281,6.004 -8.48,13.877 -8.48,22.501c0,9.427 3.824,19.774 10.008,25.946c6.17,6.156 14.684,9.962 24.088,9.962l599.244,0c12.732,0.415 23.886,-4.403 31.406,-13.578c5.53,-6.748 7.877,-14.59 7.462,-23.995c-0.518,-11.729 -5.169,-17.329 -18.392,-31.943l-164.089,-194.076l207.362,-310.363c16.228,-35.295 -8.277,-57.504 -10.365,-59.598c-2.098,-2.1 -28.801,-28.224 -65.742,-5.692l-311.657,210.988l-244.007,-206.007c-7.331,-6.956 -16.413,-12.992 -27.096,-13.64c-10.596,-0.643 -19.741,2.63 -28.036,10.677c-6.264,6.077 -10.651,15.138 -10.184,25.7l0,447.873c0,11.139 5.342,21.031 13.604,27.253c5.704,4.295 12.8,6.842 20.491,6.842l274.179,0c22.695,0 36.358,-17.191 36.358,-34.981c0,-19.449 -14.038,-34.981 -36.327,-34.981c0,0 -159.309,0.072 -217.383,0.099c-5.53,0.003 -10.834,-2.194 -14.743,-6.104c-3.91,-3.911 -6.104,-9.216 -6.099,-14.745c0.042,-53.871 0.156,-198.371 0.211,-269.113c0.006,-7.306 4.233,-13.95 10.849,-17.051c6.615,-3.1 14.427,-2.098 20.045,2.572c62.888,52.274 199.976,166.226 199.976,166.226c-0,-0 115.182,-78.194 198.636,-134.849c7.811,-5.303 18.286,-4.317 24.971,2.35c6.685,6.667 7.699,17.139 2.417,24.965c-54.515,80.772 -128.351,190.172 -128.351,190.172Z" style="fill:#252530;fill-rule:nonzero;"/><path d="M4337.851,3295.162c0,0 -85.043,-100.67 -129.87,-153.735c-4.863,-5.756 -5.941,-13.812 -2.764,-20.644c3.177,-6.832 10.032,-11.199 17.567,-11.19c123.704,0.148 479.805,0.572 479.805,0.572l0,-0.003c8.625,0 16.499,-3.2 22.502,-8.479l3.113,-3.114c5.281,-6.004 8.48,-13.877 8.48,-22.501c0,-9.427 -3.824,-19.774 -10.008,-25.946c-6.17,-6.156 -14.684,-9.962 -24.088,-9.962l-599.244,0c-12.732,-0.415 -23.886,4.403 -31.406,13.578c-5.53,6.748 -7.877,14.59 -7.462,23.995c0.518,11.729 5.169,17.329 18.392,31.943l164.089,194.076l-207.362,310.363c-16.228,35.295 8.277,57.504 10.365,59.598c2.098,2.1 28.801,28.224 65.742,5.692l311.657,-210.988l244.007,206.007c7.331,6.956 16.413,12.992 27.096,13.64c10.596,0.643 19.741,-2.63 28.036,-10.677c6.264,-6.077 10.651,-15.138 10.184,-25.7l0,-447.873c0,-11.139 -5.342,-21.031 -13.604,-27.253c-5.704,-4.295 -12.8,-6.842 -20.491,-6.842l-274.179,0c-22.695,0 -36.358,17.191 -36.358,34.981c0,19.449 14.038,34.981 36.327,34.981c0,0 159.309,-0.072 217.383,-0.099c5.53,-0.003 10.834,2.194 14.743,6.104c3.91,3.911 6.104,9.216 6.099,14.745c-0.042,53.871 -0.156,198.371 -0.211,269.113c-0.006,7.306 -4.233,13.95 -10.849,17.051c-6.615,3.1 -14.427,2.098 -20.045,-2.572c-62.888,-52.274 -199.976,-166.226 -199.976,-166.226c0,0 -115.182,78.194 -198.636,134.849c-7.811,5.303 -18.286,4.317 -24.971,-2.35c-6.685,-6.667 -7.699,-17.139 -2.417,-24.965c54.515,-80.772 128.351,-190.172 128.351,-190.172Z" style="fill:#252530;fill-rule:nonzero;"/></g><g><path d="M5224.107,348.08c0,0 85.043,-100.67 129.87,-153.735c4.863,-5.756 5.941,-13.812 2.764,-20.644c-3.177,-6.832 -10.032,-11.199 -17.567,-11.19c-123.704,0.148 -479.805,0.572 -479.805,0.572l0,-0.003c-8.625,0 -16.499,-3.2 -22.502,-8.479l-3.113,-3.114c-5.281,-6.004 -8.48,-13.877 -8.48,-22.501c0,-9.427 3.824,-19.774 10.008,-25.946c6.17,-6.156 14.684,-9.962 24.088,-9.962l599.244,0c12.732,-0.415 23.886,4.403 31.406,13.578c5.53,6.748 7.877,14.59 7.462,23.995c-0.518,11.729 -5.169,17.329 -18.392,31.943l-164.089,194.076l207.362,310.363c16.228,35.295 -8.277,57.504 -10.365,59.598c-2.098,2.1 -28.801,28.224 -65.742,5.692l-311.657,-210.988l-244.007,206.007c-7.331,6.956 -16.413,12.992 -27.096,13.64c-10.596,0.643 -19.741,-2.63 -28.036,-10.677c-6.264,-6.077 -10.651,-15.138 -10.184,-25.7l0,-447.873c0,-11.139 5.342,-21.031 13.604,-27.253c5.704,-4.295 12.8,-6.842 20.491,-6.842l274.179,0c22.695,0 36.358,17.191 36.358,34.981c0,19.449 -14.038,34.981 -36.327,34.981c0,0 -159.309,-0.072 -217.383,-0.099c-5.53,-0.003 -10.834,2.194 -14.743,6.104c-3.91,3.911 -6.104,9.216 -6.099,14.745c0.042,53.871 0.156,198.371 0.211,269.113c0.006,7.306 4.233,13.95 10.849,17.051c6.615,3.1 14.427,2.098 20.045,-2.572c62.888,-52.274 199.976,-166.226 199.976,-166.226c0,0 115.182,78.194 198.636,134.849c7.811,5.303 18.286,4.317 24.971,-2.35c6.685,-6.667 7.699,-17.139 2.417,-24.965c-54.515,-80.772 -128.351,-190.172 -128.351,-190.172Z" style="fill:#252530;fill-rule:nonzero;"/><path d="M5901.722,1204.838c0,0 -85.043,100.67 -129.87,153.735c-4.863,5.756 -5.941,13.812 -2.764,20.644c3.177,6.832 10.032,11.199 17.567,11.19c123.704,-0.148 479.805,-0.572 479.805,-0.572l0,0.003c8.625,0 16.499,3.2 22.502,8.479l3.113,3.114c5.281,6.004 8.48,13.877 8.48,22.501c0,9.427 -3.824,19.774 -10.008,25.946c-6.17,6.156 -14.684,9.962 -24.088,9.962l-599.244,-0c-12.732,0.415 -23.886,-4.403 -31.406,-13.578c-5.53,-6.748 -7.877,-14.59 -7.462,-23.995c0.518,-11.729 5.169,-17.329 18.392,-31.943l164.089,-194.076l-207.362,-310.363c-16.228,-35.295 8.277,-57.504 10.365,-59.598c2.098,-2.1 28.801,-28.224 65.742,-5.692l311.657,210.988l244.007,-206.007c7.331,-6.956 16.413,-12.992 27.096,-13.64c10.596,-0.643 19.741,2.63 28.036,10.677c6.264,6.077 10.651,15.138 10.184,25.7l0,447.873c0,11.139 -5.342,21.031 -13.604,27.253c-5.704,4.295 -12.8,6.842 -20.491,6.842l-274.179,-0c-22.695,0 -36.358,-17.191 -36.358,-34.981c0,-19.449 14.038,-34.981 36.327,-34.981c0,0 159.309,0.072 217.383,0.099c5.53,0.003 10.834,-2.194 14.743,-6.104c3.91,-3.911 6.104,-9.216 6.099,-14.745c-0.042,-53.871 -0.156,-198.371 -0.211,-269.113c-0.006,-7.306 -4.233,-13.95 -10.849,-17.051c-6.615,-3.1 -14.427,-2.098 -20.045,2.572c-62.888,52.274 -199.976,166.226 -199.976,166.226c0,0 -115.182,-78.194 -198.636,-134.849c-7.811,-5.303 -18.286,-4.317 -24.971,2.35c-6.685,6.667 -7.699,17.139 -2.417,24.965c54.515,80.772 128.351,190.172 128.351,190.172Z" style="fill:#252530;fill-rule:nonzero;"/><path d="M5224.107,1204.838c0,0 85.043,100.67 129.87,153.735c4.863,5.756 5.941,13.812 2.764,20.644c-3.177,6.832 -10.032,11.199 -17.567,11.19c-123.704,-0.148 -479.805,-0.572 -479.805,-0.572l0,0.003c-8.625,0 -16.499,3.2 -22.502,8.479l-3.113,3.114c-5.281,6.004 -8.48,13.877 -8.48,22.501c0,9.427 3.824,19.774 10.008,25.946c6.17,6.156 14.684,9.962 24.088,9.962l599.244,-0c12.732,0.415 23.886,-4.403 31.406,-13.578c5.53,-6.748 7.877,-14.59 7.462,-23.995c-0.518,-11.729 -5.169,-17.329 -18.392,-31.943l-164.089,-194.076l207.362,-310.363c16.228,-35.295 -8.277,-57.504 -10.365,-59.598c-2.098,-2.1 -28.801,-28.224 -65.742,-5.692l-311.657,210.988l-244.007,-206.007c-7.331,-6.956 -16.413,-12.992 -27.096,-13.64c-10.596,-0.643 -19.741,2.63 -28.036,10.677c-6.264,6.077 -10.651,15.138 -10.184,25.7l0,447.873c0,11.139 5.342,21.031 13.604,27.253c5.704,4.295 12.8,6.842 20.491,6.842l274.179,-0c22.695,0 36.358,-17.191 36.358,-34.981c0,-19.449 -14.038,-34.981 -36.327,-34.981c0,0 -159.309,0.072 -217.383,0.099c-5.53,0.003 -10.834,-2.194 -14.743,-6.104c-3.91,-3.911 -6.104,-9.216 -6.099,-14.745c0.042,-53.871 0.156,-198.371 0.211,-269.113c0.006,-7.306 4.233,-13.95 10.849,-17.051c6.615,-3.1 14.427,-2.098 20.045,2.572c62.888,52.274 199.976,166.226 199.976,166.226c0,0 115.182,-78.194 198.636,-134.849c7.811,-5.303 18.286,-4.317 24.971,2.35c6.685,6.667 7.699,17.139 2.417,24.965c-54.515,80.772 -128.351,190.172 -128.351,190.172Z" style="fill:#252530;fill-rule:nonzero;"/><path d="M5901.722,348.08c0,0 -85.043,-100.67 -129.87,-153.735c-4.863,-5.756 -5.941,-13.812 -2.764,-20.644c3.177,-6.832 10.032,-11.199 17.567,-11.19c123.704,0.148 479.805,0.572 479.805,0.572l0,-0.003c8.625,0 16.499,-3.2 22.502,-8.479l3.113,-3.114c5.281,-6.004 8.48,-13.877 8.48,-22.501c0,-9.427 -3.824,-19.774 -10.008,-25.946c-6.17,-6.156 -14.684,-9.962 -24.088,-9.962l-599.244,0c-12.732,-0.415 -23.886,4.403 -31.406,13.578c-5.53,6.748 -7.877,14.59 -7.462,23.995c0.518,11.729 5.169,17.329 18.392,31.943l164.089,194.076l-207.362,310.363c-16.228,35.295 8.277,57.504 10.365,59.598c2.098,2.1 28.801,28.224 65.742,5.692l311.657,-210.988l244.007,206.007c7.331,6.956 16.413,12.992 27.096,13.64c10.596,0.643 19.741,-2.63 28.036,-10.677c6.264,-6.077 10.651,-15.138 10.184,-25.7l0,-447.873c0,-11.139 -5.342,-21.031 -13.604,-27.253c-5.704,-4.295 -12.8,-6.842 -20.491,-6.842l-274.179,0c-22.695,0 -36.358,17.191 -36.358,34.981c0,19.449 14.038,34.981 36.327,34.981c0,0 159.309,-0.072 217.383,-0.099c5.53,-0.003 10.834,2.194 14.743,6.104c3.91,3.911 6.104,9.216 6.099,14.745c-0.042,53.871 -0.156,198.371 -0.211,269.113c-0.006,7.306 -4.233,13.95 -10.849,17.051c-6.615,3.1 -14.427,2.098 -20.045,-2.572c-62.888,-52.274 -199.976,-166.226 -199.976,-166.226c0,0 -115.182,78.194 -198.636,134.849c-7.811,5.303 -18.286,4.317 -24.971,-2.35c-6.685,-6.667 -7.699,-17.139 -2.417,-24.965c54.515,-80.772 128.351,-190.172 128.351,-190.172Z" style="fill:#252530;fill-rule:nonzero;"/></g><g><path d="M6789.89,348.08c0,0 85.043,-100.67 129.87,-153.735c4.863,-5.756 5.941,-13.812 2.764,-20.644c-3.177,-6.832 -10.032,-11.199 -17.567,-11.19c-123.704,0.148 -479.805,0.572 -479.805,0.572l0,-0.003c-8.625,0 -16.499,-3.2 -22.502,-8.479l-3.113,-3.114c-5.281,-6.004 -8.48,-13.877 -8.48,-22.501c0,-9.427 3.824,-19.774 10.008,-25.946c6.17,-6.156 14.684,-9.962 24.088,-9.962l599.244,0c12.732,-0.415 23.886,4.403 31.406,13.578c5.53,6.748 7.877,14.59 7.462,23.995c-0.518,11.729 -5.169,17.329 -18.392,31.943l-164.089,194.076l207.362,310.363c16.228,35.295 -8.277,57.504 -10.365,59.598c-2.098,2.1 -28.801,28.224 -65.742,5.692l-311.657,-210.988l-244.007,206.007c-7.331,6.956 -16.413,12.992 -27.096,13.64c-10.596,0.643 -19.741,-2.63 -28.036,-10.677c-6.264,-6.077 -10.651,-15.138 -10.184,-25.7l0,-447.873c0,-11.139 5.342,-21.031 13.604,-27.253c5.704,-4.295 12.8,-6.842 20.491,-6.842l274.179,0c22.695,0 36.358,17.191 36.358,34.981c0,19.449 -14.038,34.981 -36.327,34.981c0,0 -159.309,-0.072 -217.383,-0.099c-5.53,-0.003 -10.834,2.194 -14.743,6.104c-3.91,3.911 -6.104,9.216 -6.099,14.745c0.042,53.871 0.156,198.371 0.211,269.113c0.006,7.306 4.233,13.95 10.849,17.051c6.615,3.1 14.427,2.098 20.045,-2.572c62.888,-52.274 199.976,-166.226 199.976,-166.226c0,0 115.182,78.194 198.636,134.849c7.811,5.303 18.286,4.317 24.971,-2.35c6.685,-6.667 7.699,-17.139 2.417,-24.965c-54.515,-80.772 -128.351,-190.172 -128.351,-190.172Z" style="fill:#252530;fill-rule:nonzero;"/><path d="M7467.505,1204.838c0,0 -85.043,100.67 -129.87,153.735c-4.863,5.756 -5.941,13.812 -2.764,20.644c3.177,6.832 10.032,11.199 17.567,11.19c123.704,-0.148 479.805,-0.572 479.805,-0.572l0,0.003c8.625,0 16.499,3.2 22.502,8.479l3.113,3.114c5.281,6.004 8.48,13.877 8.48,22.501c0,9.427 -3.824,19.774 -10.008,25.946c-6.17,6.156 -14.684,9.962 -24.088,9.962l-599.244,-0c-12.732,0.415 -23.886,-4.403 -31.406,-13.578c-5.53,-6.748 -7.877,-14.59 -7.462,-23.995c0.518,-11.729 5.169,-17.329 18.392,-31.943l164.089,-194.076l-207.362,-310.363c-16.228,-35.295 8.277,-57.504 10.365,-59.598c2.098,-2.1 28.801,-28.224 65.742,-5.692l311.657,210.988l244.007,-206.007c7.331,-6.956 16.413,-12.992 27.096,-13.64c10.596,-0.643 19.741,2.63 28.036,10.677c6.264,6.077 10.651,15.138 10.184,25.7l0,447.873c0,11.139 -5.342,21.031 -13.604,27.253c-5.704,4.295 -12.8,6.842 -20.491,6.842l-274.179,-0c-22.695,0 -36.358,-17.191 -36.358,-34.981c0,-19.449 14.038,-34.981 36.327,-34.981c0,0 159.309,0.072 217.383,0.099c5.53,0.003 10.834,-2.194 14.743,-6.104c3.91,-3.911 6.104,-9.216 6.099,-14.745c-0.042,-53.871 -0.156,-198.371 -0.211,-269.113c-0.006,-7.306 -4.233,-13.95 -10.849,-17.051c-6.615,-3.1 -14.427,-2.098 -20.045,2.572c-62.888,52.274 -199.976,166.226 -199.976,166.226c0,0 -115.182,-78.194 -198.636,-134.849c-7.811,-5.303 -18.286,-4.317 -24.971,2.35c-6.685,6.667 -7.699,17.139 -2.417,24.965c54.515,80.772 128.351,190.172 128.351,190.172Z" style="fill:#252530;fill-rule:nonzero;"/><path d="M6789.89,1204.838c0,0 85.043,100.67 129.87,153.735c4.863,5.756 5.941,13.812 2.764,20.644c-3.177,6.832 -10.032,11.199 -17.567,11.19c-123.704,-0.148 -479.805,-0.572 -479.805,-0.572l0,0.003c-8.625,0 -16.499,3.2 -22.502,8.479l-3.113,3.114c-5.281,6.004 -8.48,13.877 -8.48,22.501c0,9.427 3.824,19.774 10.008,25.946c6.17,6.156 14.684,9.962 24.088,9.962l599.244,-0c12.732,0.415 23.886,-4.403 31.406,-13.578c5.53,-6.748 7.877,-14.59 7.462,-23.995c-0.518,-11.729 -5.169,-17.329 -18.392,-31.943l-164.089,-194.076l207.362,-310.363c16.228,-35.295 -8.277,-57.504 -10.365,-59.598c-2.098,-2.1 -28.801,-28.224 -65.742,-5.692l-311.657,210.988l-244.007,-206.007c-7.331,-6.956 -16.413,-12.992 -27.096,-13.64c-10.596,-0.643 -19.741,2.63 -28.036,10.677c-6.264,6.077 -10.651,15.138 -10.184,25.7l0,447.873c0,11.139 5.342,21.031 13.604,27.253c5.704,4.295 12.8,6.842 20.491,6.842l274.179,-0c22.695,0 36.358,-17.191 36.358,-34.981c0,-19.449 -14.038,-34.981 -36.327,-34.981c0,0 -159.309,0.072 -217.383,0.099c-5.53,0.003 -10.834,-2.194 -14.743,-6.104c-3.91,-3.911 -6.104,-9.216 -6.099,-14.745c0.042,-53.871 0.156,-198.371 0.211,-269.113c0.006,-7.306 4.233,-13.95 10.849,-17.051c6.615,-3.1 14.427,-2.098 20.045,2.572c62.888,52.274 199.976,166.226 199.976,166.226c0,0 115.182,-78.194 198.636,-134.849c7.811,-5.303 18.286,-4.317 24.971,2.35c6.685,6.667 7.699,17.139 2.417,24.965c-54.515,80.772 -128.351,190.172 -128.351,190.172Z" style="fill:#252530;fill-rule:nonzero;"/><path d="M7467.505,348.08c0,0 -85.043,-100.67 -129.87,-153.735c-4.863,-5.756 -5.941,-13.812 -2.764,-20.644c3.177,-6.832 10.032,-11.199 17.567,-11.19c123.704,0.148 479.805,0.572 479.805,0.572l0,-0.003c8.625,0 16.499,-3.2 22.502,-8.479l3.113,-3.114c5.281,-6.004 8.48,-13.877 8.48,-22.501c0,-9.427 -3.824,-19.774 -10.008,-25.946c-6.17,-6.156 -14.684,-9.962 -24.088,-9.962l-599.244,0c-12.732,-0.415 -23.886,4.403 -31.406,13.578c-5.53,6.748 -7.877,14.59 -7.462,23.995c0.518,11.729 5.169,17.329 18.392,31.943l164.089,194.076l-207.362,310.363c-16.228,35.295 8.277,57.504 10.365,59.598c2.098,2.1 28.801,28.224 65.742,5.692l311.657,-210.988l244.007,206.007c7.331,6.956 16.413,12.992 27.096,13.64c10.596,0.643 19.741,-2.63 28.036,-10.677c6.264,-6.077 10.651,-15.138 10.184,-25.7l0,-447.873c0,-11.139 -5.342,-21.031 -13.604,-27.253c-5.704,-4.295 -12.8,-6.842 -20.491,-6.842l-274.179,0c-22.695,0 -36.358,17.191 -36.358,34.981c0,19.449 14.038,34.981 36.327,34.981c0,0 159.309,-0.072 217.383,-0.099c5.53,-0.003 10.834,2.194 14.743,6.104c3.91,3.911 6.104,9.216 6.099,14.745c-0.042,53.871 -0.156,198.371 -0.211,269.113c-0.006,7.306 -4.233,13.95 -10.849,17.051c-6.615,3.1 -14.427,2.098 -20.045,-2.572c-62.888,-52.274 -199.976,-166.226 -199.976,-166.226c0,0 -115.182,78.194 -198.636,134.849c-7.811,5.303 -18.286,4.317 -24.971,-2.35c-6.685,-6.667 -7.699,-17.139 -2.417,-24.965c54.515,-80.772 128.351,-190.172 128.351,-190.172Z" style="fill:#252530;fill-rule:nonzero;"/></g><g><path d="M5224.107,1821.621c0,0 85.043,-100.67 129.87,-153.735c4.863,-5.756 5.941,-13.812 2.764,-20.644c-3.177,-6.832 -10.032,-11.199 -17.567,-11.19c-123.704,0.148 -479.805,0.572 -479.805,0.572l0,-0.003c-8.625,0 -16.499,-3.2 -22.502,-8.479l-3.113,-3.114c-5.281,-6.004 -8.48,-13.877 -8.48,-22.501c0,-9.427 3.824,-19.774 10.008,-25.946c6.17,-6.156 14.684,-9.962 24.088,-9.962l599.244,0c12.732,-0.415 23.886,4.403 31.406,13.578c5.53,6.748 7.877,14.59 7.462,23.995c-0.518,11.729 -5.169,17.329 -18.392,31.943l-164.089,194.076l207.362,310.363c16.228,35.295 -8.277,57.504 -10.365,59.598c-2.098,2.1 -28.801,28.224 -65.742,5.692l-311.657,-210.988l-244.007,206.007c-7.331,6.956 -16.413,12.992 -27.096,13.64c-10.596,0.643 -19.741,-2.63 -28.036,-10.677c-6.264,-6.077 -10.651,-15.138 -10.184,-25.7l0,-447.873c0,-11.139 5.342,-21.031 13.604,-27.253c5.704,-4.295 12.8,-6.842 20.491,-6.842l274.179,0c22.695,0 36.358,17.191 36.358,34.981c0,19.449 -14.038,34.981 -36.327,34.981c0,-0 -159.309,-0.072 -217.383,-0.099c-5.53,-0.003 -10.834,2.194 -14.743,6.104c-3.91,3.911 -6.104,9.216 -6.099,14.745c0.042,53.871 0.156,198.371 0.211,269.113c0.006,7.306 4.233,13.95 10.849,17.051c6.615,3.1 14.427,2.098 20.045,-2.572c62.888,-52.274 199.976,-166.226 199.976,-166.226c0,0 115.182,78.194 198.636,134.849c7.811,5.303 18.286,4.317 24.971,-2.35c6.685,-6.667 7.699,-17.139 2.417,-24.965c-54.515,-80.772 -128.351,-190.172 -128.351,-190.172Z" style="fill:#252530;fill-rule:nonzero;"/><path d="M5901.722,2678.379c0,0 -85.043,100.67 -129.87,153.735c-4.863,5.756 -5.941,13.812 -2.764,20.644c3.177,6.832 10.032,11.199 17.567,11.19c123.704,-0.148 479.805,-0.572 479.805,-0.572l0,0.003c8.625,0 16.499,3.2 22.502,8.479l3.113,3.114c5.281,6.004 8.48,13.877 8.48,22.501c0,9.427 -3.824,19.774 -10.008,25.946c-6.17,6.156 -14.684,9.962 -24.088,9.962l-599.244,0c-12.732,0.415 -23.886,-4.403 -31.406,-13.578c-5.53,-6.748 -7.877,-14.59 -7.462,-23.995c0.518,-11.729 5.169,-17.329 18.392,-31.943l164.089,-194.076l-207.362,-310.363c-16.228,-35.295 8.277,-57.504 10.365,-59.598c2.098,-2.1 28.801,-28.224 65.742,-5.692l311.657,210.988l244.007,-206.007c7.331,-6.956 16.413,-12.992 27.096,-13.64c10.596,-0.643 19.741,2.63 28.036,10.677c6.264,6.077 10.651,15.138 10.184,25.7l0,447.873c0,11.139 -5.342,21.031 -13.604,27.253c-5.704,4.295 -12.8,6.842 -20.491,6.842l-274.179,0c-22.695,0 -36.358,-17.191 -36.358,-34.981c0,-19.449 14.038,-34.981 36.327,-34.981c0,0 159.309,0.072 217.383,0.099c5.53,0.003 10.834,-2.194 14.743,-6.104c3.91,-3.911 6.104,-9.216 6.099,-14.745c-0.042,-53.871 -0.156,-198.371 -0.211,-269.113c-0.006,-7.306 -4.233,-13.95 -10.849,-17.051c-6.615,-3.1 -14.427,-2.098 -20.045,2.572c-62.888,52.274 -199.976,166.226 -199.976,166.226c0,0 -115.182,-78.194 -198.636,-134.849c-7.811,-5.303 -18.286,-4.317 -24.971,2.35c-6.685,6.667 -7.699,17.139 -2.417,24.965c54.515,80.772 128.351,190.172 128.351,190.172Z" style="fill:#252530;fill-rule:nonzero;"/><path d="M5224.107,2678.379c0,0 85.043,100.67 129.87,153.735c4.863,5.756 5.941,13.812 2.764,20.644c-3.177,6.832 -10.032,11.199 -17.567,11.19c-123.704,-0.148 -479.805,-0.572 -479.805,-0.572l0,0.003c-8.625,0 -16.499,3.2 -22.502,8.479l-3.113,3.114c-5.281,6.004 -8.48,13.877 -8.48,22.501c0,9.427 3.824,19.774 10.008,25.946c6.17,6.156 14.684,9.962 24.088,9.962l599.244,0c12.732,0.415 23.886,-4.403 31.406,-13.578c5.53,-6.748 7.877,-14.59 7.462,-23.995c-0.518,-11.729 -5.169,-17.329 -18.392,-31.943l-164.089,-194.076l207.362,-310.363c16.228,-35.295 -8.277,-57.504 -10.365,-59.598c-2.098,-2.1 -28.801,-28.224 -65.742,-5.692l-311.657,210.988l-244.007,-206.007c-7.331,-6.956 -16.413,-12.992 -27.096,-13.64c-10.596,-0.643 -19.741,2.63 -28.036,10.677c-6.264,6.077 -10.651,15.138 -10.184,25.7l0,447.873c0,11.139 5.342,21.031 13.604,27.253c5.704,4.295 12.8,6.842 20.491,6.842l274.179,0c22.695,0 36.358,-17.191 36.358,-34.981c0,-19.449 -14.038,-34.981 -36.327,-34.981c0,0 -159.309,0.072 -217.383,0.099c-5.53,0.003 -10.834,-2.194 -14.743,-6.104c-3.91,-3.911 -6.104,-9.216 -6.099,-14.745c0.042,-53.871 0.156,-198.371 0.211,-269.113c0.006,-7.306 4.233,-13.95 10.849,-17.051c6.615,-3.1 14.427,-2.098 20.045,2.572c62.888,52.274 199.976,166.226 199.976,166.226c0,0 115.182,-78.194 198.636,-134.849c7.811,-5.303 18.286,-4.317 24.971,2.35c6.685,6.667 7.699,17.139 2.417,24.965c-54.515,80.772 -128.351,190.172 -128.351,190.172Z" style="fill:#252530;fill-rule:nonzero;"/><path d="M5901.722,1821.621c0,0 -85.043,-100.67 -129.87,-153.735c-4.863,-5.756 -5.941,-13.812 -2.764,-20.644c3.177,-6.832 10.032,-11.199 17.567,-11.19c123.704,0.148 479.805,0.572 479.805,0.572l0,-0.003c8.625,0 16.499,-3.2 22.502,-8.479l3.113,-3.114c5.281,-6.004 8.48,-13.877 8.48,-22.501c0,-9.427 -3.824,-19.774 -10.008,-25.946c-6.17,-6.156 -14.684,-9.962 -24.088,-9.962l-599.244,0c-12.732,-0.415 -23.886,4.403 -31.406,13.578c-5.53,6.748 -7.877,14.59 -7.462,23.995c0.518,11.729 5.169,17.329 18.392,31.943l164.089,194.076l-207.362,310.363c-16.228,35.295 8.277,57.504 10.365,59.598c2.098,2.1 28.801,28.224 65.742,5.692l311.657,-210.988l244.007,206.007c7.331,6.956 16.413,12.992 27.096,13.64c10.596,0.643 19.741,-2.63 28.036,-10.677c6.264,-6.077 10.651,-15.138 10.184,-25.7l0,-447.873c0,-11.139 -5.342,-21.031 -13.604,-27.253c-5.704,-4.295 -12.8,-6.842 -20.491,-6.842l-274.179,0c-22.695,0 -36.358,17.191 -36.358,34.981c0,19.449 14.038,34.981 36.327,34.981c0,-0 159.309,-0.072 217.383,-0.099c5.53,-0.003 10.834,2.194 14.743,6.104c3.91,3.911 6.104,9.216 6.099,14.745c-0.042,53.871 -0.156,198.371 -0.211,269.113c-0.006,7.306 -4.233,13.95 -10.849,17.051c-6.615,3.1 -14.427,2.098 -20.045,-2.572c-62.888,-52.274 -199.976,-166.226 -199.976,-166.226c0,0 -115.182,78.194 -198.636,134.849c-7.811,5.303 -18.286,4.317 -24.971,-2.35c-6.685,-6.667 -7.699,-17.139 -2.417,-24.965c54.515,-80.772 128.351,-190.172 128.351,-190.172Z" style="fill:#252530;fill-rule:nonzero;"/></g><g><path d="M6789.89,1821.621c0,0 85.043,-100.67 129.87,-153.735c4.863,-5.756 5.941,-13.812 2.764,-20.644c-3.177,-6.832 -10.032,-11.199 -17.567,-11.19c-123.704,0.148 -479.805,0.572 -479.805,0.572l0,-0.003c-8.625,0 -16.499,-3.2 -22.502,-8.479l-3.113,-3.114c-5.281,-6.004 -8.48,-13.877 -8.48,-22.501c0,-9.427 3.824,-19.774 10.008,-25.946c6.17,-6.156 14.684,-9.962 24.088,-9.962l599.244,0c12.732,-0.415 23.886,4.403 31.406,13.578c5.53,6.748 7.877,14.59 7.462,23.995c-0.518,11.729 -5.169,17.329 -18.392,31.943l-164.089,194.076l207.362,310.363c16.228,35.295 -8.277,57.504 -10.365,59.598c-2.098,2.1 -28.801,28.224 -65.742,5.692l-311.657,-210.988l-244.007,206.007c-7.331,6.956 -16.413,12.992 -27.096,13.64c-10.596,0.643 -19.741,-2.63 -28.036,-10.677c-6.264,-6.077 -10.651,-15.138 -10.184,-25.7l0,-447.873c0,-11.139 5.342,-21.031 13.604,-27.253c5.704,-4.295 12.8,-6.842 20.491,-6.842l274.179,0c22.695,0 36.358,17.191 36.358,34.981c0,19.449 -14.038,34.981 -36.327,34.981c0,-0 -159.309,-0.072 -217.383,-0.099c-5.53,-0.003 -10.834,2.194 -14.743,6.104c-3.91,3.911 -6.104,9.216 -6.099,14.745c0.042,53.871 0.156,198.371 0.211,269.113c0.006,7.306 4.233,13.95 10.849,17.051c6.615,3.1 14.427,2.098 20.045,-2.572c62.888,-52.274 199.976,-166.226 199.976,-166.226c0,-0 115.182,78.194 198.636,134.849c7.811,5.303 18.286,4.317 24.971,-2.35c6.685,-6.667 7.699,-17.139 2.417,-24.965c-54.515,-80.772 -128.351,-190.172 -128.351,-190.172Z" style="fill:#252530;fill-rule:nonzero;"/><path d="M7467.505,2678.379c0,0 -85.043,100.67 -129.87,153.735c-4.863,5.756 -5.941,13.812 -2.764,20.644c3.177,6.832 10.032,11.199 17.567,11.19c123.704,-0.148 479.805,-0.572 479.805,-0.572l0,0.003c8.625,0 16.499,3.2 22.502,8.479l3.113,3.114c5.281,6.004 8.48,13.877 8.48,22.501c0,9.427 -3.824,19.774 -10.008,25.946c-6.17,6.156 -14.684,9.962 -24.088,9.962l-599.244,0c-12.732,0.415 -23.886,-4.403 -31.406,-13.578c-5.53,-6.748 -7.877,-14.59 -7.462,-23.995c0.518,-11.729 5.169,-17.329 18.392,-31.943l164.089,-194.076l-207.362,-310.363c-16.228,-35.295 8.277,-57.504 10.365,-59.598c2.098,-2.1 28.801,-28.224 65.742,-5.692l311.657,210.988l244.007,-206.007c7.331,-6.956 16.413,-12.992 27.096,-13.64c10.596,-0.643 19.741,2.63 28.036,10.677c6.264,6.077 10.651,15.138 10.184,25.7l0,447.873c0,11.139 -5.342,21.031 -13.604,27.253c-5.704,4.295 -12.8,6.842 -20.491,6.842l-274.179,0c-22.695,0 -36.358,-17.191 -36.358,-34.981c0,-19.449 14.038,-34.981 36.327,-34.981c0,0 159.309,0.072 217.383,0.099c5.53,0.003 10.834,-2.194 14.743,-6.104c3.91,-3.911 6.104,-9.216 6.099,-14.745c-0.042,-53.871 -0.156,-198.371 -0.211,-269.113c-0.006,-7.306 -4.233,-13.95 -10.849,-17.051c-6.615,-3.1 -14.427,-2.098 -20.045,2.572c-62.888,52.274 -199.976,166.226 -199.976,166.226c0,0 -115.182,-78.194 -198.636,-134.849c-7.811,-5.303 -18.286,-4.317 -24.971,2.35c-6.685,6.667 -7.699,17.139 -2.417,24.965c54.515,80.772 128.351,190.172 128.351,190.172Z" style="fill:#252530;fill-rule:nonzero;"/><path d="M6789.89,2678.379c0,0 85.043,100.67 129.87,153.735c4.863,5.756 5.941,13.812 2.764,20.644c-3.177,6.832 -10.032,11.199 -17.567,11.19c-123.704,-0.148 -479.805,-0.572 -479.805,-0.572l0,0.003c-8.625,0 -16.499,3.2 -22.502,8.479l-3.113,3.114c-5.281,6.004 -8.48,13.877 -8.48,22.501c0,9.427 3.824,19.774 10.008,25.946c6.17,6.156 14.684,9.962 24.088,9.962l599.244,0c12.732,0.415 23.886,-4.403 31.406,-13.578c5.53,-6.748 7.877,-14.59 7.462,-23.995c-0.518,-11.729 -5.169,-17.329 -18.392,-31.943l-164.089,-194.076l207.362,-310.363c16.228,-35.295 -8.277,-57.504 -10.365,-59.598c-2.098,-2.1 -28.801,-28.224 -65.742,-5.692l-311.657,210.988l-244.007,-206.007c-7.331,-6.956 -16.413,-12.992 -27.096,-13.64c-10.596,-0.643 -19.741,2.63 -28.036,10.677c-6.264,6.077 -10.651,15.138 -10.184,25.7l0,447.873c0,11.139 5.342,21.031 13.604,27.253c5.704,4.295 12.8,6.842 20.491,6.842l274.179,0c22.695,0 36.358,-17.191 36.358,-34.981c0,-19.449 -14.038,-34.981 -36.327,-34.981c0,0 -159.309,0.072 -217.383,0.099c-5.53,0.003 -10.834,-2.194 -14.743,-6.104c-3.91,-3.911 -6.104,-9.216 -6.099,-14.745c0.042,-53.871 0.156,-198.371 0.211,-269.113c0.006,-7.306 4.233,-13.95 10.849,-17.051c6.615,-3.1 14.427,-2.098 20.045,2.572c62.888,52.274 199.976,166.226 199.976,166.226c0,0 115.182,-78.194 198.636,-134.849c7.811,-5.303 18.286,-4.317 24.971,2.35c6.685,6.667 7.699,17.139 2.417,24.965c-54.515,80.772 -128.351,190.172 -128.351,190.172Z" style="fill:#252530;fill-rule:nonzero;"/><path d="M7467.505,1821.621c0,0 -85.043,-100.67 -129.87,-153.735c-4.863,-5.756 -5.941,-13.812 -2.764,-20.644c3.177,-6.832 10.032,-11.199 17.567,-11.19c123.704,0.148 479.805,0.572 479.805,0.572l0,-0.003c8.625,0 16.499,-3.2 22.502,-8.479l3.113,-3.114c5.281,-6.004 8.48,-13.877 8.48,-22.501c0,-9.427 -3.824,-19.774 -10.008,-25.946c-6.17,-6.156 -14.684,-9.962 -24.088,-9.962l-599.244,0c-12.732,-0.415 -23.886,4.403 -31.406,13.578c-5.53,6.748 -7.877,14.59 -7.462,23.995c0.518,11.729 5.169,17.329 18.392,31.943l164.089,194.076l-207.362,310.363c-16.228,35.295 8.277,57.504 10.365,59.598c2.098,2.1 28.801,28.224 65.742,5.692l311.657,-210.988l244.007,206.007c7.331,6.956 16.413,12.992 27.096,13.64c10.596,0.643 19.741,-2.63 28.036,-10.677c6.264,-6.077 10.651,-15.138 10.184,-25.7l0,-447.873c0,-11.139 -5.342,-21.031 -13.604,-27.253c-5.704,-4.295 -12.8,-6.842 -20.491,-6.842l-274.179,0c-22.695,0 -36.358,17.191 -36.358,34.981c0,19.449 14.038,34.981 36.327,34.981c0,-0 159.309,-0.072 217.383,-0.099c5.53,-0.003 10.834,2.194 14.743,6.104c3.91,3.911 6.104,9.216 6.099,14.745c-0.042,53.871 -0.156,198.371 -0.211,269.113c-0.006,7.306 -4.233,13.95 -10.849,17.051c-6.615,3.1 -14.427,2.098 -20.045,-2.572c-62.888,-52.274 -199.976,-166.226 -199.976,-166.226c0,-0 -115.182,78.194 -198.636,134.849c-7.811,5.303 -18.286,4.317 -24.971,-2.35c-6.685,-6.667 -7.699,-17.139 -2.417,-24.965c54.515,-80.772 128.351,-190.172 128.351,-190.172Z" style="fill:#252530;fill-rule:nonzero;"/></g><g><path d="M5224.107,3295.162c0,0 85.043,-100.67 129.87,-153.735c4.863,-5.756 5.941,-13.812 2.764,-20.644c-3.177,-6.832 -10.032,-11.199 -17.567,-11.19c-123.704,0.148 -479.805,0.572 -479.805,0.572l0,-0.003c-8.625,0 -16.499,-3.2 -22.502,-8.479l-3.113,-3.114c-5.281,-6.004 -8.48,-13.877 -8.48,-22.501c0,-9.427 3.824,-19.774 10.008,-25.946c6.17,-6.156 14.684,-9.962 24.088,-9.962l599.244,0c12.732,-0.415 23.886,4.403 31.406,13.578c5.53,6.748 7.877,14.59 7.462,23.995c-0.518,11.729 -5.169,17.329 -18.392,31.943l-164.089,194.076l207.362,310.363c16.228,35.295 -8.277,57.504 -10.365,59.598c-2.098,2.1 -28.801,28.224 -65.742,5.692l-311.657,-210.988l-244.007,206.007c-7.331,6.956 -16.413,12.992 -27.096,13.64c-10.596,0.643 -19.741,-2.63 -28.036,-10.677c-6.264,-6.077 -10.651,-15.138 -10.184,-25.7l0,-447.873c0,-11.139 5.342,-21.031 13.604,-27.253c5.704,-4.295 12.8,-6.842 20.491,-6.842l274.179,0c22.695,0 36.358,17.191 36.358,34.981c0,19.449 -14.038,34.981 -36.327,34.981c0,0 -159.309,-0.072 -217.383,-0.099c-5.53,-0.003 -10.834,2.194 -14.743,6.104c-3.91,3.911 -6.104,9.216 -6.099,14.745c0.042,53.871 0.156,198.371 0.211,269.113c0.006,7.306 4.233,13.95 10.849,17.051c6.615,3.1 14.427,2.098 20.045,-2.572c62.888,-52.274 199.976,-166.226 199.976,-166.226c0,0 115.182,78.194 198.636,134.849c7.811,5.303 18.286,4.317 24.971,-2.35c6.685,-6.667 7.699,-17.139 2.417,-24.965c-54.515,-80.772 -128.351,-190.172 -128.351,-190.172Z" style="fill:#252530;fill-rule:nonzero;"/><path d="M5901.722,4151.92c0,-0 -85.043,100.67 -129.87,153.735c-4.863,5.756 -5.941,13.812 -2.764,20.644c3.177,6.832 10.032,11.199 17.567,11.19c123.704,-0.148 479.805,-0.572 479.805,-0.572l0,0.003c8.625,0 16.499,3.2 22.502,8.479l3.113,3.114c5.281,6.004 8.48,13.877 8.48,22.501c0,9.427 -3.824,19.774 -10.008,25.946c-6.17,6.156 -14.684,9.962 -24.088,9.962l-599.244,0c-12.732,0.415 -23.886,-4.403 -31.406,-13.578c-5.53,-6.748 -7.877,-14.59 -7.462,-23.995c0.518,-11.729 5.169,-17.329 18.392,-31.943l164.089,-194.076l-207.362,-310.363c-16.228,-35.295 8.277,-57.504 10.365,-59.598c2.098,-2.1 28.801,-28.224 65.742,-5.692l311.657,210.988l244.007,-206.007c7.331,-6.956 16.413,-12.992 27.096,-13.64c10.596,-0.643 19.741,2.63 28.036,10.677c6.264,6.077 10.651,15.138 10.184,25.7l0,447.873c0,11.139 -5.342,21.031 -13.604,27.253c-5.704,4.295 -12.8,6.842 -20.491,6.842l-274.179,0c-22.695,-0 -36.358,-17.191 -36.358,-34.981c0,-19.449 14.038,-34.981 36.327,-34.981c0,0 159.309,0.072 217.383,0.099c5.53,0.003 10.834,-2.194 14.743,-6.104c3.91,-3.911 6.104,-9.216 6.099,-14.745c-0.042,-53.871 -0.156,-198.371 -0.211,-269.113c-0.006,-7.306 -4.233,-13.95 -10.849,-17.051c-6.615,-3.1 -14.427,-2.098 -20.045,2.572c-62.888,52.274 -199.976,166.226 -199.976,166.226c0,0 -115.182,-78.194 -198.636,-134.849c-7.811,-5.303 -18.286,-4.317 -24.971,2.35c-6.685,6.667 -7.699,17.139 -2.417,24.965c54.515,80.772 128.351,190.172 128.351,190.172Z" style="fill:#252530;fill-rule:nonzero;"/><path d="M5224.107,4151.92c0,0 85.043,100.67 129.87,153.735c4.863,5.756 5.941,13.812 2.764,20.644c-3.177,6.832 -10.032,11.199 -17.567,11.19c-123.704,-0.148 -479.805,-0.572 -479.805,-0.572l0,0.003c-8.625,0 -16.499,3.2 -22.502,8.479l-3.113,3.114c-5.281,6.004 -8.48,13.877 -8.48,22.501c0,9.427 3.824,19.774 10.008,25.946c6.17,6.156 14.684,9.962 24.088,9.962l599.244,0c12.732,0.415 23.886,-4.403 31.406,-13.578c5.53,-6.748 7.877,-14.59 7.462,-23.995c-0.518,-11.729 -5.169,-17.329 -18.392,-31.943l-164.089,-194.076l207.362,-310.363c16.228,-35.295 -8.277,-57.504 -10.365,-59.598c-2.098,-2.1 -28.801,-28.224 -65.742,-5.692l-311.657,210.988l-244.007,-206.007c-7.331,-6.956 -16.413,-12.992 -27.096,-13.64c-10.596,-0.643 -19.741,2.63 -28.036,10.677c-6.264,6.077 -10.651,15.138 -10.184,25.7l0,447.873c0,11.139 5.342,21.031 13.604,27.253c5.704,4.295 12.8,6.842 20.491,6.842l274.179,0c22.695,0 36.358,-17.191 36.358,-34.981c0,-19.449 -14.038,-34.981 -36.327,-34.981c0,0 -159.309,0.072 -217.383,0.099c-5.53,0.003 -10.834,-2.194 -14.743,-6.104c-3.91,-3.911 -6.104,-9.216 -6.099,-14.745c0.042,-53.871 0.156,-198.371 0.211,-269.113c0.006,-7.306 4.233,-13.95 10.849,-17.051c6.615,-3.1 14.427,-2.098 20.045,2.572c62.888,52.274 199.976,166.226 199.976,166.226c0,0 115.182,-78.194 198.636,-134.849c7.811,-5.303 18.286,-4.317 24.971,2.35c6.685,6.667 7.699,17.139 2.417,24.965c-54.515,80.772 -128.351,190.172 -128.351,190.172Z" style="fill:#252530;fill-rule:nonzero;"/><path d="M5901.722,3295.162c0,0 -85.043,-100.67 -129.87,-153.735c-4.863,-5.756 -5.941,-13.812 -2.764,-20.644c3.177,-6.832 10.032,-11.199 17.567,-11.19c123.704,0.148 479.805,0.572 479.805,0.572l0,-0.003c8.625,0 16.499,-3.2 22.502,-8.479l3.113,-3.114c5.281,-6.004 8.48,-13.877 8.48,-22.501c0,-9.427 -3.824,-19.774 -10.008,-25.946c-6.17,-6.156 -14.684,-9.962 -24.088,-9.962l-599.244,0c-12.732,-0.415 -23.886,4.403 -31.406,13.578c-5.53,6.748 -7.877,14.59 -7.462,23.995c0.518,11.729 5.169,17.329 18.392,31.943l164.089,194.076l-207.362,310.363c-16.228,35.295 8.277,57.504 10.365,59.598c2.098,2.1 28.801,28.224 65.742,5.692l311.657,-210.988l244.007,206.007c7.331,6.956 16.413,12.992 27.096,13.64c10.596,0.643 19.741,-2.63 28.036,-10.677c6.264,-6.077 10.651,-15.138 10.184,-25.7l0,-447.873c0,-11.139 -5.342,-21.031 -13.604,-27.253c-5.704,-4.295 -12.8,-6.842 -20.491,-6.842l-274.179,0c-22.695,0 -36.358,17.191 -36.358,34.981c0,19.449 14.038,34.981 36.327,34.981c0,0 159.309,-0.072 217.383,-0.099c5.53,-0.003 10.834,2.194 14.743,6.104c3.91,3.911 6.104,9.216 6.099,14.745c-0.042,53.871 -0.156,198.371 -0.211,269.113c-0.006,7.306 -4.233,13.95 -10.849,17.051c-6.615,3.1 -14.427,2.098 -20.045,-2.572c-62.888,-52.274 -199.976,-166.226 -199.976,-166.226c0,0 -115.182,78.194 -198.636,134.849c-7.811,5.303 -18.286,4.317 -24.971,-2.35c-6.685,-6.667 -7.699,-17.139 -2.417,-24.965c54.515,-80.772 128.351,-190.172 128.351,-190.172Z" style="fill:#252530;fill-rule:nonzero;"/></g><g><path d="M6789.89,3295.162c0,0 85.043,-100.67 129.87,-153.735c4.863,-5.756 5.941,-13.812 2.764,-20.644c-3.177,-6.832 -10.032,-11.199 -17.567,-11.19c-123.704,0.148 -479.805,0.572 -479.805,0.572l0,-0.003c-8.625,0 -16.499,-3.2 -22.502,-8.479l-3.113,-3.114c-5.281,-6.004 -8.48,-13.877 -8.48,-22.501c0,-9.427 3.824,-19.774 10.008,-25.946c6.17,-6.156 14.684,-9.962 24.088,-9.962l599.244,0c12.732,-0.415 23.886,4.403 31.406,13.578c5.53,6.748 7.877,14.59 7.462,23.995c-0.518,11.729 -5.169,17.329 -18.392,31.943l-164.089,194.076l207.362,310.363c16.228,35.295 -8.277,57.504 -10.365,59.598c-2.098,2.1 -28.801,28.224 -65.742,5.692l-311.657,-210.988l-244.007,206.007c-7.331,6.956 -16.413,12.992 -27.096,13.64c-10.596,0.643 -19.741,-2.63 -28.036,-10.677c-6.264,-6.077 -10.651,-15.138 -10.184,-25.7l0,-447.873c0,-11.139 5.342,-21.031 13.604,-27.253c5.704,-4.295 12.8,-6.842 20.491,-6.842l274.179,0c22.695,0 36.358,17.191 36.358,34.981c0,19.449 -14.038,34.981 -36.327,34.981c0,0 -159.309,-0.072 -217.383,-0.099c-5.53,-0.003 -10.834,2.194 -14.743,6.104c-3.91,3.911 -6.104,9.216 -6.099,14.745c0.042,53.871 0.156,198.371 0.211,269.113c0.006,7.306 4.233,13.95 10.849,17.051c6.615,3.1 14.427,2.098 20.045,-2.572c62.888,-52.274 199.976,-166.226 199.976,-166.226c0,0 115.182,78.194 198.636,134.849c7.811,5.303 18.286,4.317 24.971,-2.35c6.685,-6.667 7.699,-17.139 2.417,-24.965c-54.515,-80.772 -128.351,-190.172 -128.351,-190.172Z" style="fill:#252530;fill-rule:nonzero;"/><path d="M7467.505,4151.92c0,-0 -85.043,100.67 -129.87,153.735c-4.863,5.756 -5.941,13.812 -2.764,20.644c3.177,6.832 10.032,11.199 17.567,11.19c123.704,-0.148 479.805,-0.572 479.805,-0.572l0,0.003c8.625,0 16.499,3.2 22.502,8.479l3.113,3.114c5.281,6.004 8.48,13.877 8.48,22.501c0,9.427 -3.824,19.774 -10.008,25.946c-6.17,6.156 -14.684,9.962 -24.088,9.962l-599.244,0c-12.732,0.415 -23.886,-4.403 -31.406,-13.578c-5.53,-6.748 -7.877,-14.59 -7.462,-23.995c0.518,-11.729 5.169,-17.329 18.392,-31.943l164.089,-194.076l-207.362,-310.363c-16.228,-35.295 8.277,-57.504 10.365,-59.598c2.098,-2.1 28.801,-28.224 65.742,-5.692l311.657,210.988l244.007,-206.007c7.331,-6.956 16.413,-12.992 27.096,-13.64c10.596,-0.643 19.741,2.63 28.036,10.677c6.264,6.077 10.651,15.138 10.184,25.7l0,447.873c0,11.139 -5.342,21.031 -13.604,27.253c-5.704,4.295 -12.8,6.842 -20.491,6.842l-274.179,0c-22.695,0 -36.358,-17.191 -36.358,-34.981c0,-19.449 14.038,-34.981 36.327,-34.981c0,0 159.309,0.072 217.383,0.099c5.53,0.003 10.834,-2.194 14.743,-6.104c3.91,-3.911 6.104,-9.216 6.099,-14.745c-0.042,-53.871 -0.156,-198.371 -0.211,-269.113c-0.006,-7.306 -4.233,-13.95 -10.849,-17.051c-6.615,-3.1 -14.427,-2.098 -20.045,2.572c-62.888,52.274 -199.976,166.226 -199.976,166.226c0,-0 -115.182,-78.194 -198.636,-134.849c-7.811,-5.303 -18.286,-4.317 -24.971,2.35c-6.685,6.667 -7.699,17.139 -2.417,24.965c54.515,80.772 128.351,190.172 128.351,190.172Z" style="fill:#252530;fill-rule:nonzero;"/><path d="M6789.89,4151.92c0,-0 85.043,100.67 129.87,153.735c4.863,5.756 5.941,13.812 2.764,20.644c-3.177,6.832 -10.032,11.199 -17.567,11.19c-123.704,-0.148 -479.805,-0.572 -479.805,-0.572l0,0.003c-8.625,0 -16.499,3.2 -22.502,8.479l-3.113,3.114c-5.281,6.004 -8.48,13.877 -8.48,22.501c0,9.427 3.824,19.774 10.008,25.946c6.17,6.156 14.684,9.962 24.088,9.962l599.244,0c12.732,0.415 23.886,-4.403 31.406,-13.578c5.53,-6.748 7.877,-14.59 7.462,-23.995c-0.518,-11.729 -5.169,-17.329 -18.392,-31.943l-164.089,-194.076l207.362,-310.363c16.228,-35.295 -8.277,-57.504 -10.365,-59.598c-2.098,-2.1 -28.801,-28.224 -65.742,-5.692l-311.657,210.988l-244.007,-206.007c-7.331,-6.956 -16.413,-12.992 -27.096,-13.64c-10.596,-0.643 -19.741,2.63 -28.036,10.677c-6.264,6.077 -10.651,15.138 -10.184,25.7l0,447.873c0,11.139 5.342,21.031 13.604,27.253c5.704,4.295 12.8,6.842 20.491,6.842l274.179,0c22.695,0 36.358,-17.191 36.358,-34.981c0,-19.449 -14.038,-34.981 -36.327,-34.981c0,0 -159.309,0.072 -217.383,0.099c-5.53,0.003 -10.834,-2.194 -14.743,-6.104c-3.91,-3.911 -6.104,-9.216 -6.099,-14.745c0.042,-53.871 0.156,-198.371 0.211,-269.113c0.006,-7.306 4.233,-13.95 10.849,-17.051c6.615,-3.1 14.427,-2.098 20.045,2.572c62.888,52.274 199.976,166.226 199.976,166.226c0,-0 115.182,-78.194 198.636,-134.849c7.811,-5.303 18.286,-4.317 24.971,2.35c6.685,6.667 7.699,17.139 2.417,24.965c-54.515,80.772 -128.351,190.172 -128.351,190.172Z" style="fill:#252530;fill-rule:nonzero;"/><path d="M7467.505,3295.162c0,0 -85.043,-100.67 -129.87,-153.735c-4.863,-5.756 -5.941,-13.812 -2.764,-20.644c3.177,-6.832 10.032,-11.199 17.567,-11.19c123.704,0.148 479.805,0.572 479.805,0.572l0,-0.003c8.625,0 16.499,-3.2 22.502,-8.479l3.113,-3.114c5.281,-6.004 8.48,-13.877 8.48,-22.501c0,-9.427 -3.824,-19.774 -10.008,-25.946c-6.17,-6.156 -14.684,-9.962 -24.088,-9.962l-599.244,0c-12.732,-0.415 -23.886,4.403 -31.406,13.578c-5.53,6.748 -7.877,14.59 -7.462,23.995c0.518,11.729 5.169,17.329 18.392,31.943l164.089,194.076l-207.362,310.363c-16.228,35.295 8.277,57.504 10.365,59.598c2.098,2.1 28.801,28.224 65.742,5.692l311.657,-210.988l244.007,206.007c7.331,6.956 16.413,12.992 27.096,13.64c10.596,0.643 19.741,-2.63 28.036,-10.677c6.264,-6.077 10.651,-15.138 10.184,-25.7l0,-447.873c0,-11.139 -5.342,-21.031 -13.604,-27.253c-5.704,-4.295 -12.8,-6.842 -20.491,-6.842l-274.179,0c-22.695,0 -36.358,17.191 -36.358,34.981c0,19.449 14.038,34.981 36.327,34.981c0,0 159.309,-0.072 217.383,-0.099c5.53,-0.003 10.834,2.194 14.743,6.104c3.91,3.911 6.104,9.216 6.099,14.745c-0.042,53.871 -0.156,198.371 -0.211,269.113c-0.006,7.306 -4.233,13.95 -10.849,17.051c-6.615,3.1 -14.427,2.098 -20.045,-2.572c-62.888,-52.274 -199.976,-166.226 -199.976,-166.226c0,0 -115.182,78.194 -198.636,134.849c-7.811,5.303 -18.286,4.317 -24.971,-2.35c-6.685,-6.667 -7.699,-17.139 -2.417,-24.965c54.515,-80.772 128.351,-190.172 128.351,-190.172Z" style="fill:#252530;fill-rule:nonzero;"/></g></svg>