<?xml version="1.0" encoding="UTF-8" standalone="no"?><!DOCTYPE svg PUBLIC "-//W3C//DTD SVG 1.1//EN" "http://www.w3.org/Graphics/SVG/1.1/DTD/svg11.dtd"><svg width="100%" height="100%" viewBox="0 0 29584 29584" version="1.1" xmlns="http://www.w3.org/2000/svg" xmlns:xlink="http://www.w3.org/1999/xlink" xml:space="preserve" xmlns:serif="http://www.serif.com/" style="fill-rule:evenodd;clip-rule:evenodd;stroke-linejoin:round;stroke-miterlimit:2;"><rect id="Favicon" x="0" y="0" width="29583.331" height="29583.333" style="fill:none;"/><clipPath id="_clip1"><rect x="0" y="0" width="29583.331" height="29583.333"/></clipPath><g clip-path="url(#_clip1)"><rect x="-0.003" y="-0" width="29583.333" height="29583.333" style="fill:#11111d;"/><path d="M12991.587,19374.892l-7723.135,6068.619l-11.986,-15.254c-207.235,169.931 -472.241,271.961 -760.889,271.961c-662.977,0 -1201.231,-538.253 -1201.231,-1201.231l0,-15004.569c0,-662.977 538.253,-1201.231 1201.231,-1201.231l9371.375,0c662.977,0 1201.231,538.253 1201.231,1201.231c0,662.977 -538.253,1201.231 -1201.231,1201.231c0,0 -7398.083,0 -8114.532,0c-14.749,-0 -28.895,5.859 -39.324,16.289c-10.429,10.429 -16.289,24.575 -16.289,39.324l0,11185.82c-0,21.29 12.155,40.712 31.303,50.018c19.148,9.306 41.929,6.864 58.67,-6.29c817.34,-642.242 6927.775,-5443.648 6927.775,-5443.648c0,0 8453.877,4203.984 9799.376,4873.08c22.375,11.127 49.425,5.963 66.128,-12.624c16.703,-18.587 18.956,-46.033 5.51,-67.096c-780.55,-1222.653 -5532.507,-8666.115 -5532.507,-8666.115l-51.566,-43.241c0,0 4591.764,-5475.816 5237.601,-6245.996c13.619,-16.241 16.596,-38.9 7.636,-58.108c-8.961,-19.208 -28.237,-31.486 -49.432,-31.486c-1536.59,0 -17701.723,0 -17701.723,0c-662.977,0 -1201.231,-538.253 -1201.231,-1201.231c0,-662.977 538.253,-1201.231 1201.231,-1201.231l20354.85,0c662.977,0 1201.231,538.253 1201.231,1201.231c0,306.609 -115.122,586.542 -304.463,798.895l23.343,19.574l-5781.93,6895.126l7073.823,11080.431l-1.272,0.812c109.332,180.997 172.265,393.11 172.265,619.805c0,662.977 -538.253,1201.231 -1201.231,1201.231c-181.961,0 -354.527,-40.546 -509.148,-113.088l-1.045,2.101l-335.062,-166.621l-10.41,20.901l-12184.942,-6068.619Z" style="fill:#f0b90b;"/></g></svg>